<svg width="31" height="31" viewBox="0 0 31 31" fill="none" xmlns="http://www.w3.org/2000/svg">
<g clip-path="url(#clip0_490_4492)">
<path d="M26.9475 19.8473C25.9092 18.0615 25.3578 15.4982 25.3578 12.4397C25.3578 9.77501 24.2993 7.21941 22.415 5.33515C20.5307 3.4509 17.9751 2.39233 15.3104 2.39233C12.6457 2.39233 10.0901 3.4509 8.20581 5.33515C6.32155 7.21941 5.26299 9.77501 5.26299 12.4397C5.26299 15.4994 4.71397 18.0615 3.67574 19.8473C3.46388 20.2116 3.35158 20.6251 3.35011 21.0465C3.34864 21.4679 3.45806 21.8822 3.66736 22.2479C3.87535 22.6139 4.17723 22.9176 4.54183 23.1279C4.90644 23.3382 5.32056 23.4473 5.74144 23.4441H10.069C10.1877 24.7522 10.7912 25.9686 11.7611 26.8545C12.7309 27.7403 13.9969 28.2314 15.3104 28.2314C16.6239 28.2314 17.8899 27.7403 18.8597 26.8545C19.8296 25.9686 20.4331 24.7522 20.5518 23.4441H24.8794C25.2996 23.4467 25.713 23.3372 26.0769 23.127C26.4409 22.9167 26.7422 22.6133 26.9499 22.2479C27.1601 21.8828 27.2705 21.4687 27.2701 21.0473C27.2697 20.6259 27.1584 20.2121 26.9475 19.8473ZM15.3104 25.3579C14.7589 25.358 14.2243 25.1675 13.7971 24.8188C13.3699 24.47 13.0763 23.9844 12.966 23.4441H17.6548C17.5445 23.9844 17.2509 24.47 16.8237 24.8188C16.3965 25.1675 15.8619 25.358 15.3104 25.3579ZM6.53805 20.5734C7.59662 18.4204 8.13368 15.686 8.13368 12.4397C8.13368 10.5364 8.8898 8.71094 10.2357 7.36504C11.5816 6.01914 13.407 5.26302 15.3104 5.26302C17.2138 5.26302 19.0392 6.01914 20.3851 7.36504C21.731 8.71094 22.4871 10.5364 22.4871 12.4397C22.4871 15.6848 23.023 18.4204 24.0816 20.5734H6.53805Z" fill="#292929"/>
<circle cx="21.6898" cy="5.10345" r="3.82759" fill="white" stroke="#5352ED" stroke-width="2.55172"/>
</g>
<defs>
<clipPath id="clip0_490_4492">
<rect width="30.6207" height="30.6207" fill="white"/>
</clipPath>
</defs>
</svg>
