<svg width="31" height="31" viewBox="0 0 31 31" fill="none" xmlns="http://www.w3.org/2000/svg">
<path d="M15.3104 16.7458C15.3104 17.1265 15.1592 17.4916 14.89 17.7608C14.6209 18.0299 14.2558 18.1812 13.8751 18.1812H8.61216C8.23149 18.1812 7.8664 18.0299 7.59722 17.7608C7.32804 17.4916 7.17682 17.1265 7.17682 16.7458C7.17682 16.3651 7.32804 16 7.59722 15.7309C7.8664 15.4617 8.23149 15.3105 8.61216 15.3105H13.8751C14.2558 15.3105 14.6209 15.4617 14.89 15.7309C15.1592 16 15.3104 16.3651 15.3104 16.7458ZM13.8751 10.526H8.61216C8.23149 10.526 7.8664 10.6772 7.59722 10.9464C7.32804 11.2156 7.17682 11.5806 7.17682 11.9613C7.17682 12.342 7.32804 12.7071 7.59722 12.9763C7.8664 13.2454 8.23149 13.3967 8.61216 13.3967H13.8751C14.2558 13.3967 14.6209 13.2454 14.89 12.9763C15.1592 12.7071 15.3104 12.342 15.3104 11.9613C15.3104 11.5806 15.1592 11.2156 14.89 10.9464C14.6209 10.6772 14.2558 10.526 13.8751 10.526ZM28.2285 19.9921V27.2717C28.2285 27.523 28.1625 27.77 28.0371 27.9878C27.9116 28.2056 27.7312 28.3867 27.5138 28.5129C27.2964 28.6391 27.0497 28.706 26.7983 28.7069C26.547 28.7078 26.2998 28.6427 26.0815 28.518L23.4441 27.0109L20.8126 28.518C20.5942 28.6441 20.3463 28.7105 20.0941 28.7103C19.8419 28.7102 19.5941 28.6436 19.3758 28.5172C19.1575 28.3908 18.9764 28.2092 18.8506 27.9905C18.7249 27.7718 18.659 27.5239 18.6596 27.2717V24.401H4.78458C4.15011 24.401 3.54164 24.1489 3.09301 23.7003C2.64437 23.2517 2.39233 22.6432 2.39233 22.0087V6.69839C2.39233 6.06393 2.64437 5.45546 3.09301 5.00682C3.54164 4.55819 4.15011 4.30615 4.78458 4.30615H25.8363C26.4708 4.30615 27.0792 4.55819 27.5279 5.00682C27.9765 5.45546 28.2285 6.06393 28.2285 6.69839V10.6288C29.4552 11.8784 30.1425 13.5594 30.1425 15.3105C30.1425 17.0615 29.4552 18.7426 28.2285 19.9921ZM23.4441 19.1381C24.2011 19.1381 24.9411 18.9136 25.5706 18.493C26.2 18.0724 26.6906 17.4746 26.9803 16.7752C27.27 16.0758 27.3458 15.3062 27.1981 14.5637C27.0504 13.8213 26.6859 13.1392 26.1506 12.604C25.6153 12.0687 24.9333 11.7041 24.1908 11.5564C23.4483 11.4087 22.6787 11.4845 21.9793 11.7742C21.2799 12.0639 20.6821 12.5545 20.2615 13.184C19.841 13.8134 19.6165 14.5534 19.6165 15.3105C19.6165 16.3256 20.0197 17.2992 20.7376 18.017C21.4554 18.7348 22.4289 19.1381 23.4441 19.1381ZM18.6596 21.5303V19.9921C17.6241 18.9309 16.9699 17.5562 16.7996 16.0833C16.6293 14.6104 16.9525 13.1227 17.7186 11.8532C18.4846 10.5837 19.6502 9.60431 21.0327 9.06845C22.4151 8.53258 23.9363 8.47055 25.3579 8.89208V7.17684H5.26302V21.5303H18.6596ZM25.3579 24.7981V21.7288C24.1093 22.102 22.7788 22.102 21.5303 21.7288V24.7981L22.7324 24.1115C22.9491 23.9878 23.1944 23.9227 23.4441 23.9227C23.6937 23.9227 23.939 23.9878 24.1558 24.1115L25.3579 24.7981Z" fill="#292929"/>
</svg>
