<svg width="592" height="410" viewBox="0 0 592 410" fill="none" xmlns="http://www.w3.org/2000/svg">
<g clip-path="url(#clip0_490_4510)">
<rect width="592" height="410" fill="#EFEFEF"/>
<rect x="42" y="109" width="507" height="382" rx="29" fill="white"/>
<rect opacity="0.43" x="65" y="154" width="413" height="289" rx="8" fill="white"/>
<g filter="url(#filter0_dddd_490_4510)">
<rect x="87.4289" y="35.4289" width="417.763" height="339.7" rx="15.7076" fill="white" stroke="#DCDCDC" stroke-width="0.857829"/>
<g opacity="0.6">
<g clip-path="url(#clip1_490_4510)">
<path d="M128.815 72.8988L125.154 69.2388C125.042 69.1266 124.909 69.0377 124.763 68.977C124.616 68.9163 124.459 68.885 124.301 68.885C124.142 68.885 123.985 68.9163 123.839 68.977C123.692 69.0377 123.559 69.1266 123.447 69.2388L120.313 72.3837C119.564 72.1828 118.101 72.0387 116.589 73.2583C116.457 73.3645 116.349 73.4973 116.272 73.648C116.195 73.7988 116.15 73.9642 116.141 74.1333C116.132 74.3025 116.159 74.4717 116.219 74.6299C116.28 74.7881 116.373 74.9317 116.493 75.0515L119.235 77.794L116.834 80.1946C116.698 80.3306 116.622 80.515 116.622 80.7073C116.622 80.8996 116.698 81.084 116.834 81.22C116.97 81.356 117.155 81.4324 117.347 81.4324C117.539 81.4324 117.724 81.356 117.86 81.22L120.26 78.8188L123.003 81.5608C123.229 81.7865 123.535 81.9134 123.854 81.9136C123.882 81.9136 123.911 81.9136 123.939 81.9106C124.111 81.8982 124.279 81.8489 124.43 81.7662C124.582 81.6835 124.714 81.5692 124.817 81.4311C125.1 81.0553 125.481 80.4582 125.688 79.7423C125.896 79.0263 125.896 78.3622 125.698 77.7277L128.816 74.5991C129.04 74.3729 129.166 74.0672 129.166 73.7487C129.166 73.4302 129.04 73.1246 128.815 72.8988ZM124.336 77.0479C124.229 77.1554 124.158 77.2938 124.134 77.4436C124.11 77.5934 124.133 77.747 124.201 77.8827C124.408 78.2965 124.617 79.1494 123.823 80.3346L117.713 74.2251C118.985 73.3451 120.097 73.8246 120.185 73.8632C120.321 73.9334 120.475 73.9578 120.625 73.9329C120.775 73.908 120.913 73.8351 121.018 73.7251L124.301 70.4313L127.619 73.7486L124.336 77.0479Z" fill="#7C7C7C"/>
</g>
<path d="M136.366 80.8821V69.919H140.458C141.714 69.919 142.692 70.2227 143.392 70.83C144.092 71.4271 144.442 72.2609 144.442 73.3315C144.442 74.0417 144.282 74.6594 143.963 75.1844C143.644 75.6991 143.186 76.0954 142.589 76.3733C142.002 76.641 141.292 76.7748 140.458 76.7748H138.034V80.8821H136.366ZM138.034 75.2616H140.412C141.163 75.2616 141.735 75.102 142.126 74.7829C142.517 74.4535 142.713 73.9697 142.713 73.3315C142.713 72.7035 142.517 72.2352 142.126 71.9263C141.735 71.6072 141.163 71.4477 140.412 71.4477H138.034V75.2616ZM146.213 80.8821V69.919H150.583C151.365 69.919 152.039 70.0528 152.606 70.3205C153.172 70.5881 153.609 70.969 153.918 71.4631C154.227 71.9572 154.381 72.544 154.381 73.2234C154.381 73.7175 154.268 74.1601 154.042 74.5513C153.825 74.9425 153.532 75.2564 153.161 75.4932C152.801 75.7197 152.415 75.8483 152.003 75.8792L151.926 75.7403C152.616 75.7403 153.151 75.8998 153.532 76.2189C153.913 76.5277 154.134 77.0167 154.196 77.6858L154.489 80.8821H152.806L152.544 77.902C152.513 77.4593 152.364 77.1351 152.096 76.9292C151.828 76.713 151.391 76.6049 150.783 76.6049H147.881V80.8821H146.213ZM147.881 75.0763H150.614C151.242 75.0763 151.736 74.9219 152.096 74.6131C152.467 74.294 152.652 73.8462 152.652 73.2697C152.652 72.6829 152.467 72.2352 152.096 71.9263C151.725 71.6072 151.185 71.4477 150.475 71.4477H147.881V75.0763ZM160.944 81.1291C159.884 81.1291 158.973 80.9027 158.211 80.4497C157.449 79.9865 156.863 79.3277 156.451 78.4733C156.039 77.6189 155.833 76.5998 155.833 75.416C155.833 74.2322 156.039 73.2131 156.451 72.3587C156.863 71.494 157.449 70.83 158.211 70.3668C158.973 69.9036 159.884 69.672 160.944 69.672C162.015 69.672 162.931 69.9036 163.693 70.3668C164.465 70.83 165.052 71.494 165.453 72.3587C165.865 73.2131 166.071 74.2322 166.071 75.416C166.071 76.5998 165.865 77.6189 165.453 78.4733C165.052 79.3277 164.465 79.9865 163.693 80.4497C162.931 80.9027 162.015 81.1291 160.944 81.1291ZM160.944 79.6005C161.655 79.6005 162.262 79.4358 162.766 79.1064C163.281 78.777 163.672 78.3034 163.94 77.6858C164.207 77.0579 164.341 76.3013 164.341 75.416C164.341 74.5307 164.207 73.7741 163.94 73.1462C163.672 72.5182 163.281 72.0396 162.766 71.7102C162.262 71.3705 161.655 71.2006 160.944 71.2006C160.244 71.2006 159.642 71.3705 159.138 71.7102C158.633 72.0396 158.242 72.5182 157.964 73.1462C157.696 73.7741 157.563 74.5307 157.563 75.416C157.563 76.3013 157.696 77.0579 157.964 77.6858C158.242 78.3034 158.633 78.777 159.138 79.1064C159.642 79.4358 160.244 79.6005 160.944 79.6005ZM171.185 81.1291C170.454 81.1291 169.811 80.9644 169.255 80.635C168.709 80.2953 168.287 79.8321 167.989 79.2453C167.69 78.6483 167.536 77.9637 167.526 77.1917L169.224 77.0991C169.234 77.9226 169.409 78.5454 169.749 78.9674C170.089 79.3895 170.568 79.6005 171.185 79.6005C171.834 79.6005 172.328 79.3792 172.668 78.9365C173.018 78.4939 173.193 77.8557 173.193 77.0218V69.919H174.86V77.0218C174.86 77.8557 174.706 78.5814 174.397 79.199C174.098 79.8167 173.676 80.2953 173.131 80.635C172.585 80.9644 171.937 81.1291 171.185 81.1291ZM177.517 80.8821V69.919H184.651V71.4477H179.185V74.6439H184.465V76.1263H179.185V79.3534H184.774V80.8821H177.517ZM189.15 80.8821V71.4477H185.784V69.919H194.184V71.4477H190.817V80.8821H189.15ZM199.547 81.1291C198.486 81.1291 197.575 80.9027 196.814 80.4497C196.052 79.9865 195.465 79.3277 195.053 78.4733C194.641 77.6189 194.436 76.5998 194.436 75.416C194.436 74.2322 194.641 73.2131 195.053 72.3587C195.465 71.494 196.052 70.83 196.814 70.3668C197.575 69.9036 198.486 69.672 199.547 69.672C200.617 69.672 201.533 69.9036 202.295 70.3668C203.067 70.83 203.654 71.494 204.055 72.3587C204.467 73.2131 204.673 74.2322 204.673 75.416C204.673 76.5998 204.467 77.6189 204.055 78.4733C203.654 79.3277 203.067 79.9865 202.295 80.4497C201.533 80.9027 200.617 81.1291 199.547 81.1291ZM199.547 79.6005C200.257 79.6005 200.864 79.4358 201.369 79.1064C201.883 78.777 202.274 78.3034 202.542 77.6858C202.81 77.0579 202.944 76.3013 202.944 75.416C202.944 74.5307 202.81 73.7741 202.542 73.1462C202.274 72.5182 201.883 72.0396 201.369 71.7102C200.864 71.3705 200.257 71.2006 199.547 71.2006C198.847 71.2006 198.244 71.3705 197.74 71.7102C197.236 72.0396 196.844 72.5182 196.566 73.1462C196.299 73.7741 196.165 74.5307 196.165 75.416C196.165 76.3013 196.299 77.0579 196.566 77.6858C196.844 78.3034 197.236 78.777 197.74 79.1064C198.244 79.4358 198.847 79.6005 199.547 79.6005ZM210.435 80.8821V69.919H217.553V71.4477H211.222L212.102 70.5367V75.5704L211.222 74.7829H217.275V76.2652H211.222L212.102 75.4778V80.8821H210.435ZM219.346 80.8821V69.919H221.014V80.8821H219.346ZM222.411 80.8821L226.055 75.3851L222.442 69.919H224.403L227.105 74.0881L229.761 69.919H231.707L228.094 75.3542L231.753 80.8821H229.792L227.075 76.6513L224.357 80.8821H222.411ZM232.275 80.8821L236.228 69.919H238.344L242.296 80.8821H240.521L239.517 78.0255H235.039L234.051 80.8821H232.275ZM235.564 76.5123H239.008L237.278 71.5094L235.564 76.5123ZM243.608 80.8821V69.919H247.129C248.848 69.919 250.171 70.3977 251.097 71.355C252.024 72.3021 252.487 73.6557 252.487 75.416C252.487 77.166 252.029 78.5145 251.113 79.4615C250.207 80.4086 248.91 80.8821 247.222 80.8821H243.608ZM245.276 79.3534H247.129C248.344 79.3534 249.25 79.0292 249.847 78.3806C250.454 77.7218 250.758 76.7336 250.758 75.416C250.758 74.0778 250.454 73.0844 249.847 72.4359C249.25 71.7771 248.344 71.4477 247.129 71.4477H245.276V79.3534ZM258.958 81.1291C257.898 81.1291 256.987 80.9027 256.225 80.4497C255.463 79.9865 254.876 79.3277 254.465 78.4733C254.053 77.6189 253.847 76.5998 253.847 75.416C253.847 74.2322 254.053 73.2131 254.465 72.3587C254.876 71.494 255.463 70.83 256.225 70.3668C256.987 69.9036 257.898 69.672 258.958 69.672C260.029 69.672 260.945 69.9036 261.706 70.3668C262.478 70.83 263.065 71.494 263.467 72.3587C263.878 73.2131 264.084 74.2322 264.084 75.416C264.084 76.5998 263.878 77.6189 263.467 78.4733C263.065 79.3277 262.478 79.9865 261.706 80.4497C260.945 80.9027 260.029 81.1291 258.958 81.1291ZM258.958 79.6005C259.668 79.6005 260.276 79.4358 260.78 79.1064C261.295 78.777 261.686 78.3034 261.953 77.6858C262.221 77.0579 262.355 76.3013 262.355 75.416C262.355 74.5307 262.221 73.7741 261.953 73.1462C261.686 72.5182 261.295 72.0396 260.78 71.7102C260.276 71.3705 259.668 71.2006 258.958 71.2006C258.258 71.2006 257.656 71.3705 257.151 71.7102C256.647 72.0396 256.256 72.5182 255.978 73.1462C255.71 73.7741 255.576 74.5307 255.576 75.416C255.576 76.3013 255.71 77.0579 255.978 77.6858C256.256 78.3034 256.647 78.777 257.151 79.1064C257.656 79.4358 258.258 79.6005 258.958 79.6005Z" fill="#7C7C7C"/>
</g>
<path d="M143.992 129.495H143.483V118.799C143.483 117.854 143.107 116.947 142.439 116.278C141.77 115.61 140.863 115.234 139.918 115.234H121.581C120.636 115.234 119.729 115.61 119.06 116.278C118.392 116.947 118.016 117.854 118.016 118.799V129.495H117.507C117.102 129.495 116.713 129.656 116.426 129.943C116.14 130.229 115.979 130.618 115.979 131.023V134.079C115.979 135.025 116.354 135.932 117.023 136.6C117.692 137.269 118.599 137.645 119.544 137.645H141.955C142.9 137.645 143.807 137.269 144.476 136.6C145.145 135.932 145.52 135.025 145.52 134.079V131.023C145.52 130.618 145.359 130.229 145.073 129.943C144.786 129.656 144.398 129.495 143.992 129.495ZM121.072 118.799C121.072 118.664 121.126 118.535 121.221 118.439C121.317 118.344 121.446 118.29 121.581 118.29H139.918C140.053 118.29 140.182 118.344 140.278 118.439C140.373 118.535 140.427 118.664 140.427 118.799V129.495H121.072V118.799ZM142.464 134.079C142.464 134.214 142.411 134.344 142.315 134.439C142.22 134.535 142.09 134.589 141.955 134.589H119.544C119.409 134.589 119.279 134.535 119.184 134.439C119.088 134.344 119.035 134.214 119.035 134.079V132.551H142.464V134.079ZM134.315 121.855C134.315 122.261 134.154 122.649 133.867 122.936C133.581 123.222 133.192 123.383 132.787 123.383H128.712C128.307 123.383 127.918 123.222 127.632 122.936C127.345 122.649 127.184 122.261 127.184 121.855C127.184 121.45 127.345 121.061 127.632 120.775C127.918 120.488 128.307 120.327 128.712 120.327H132.787C133.192 120.327 133.581 120.488 133.867 120.775C134.154 121.061 134.315 121.45 134.315 121.855Z" fill="#5352ED"/>
<path d="M159.363 134.43L154.799 117.376H158.09L161.213 130.106L164.359 117.376H167.265L170.412 130.106L173.51 117.376H176.825L172.261 134.43H168.803L165.824 122.757L162.846 134.43H159.363ZM183.319 134.718C182.038 134.718 180.925 134.446 179.98 133.902C179.036 133.341 178.307 132.556 177.795 131.548C177.282 130.539 177.026 129.362 177.026 128.017C177.026 126.672 177.282 125.503 177.795 124.51C178.307 123.501 179.027 122.717 179.956 122.156C180.901 121.596 181.998 121.315 183.247 121.315C184.464 121.315 185.529 121.588 186.441 122.132C187.37 122.677 188.083 123.461 188.579 124.486C189.076 125.511 189.324 126.744 189.324 128.185V128.881H180.22C180.285 130.002 180.589 130.851 181.133 131.428C181.694 131.988 182.43 132.268 183.343 132.268C184.032 132.268 184.6 132.116 185.048 131.812C185.513 131.492 185.833 131.051 186.009 130.491L189.156 130.683C188.803 131.932 188.107 132.917 187.066 133.637C186.041 134.358 184.792 134.718 183.319 134.718ZM180.22 126.816H186.153C186.089 125.775 185.793 125.006 185.264 124.51C184.736 123.998 184.064 123.741 183.247 123.741C182.43 123.741 181.75 124.006 181.205 124.534C180.677 125.062 180.349 125.823 180.22 126.816ZM198.14 134.718C197.243 134.718 196.459 134.526 195.786 134.142C195.13 133.757 194.617 133.221 194.249 132.532L194.177 134.43H191.247V117.376H194.321V123.429C194.673 122.837 195.178 122.34 195.834 121.94C196.491 121.524 197.259 121.315 198.14 121.315C199.245 121.315 200.198 121.596 200.998 122.156C201.815 122.701 202.44 123.477 202.872 124.486C203.32 125.479 203.544 126.656 203.544 128.017C203.544 129.378 203.32 130.563 202.872 131.572C202.44 132.564 201.815 133.341 200.998 133.902C200.198 134.446 199.245 134.718 198.14 134.718ZM197.444 132.22C198.324 132.22 199.029 131.852 199.557 131.115C200.086 130.363 200.35 129.33 200.35 128.017C200.35 126.688 200.086 125.655 199.557 124.918C199.045 124.182 198.348 123.813 197.468 123.813C196.811 123.813 196.243 123.982 195.762 124.318C195.298 124.638 194.938 125.11 194.681 125.735C194.441 126.359 194.321 127.12 194.321 128.017C194.321 128.881 194.441 129.634 194.681 130.275C194.938 130.899 195.298 131.379 195.762 131.716C196.227 132.052 196.787 132.22 197.444 132.22ZM210.662 134.718C209.397 134.718 208.332 134.534 207.467 134.166C206.619 133.797 205.962 133.285 205.498 132.628C205.033 131.972 204.769 131.227 204.705 130.395L207.852 130.251C207.964 130.923 208.244 131.444 208.692 131.812C209.141 132.18 209.805 132.364 210.686 132.364C211.407 132.364 211.967 132.252 212.367 132.028C212.784 131.788 212.992 131.42 212.992 130.923C212.992 130.635 212.92 130.395 212.776 130.203C212.632 130.01 212.359 129.842 211.959 129.698C211.559 129.554 210.966 129.41 210.182 129.266C208.869 129.042 207.836 128.769 207.083 128.449C206.331 128.113 205.794 127.697 205.474 127.2C205.17 126.704 205.017 126.087 205.017 125.351C205.017 124.15 205.474 123.181 206.387 122.444C207.315 121.692 208.668 121.315 210.446 121.315C211.599 121.315 212.568 121.508 213.352 121.892C214.137 122.26 214.745 122.773 215.178 123.429C215.626 124.07 215.906 124.806 216.018 125.639L212.92 125.783C212.84 125.351 212.696 124.974 212.487 124.654C212.279 124.334 211.999 124.094 211.647 123.934C211.295 123.757 210.878 123.669 210.398 123.669C209.677 123.669 209.133 123.813 208.764 124.102C208.396 124.39 208.212 124.774 208.212 125.255C208.212 125.591 208.292 125.871 208.452 126.095C208.628 126.319 208.909 126.504 209.293 126.648C209.677 126.776 210.19 126.896 210.83 127.008C212.175 127.216 213.232 127.488 214.001 127.825C214.785 128.145 215.338 128.561 215.658 129.074C215.994 129.57 216.162 130.171 216.162 130.875C216.162 131.692 215.93 132.388 215.466 132.965C215.017 133.541 214.377 133.982 213.544 134.286C212.728 134.574 211.767 134.718 210.662 134.718ZM218.082 134.43V121.604H221.156V134.43H218.082ZM218.033 119.898V117.16H221.228V119.898H218.033ZM228.394 134.43C227.113 134.43 226.168 134.134 225.56 133.541C224.967 132.949 224.671 132.02 224.671 130.755V118.601H227.746V130.467C227.746 131.059 227.874 131.476 228.13 131.716C228.386 131.94 228.787 132.052 229.331 132.052H231.132V134.43H228.394ZM222.654 123.982V121.604H231.132V123.982H222.654ZM238.244 134.718C236.963 134.718 235.85 134.446 234.905 133.902C233.961 133.341 233.232 132.556 232.72 131.548C232.207 130.539 231.951 129.362 231.951 128.017C231.951 126.672 232.207 125.503 232.72 124.51C233.232 123.501 233.953 122.717 234.881 122.156C235.826 121.596 236.923 121.315 238.172 121.315C239.389 121.315 240.454 121.588 241.367 122.132C242.295 122.677 243.008 123.461 243.504 124.486C244.001 125.511 244.249 126.744 244.249 128.185V128.881H235.146C235.21 130.002 235.514 130.851 236.058 131.428C236.619 131.988 237.355 132.268 238.268 132.268C238.957 132.268 239.525 132.116 239.974 131.812C240.438 131.492 240.758 131.051 240.934 130.491L244.081 130.683C243.729 131.932 243.032 132.917 241.991 133.637C240.966 134.358 239.717 134.718 238.244 134.718ZM235.146 126.816H241.078C241.014 125.775 240.718 125.006 240.19 124.51C239.661 123.998 238.989 123.741 238.172 123.741C237.355 123.741 236.675 124.006 236.13 124.534C235.602 125.062 235.274 125.823 235.146 126.816ZM250.858 128.713V126.119H259.024V128.713H250.858ZM266.598 134.43V117.376H273.203C275.204 117.376 276.766 117.857 277.887 118.817C279.007 119.778 279.568 121.107 279.568 122.805C279.568 123.942 279.312 124.926 278.799 125.759C278.287 126.576 277.558 127.2 276.614 127.632C275.669 128.065 274.532 128.281 273.203 128.281H269.72V134.43H266.598ZM269.72 125.567H273.059C274.116 125.567 274.924 125.335 275.485 124.87C276.061 124.406 276.349 123.717 276.349 122.805C276.349 121.908 276.061 121.235 275.485 120.787C274.924 120.323 274.116 120.09 273.059 120.09H269.72V125.567ZM286.719 134.718C285.454 134.718 284.342 134.446 283.381 133.902C282.436 133.341 281.699 132.556 281.171 131.548C280.659 130.539 280.402 129.362 280.402 128.017C280.402 126.656 280.659 125.479 281.171 124.486C281.699 123.477 282.436 122.701 283.381 122.156C284.342 121.596 285.454 121.315 286.719 121.315C287.984 121.315 289.089 121.596 290.034 122.156C290.979 122.701 291.707 123.477 292.22 124.486C292.748 125.479 293.012 126.656 293.012 128.017C293.012 129.362 292.748 130.539 292.22 131.548C291.707 132.556 290.979 133.341 290.034 133.902C289.089 134.446 287.984 134.718 286.719 134.718ZM286.719 132.22C287.712 132.22 288.473 131.852 289.001 131.115C289.546 130.379 289.818 129.346 289.818 128.017C289.818 126.704 289.546 125.679 289.001 124.942C288.473 124.19 287.712 123.813 286.719 123.813C285.727 123.813 284.958 124.19 284.414 124.942C283.869 125.679 283.597 126.704 283.597 128.017C283.597 129.346 283.869 130.379 284.414 131.115C284.958 131.852 285.727 132.22 286.719 132.22ZM294.905 134.43V121.604H297.787L297.907 125.159L297.643 125.11C297.835 123.877 298.195 122.989 298.724 122.444C299.268 121.884 300.005 121.604 300.933 121.604H302.11V124.246H300.909C300.253 124.246 299.708 124.342 299.276 124.534C298.844 124.726 298.515 125.03 298.291 125.447C298.083 125.847 297.979 126.375 297.979 127.032V134.43H294.905ZM308.478 134.43C307.197 134.43 306.252 134.134 305.643 133.541C305.051 132.949 304.755 132.02 304.755 130.755V118.601H307.829V130.467C307.829 131.059 307.957 131.476 308.213 131.716C308.47 131.94 308.87 132.052 309.414 132.052H311.216V134.43H308.478ZM302.737 123.982V121.604H311.216V123.982H302.737ZM313.89 134.43V121.099C313.89 119.946 314.21 119.042 314.85 118.385C315.507 117.713 316.508 117.376 317.853 117.376H320.351V119.754H318.429C317.933 119.754 317.565 119.882 317.324 120.138C317.1 120.395 316.988 120.771 316.988 121.267V134.43H313.89ZM312.064 124.318V121.94H320.183V124.318H312.064ZM326.972 134.718C325.707 134.718 324.594 134.446 323.634 133.902C322.689 133.341 321.952 132.556 321.424 131.548C320.911 130.539 320.655 129.362 320.655 128.017C320.655 126.656 320.911 125.479 321.424 124.486C321.952 123.477 322.689 122.701 323.634 122.156C324.594 121.596 325.707 121.315 326.972 121.315C328.237 121.315 329.342 121.596 330.287 122.156C331.232 122.701 331.96 123.477 332.473 124.486C333.001 125.479 333.265 126.656 333.265 128.017C333.265 129.362 333.001 130.539 332.473 131.548C331.96 132.556 331.232 133.341 330.287 133.902C329.342 134.446 328.237 134.718 326.972 134.718ZM326.972 132.22C327.965 132.22 328.726 131.852 329.254 131.115C329.799 130.379 330.071 129.346 330.071 128.017C330.071 126.704 329.799 125.679 329.254 124.942C328.726 124.19 327.965 123.813 326.972 123.813C325.98 123.813 325.211 124.19 324.666 124.942C324.122 125.679 323.85 126.704 323.85 128.017C323.85 129.346 324.122 130.379 324.666 131.115C325.211 131.852 325.98 132.22 326.972 132.22ZM338.349 134.43C337.42 134.43 336.676 134.19 336.115 133.709C335.555 133.229 335.275 132.46 335.275 131.404V117.376H338.349V131.091C338.349 131.412 338.429 131.652 338.589 131.812C338.765 131.972 339.006 132.052 339.31 132.052H340.247V134.43H338.349ZM341.737 134.43V121.604H344.812V134.43H341.737ZM341.689 119.898V117.16H344.884V119.898H341.689ZM353.045 134.718C351.78 134.718 350.667 134.446 349.707 133.902C348.762 133.341 348.025 132.556 347.497 131.548C346.985 130.539 346.728 129.362 346.728 128.017C346.728 126.656 346.985 125.479 347.497 124.486C348.025 123.477 348.762 122.701 349.707 122.156C350.667 121.596 351.78 121.315 353.045 121.315C354.31 121.315 355.415 121.596 356.36 122.156C357.305 122.701 358.033 123.477 358.546 124.486C359.074 125.479 359.338 126.656 359.338 128.017C359.338 129.362 359.074 130.539 358.546 131.548C358.033 132.556 357.305 133.341 356.36 133.902C355.415 134.446 354.31 134.718 353.045 134.718ZM353.045 132.22C354.038 132.22 354.799 131.852 355.327 131.115C355.872 130.379 356.144 129.346 356.144 128.017C356.144 126.704 355.872 125.679 355.327 124.942C354.799 124.19 354.038 123.813 353.045 123.813C352.053 123.813 351.284 124.19 350.74 124.942C350.195 125.679 349.923 126.704 349.923 128.017C349.923 129.346 350.195 130.379 350.74 131.115C351.284 131.852 352.053 132.22 353.045 132.22Z" fill="#292929"/>
<path d="M120.071 164.338C119.093 164.338 118.234 164.112 117.492 163.659C116.751 163.196 116.175 162.537 115.763 161.683C115.351 160.828 115.145 159.809 115.145 158.625C115.145 157.441 115.351 156.422 115.763 155.568C116.175 154.703 116.751 154.039 117.492 153.576C118.234 153.113 119.093 152.881 120.071 152.881C121.399 152.881 122.428 153.216 123.159 153.885C123.89 154.554 124.369 155.465 124.595 156.618L123.19 156.711C123.036 155.928 122.706 155.311 122.202 154.858C121.698 154.405 120.987 154.178 120.071 154.178C119.371 154.178 118.753 154.358 118.218 154.719C117.693 155.069 117.281 155.578 116.983 156.247C116.684 156.906 116.535 157.699 116.535 158.625C116.535 159.552 116.684 160.344 116.983 161.003C117.281 161.662 117.693 162.166 118.218 162.516C118.753 162.866 119.371 163.041 120.071 163.041C121.028 163.041 121.77 162.794 122.295 162.3C122.82 161.796 123.149 161.116 123.283 160.262L124.688 160.355C124.554 161.147 124.292 161.842 123.9 162.439C123.509 163.036 122.989 163.505 122.341 163.844C121.703 164.174 120.946 164.338 120.071 164.338ZM127.689 164.091C127.215 164.091 126.829 163.968 126.531 163.721C126.232 163.474 126.083 163.083 126.083 162.547V153.128H127.38V162.439C127.38 162.604 127.421 162.733 127.504 162.825C127.596 162.908 127.725 162.949 127.89 162.949H128.6V164.091H127.689ZM129.77 164.091V155.908H131.067V164.091H129.77ZM129.739 154.626V153.113H131.098V154.626H129.739ZM136.277 164.277C135.505 164.277 134.836 164.102 134.269 163.752C133.713 163.402 133.281 162.908 132.972 162.269C132.674 161.621 132.525 160.864 132.525 159.999C132.525 159.135 132.674 158.383 132.972 157.745C133.281 157.107 133.708 156.613 134.254 156.263C134.81 155.902 135.463 155.722 136.215 155.722C136.925 155.722 137.553 155.892 138.099 156.232C138.644 156.561 139.066 157.045 139.365 157.683C139.674 158.322 139.828 159.099 139.828 160.015V160.401H133.883C133.935 161.276 134.166 161.935 134.578 162.377C135 162.82 135.566 163.041 136.277 163.041C136.812 163.041 137.249 162.918 137.589 162.671C137.939 162.413 138.181 162.079 138.315 161.667L139.705 161.775C139.488 162.506 139.077 163.108 138.469 163.582C137.872 164.045 137.141 164.277 136.277 164.277ZM133.883 159.258H138.408C138.346 158.466 138.114 157.884 137.713 157.513C137.322 157.143 136.822 156.958 136.215 156.958C135.587 156.958 135.067 157.153 134.655 157.544C134.254 157.925 133.997 158.497 133.883 159.258ZM141.276 164.091V155.908H142.465L142.511 157.992L142.357 157.853C142.46 157.369 142.64 156.973 142.897 156.664C143.155 156.345 143.464 156.108 143.824 155.954C144.194 155.8 144.591 155.722 145.013 155.722C145.641 155.722 146.155 155.861 146.557 156.139C146.969 156.417 147.272 156.793 147.468 157.266C147.674 157.73 147.777 158.249 147.777 158.826V164.091H146.48V159.197C146.48 158.692 146.418 158.27 146.294 157.93C146.181 157.58 145.996 157.318 145.739 157.143C145.481 156.958 145.147 156.865 144.735 156.865C144.107 156.865 143.587 157.066 143.175 157.467C142.774 157.858 142.573 158.435 142.573 159.197V164.091H141.276ZM152.317 164.091C151.575 164.091 151.025 163.921 150.664 163.582C150.314 163.242 150.139 162.712 150.139 161.991V153.993H151.437V161.96C151.437 162.331 151.519 162.588 151.684 162.733C151.848 162.877 152.1 162.949 152.44 162.949H153.614V164.091H152.317ZM148.935 157.05V155.908H153.614V157.05H148.935ZM158.014 164.277C157.242 164.277 156.573 164.102 156.007 163.752C155.451 163.402 155.018 162.908 154.71 162.269C154.411 161.621 154.262 160.864 154.262 159.999C154.262 159.135 154.411 158.383 154.71 157.745C155.018 157.107 155.446 156.613 155.991 156.263C156.547 155.902 157.201 155.722 157.952 155.722C158.663 155.722 159.29 155.892 159.836 156.232C160.382 156.561 160.804 157.045 161.102 157.683C161.411 158.322 161.565 159.099 161.565 160.015V160.401H155.621C155.672 161.276 155.904 161.935 156.316 162.377C156.738 162.82 157.304 163.041 158.014 163.041C158.549 163.041 158.987 162.918 159.326 162.671C159.676 162.413 159.918 162.079 160.052 161.667L161.442 161.775C161.226 162.506 160.814 163.108 160.207 163.582C159.61 164.045 158.879 164.277 158.014 164.277ZM155.621 159.258H160.145C160.083 158.466 159.851 157.884 159.45 157.513C159.059 157.143 158.56 156.958 157.952 156.958C157.324 156.958 156.804 157.153 156.393 157.544C155.991 157.925 155.734 158.497 155.621 159.258ZM163.35 164.091V162.346H165.094V164.091H163.35ZM163.35 158.023V156.278H165.094V158.023H163.35Z" fill="#3D3D3D"/>
<path d="M174.45 164.338C173.657 164.338 172.972 164.169 172.396 163.829C171.82 163.479 171.377 163 171.068 162.393C170.77 161.775 170.615 161.075 170.605 160.293L172.628 160.185C172.648 160.988 172.813 161.59 173.122 161.991C173.441 162.393 173.884 162.594 174.45 162.594C175.026 162.594 175.474 162.393 175.793 161.991C176.112 161.58 176.272 160.977 176.272 160.185V153.128H178.279V160.185C178.279 161.029 178.119 161.765 177.8 162.393C177.481 163.01 177.033 163.489 176.457 163.829C175.891 164.169 175.222 164.338 174.45 164.338ZM183.64 164.277C182.827 164.277 182.111 164.102 181.494 163.752C180.886 163.391 180.413 162.887 180.073 162.238C179.744 161.59 179.579 160.833 179.579 159.969C179.579 159.094 179.744 158.337 180.073 157.699C180.413 157.05 180.886 156.551 181.494 156.201C182.111 155.841 182.827 155.661 183.64 155.661C184.453 155.661 185.163 155.841 185.771 156.201C186.378 156.551 186.846 157.05 187.176 157.699C187.516 158.337 187.685 159.094 187.685 159.969C187.685 160.833 187.516 161.59 187.176 162.238C186.846 162.887 186.378 163.391 185.771 163.752C185.163 164.102 184.453 164.277 183.64 164.277ZM183.64 162.671C184.278 162.671 184.767 162.434 185.107 161.96C185.457 161.487 185.632 160.823 185.632 159.969C185.632 159.124 185.457 158.466 185.107 157.992C184.767 157.508 184.278 157.266 183.64 157.266C183.002 157.266 182.508 157.508 182.158 157.992C181.808 158.466 181.633 159.124 181.633 159.969C181.633 160.823 181.808 161.487 182.158 161.96C182.508 162.434 183.002 162.671 183.64 162.671ZM191.416 164.277C190.551 164.277 189.856 164.081 189.331 163.69C188.806 163.288 188.544 162.733 188.544 162.022C188.544 161.312 188.765 160.756 189.208 160.355C189.65 159.953 190.325 159.665 191.23 159.49L193.964 158.949C193.964 158.363 193.83 157.925 193.562 157.637C193.294 157.338 192.898 157.189 192.373 157.189C191.9 157.189 191.524 157.302 191.246 157.529C190.978 157.745 190.793 158.059 190.69 158.471L188.683 158.378C188.847 157.503 189.249 156.834 189.887 156.371C190.525 155.897 191.354 155.661 192.373 155.661C193.547 155.661 194.432 155.959 195.029 156.556C195.636 157.143 195.94 157.987 195.94 159.088V162.084C195.94 162.3 195.976 162.449 196.048 162.532C196.13 162.614 196.249 162.655 196.403 162.655H196.666V164.091C196.604 164.112 196.501 164.127 196.357 164.138C196.223 164.148 196.084 164.153 195.94 164.153C195.6 164.153 195.297 164.102 195.029 163.999C194.761 163.885 194.555 163.695 194.411 163.427C194.267 163.149 194.195 162.774 194.195 162.3L194.365 162.424C194.283 162.784 194.102 163.108 193.825 163.396C193.557 163.674 193.217 163.891 192.805 164.045C192.394 164.199 191.93 164.277 191.416 164.277ZM191.817 162.841C192.26 162.841 192.641 162.753 192.96 162.578C193.279 162.403 193.526 162.161 193.701 161.852C193.876 161.544 193.964 161.178 193.964 160.756V160.293L191.833 160.725C191.39 160.818 191.071 160.957 190.875 161.142C190.69 161.317 190.597 161.549 190.597 161.837C190.597 162.156 190.7 162.403 190.906 162.578C191.122 162.753 191.426 162.841 191.817 162.841ZM193.3 154.765C193.083 154.765 192.888 154.734 192.713 154.672C192.538 154.6 192.353 154.487 192.157 154.333C192.023 154.219 191.91 154.137 191.817 154.086C191.725 154.034 191.616 154.008 191.493 154.008C191.339 154.008 191.205 154.07 191.091 154.194C190.978 154.307 190.906 154.533 190.875 154.873H189.841C189.851 154.214 190 153.705 190.289 153.344C190.587 152.984 190.983 152.804 191.478 152.804C191.725 152.804 191.941 152.84 192.126 152.912C192.322 152.984 192.512 153.097 192.697 153.252C192.841 153.365 192.96 153.447 193.052 153.499C193.155 153.54 193.258 153.561 193.361 153.561C193.526 153.561 193.66 153.499 193.763 153.375C193.866 153.252 193.927 153.015 193.948 152.665H194.998C194.977 153.324 194.818 153.839 194.519 154.209C194.231 154.58 193.825 154.765 193.3 154.765ZM201.132 164.277C200.319 164.277 199.604 164.102 198.986 163.752C198.379 163.391 197.905 162.887 197.565 162.238C197.236 161.59 197.071 160.833 197.071 159.969C197.071 159.094 197.236 158.337 197.565 157.699C197.905 157.05 198.379 156.551 198.986 156.201C199.604 155.841 200.319 155.661 201.132 155.661C201.945 155.661 202.656 155.841 203.263 156.201C203.87 156.551 204.339 157.05 204.668 157.699C205.008 158.337 205.178 159.094 205.178 159.969C205.178 160.833 205.008 161.59 204.668 162.238C204.339 162.887 203.87 163.391 203.263 163.752C202.656 164.102 201.945 164.277 201.132 164.277ZM201.132 162.671C201.77 162.671 202.259 162.434 202.599 161.96C202.949 161.487 203.124 160.823 203.124 159.969C203.124 159.124 202.949 158.466 202.599 157.992C202.259 157.508 201.77 157.266 201.132 157.266C200.494 157.266 200 157.508 199.65 157.992C199.3 158.466 199.125 159.124 199.125 159.969C199.125 160.823 199.3 161.487 199.65 161.96C200 162.434 200.494 162.671 201.132 162.671ZM214.178 164.338C213.272 164.338 212.49 164.179 211.831 163.86C211.172 163.541 210.652 163.098 210.271 162.532C209.901 161.955 209.684 161.286 209.623 160.524L211.661 160.401C211.723 160.874 211.856 161.276 212.062 161.605C212.279 161.935 212.562 162.187 212.912 162.362C213.272 162.527 213.704 162.609 214.209 162.609C214.641 162.609 215.006 162.558 215.305 162.455C215.614 162.341 215.845 162.182 216 161.976C216.164 161.76 216.247 161.497 216.247 161.188C216.247 160.91 216.18 160.663 216.046 160.447C215.912 160.221 215.655 160.02 215.274 159.845C214.893 159.66 214.327 159.48 213.576 159.305C212.67 159.099 211.944 158.867 211.398 158.61C210.853 158.342 210.456 158.013 210.209 157.622C209.962 157.22 209.839 156.721 209.839 156.124C209.839 155.486 209.998 154.925 210.318 154.441C210.637 153.947 211.09 153.566 211.676 153.298C212.263 153.02 212.968 152.881 213.792 152.881C214.667 152.881 215.408 153.041 216.015 153.36C216.623 153.669 217.101 154.096 217.451 154.641C217.801 155.187 218.017 155.815 218.1 156.525L216.077 156.618C216.025 156.216 215.902 155.866 215.706 155.568C215.521 155.269 215.264 155.038 214.934 154.873C214.615 154.698 214.224 154.611 213.761 154.611C213.184 154.611 212.726 154.744 212.387 155.012C212.057 155.269 211.892 155.614 211.892 156.047C211.892 156.345 211.959 156.592 212.093 156.788C212.237 156.983 212.49 157.153 212.85 157.297C213.21 157.431 213.715 157.575 214.363 157.73C215.341 157.936 216.118 158.198 216.695 158.517C217.271 158.836 217.683 159.207 217.93 159.629C218.177 160.051 218.3 160.535 218.3 161.08C218.3 161.749 218.131 162.331 217.791 162.825C217.451 163.309 216.973 163.685 216.355 163.952C215.737 164.21 215.012 164.338 214.178 164.338ZM219.649 164.091V155.846H221.626V164.091H219.649ZM219.618 154.75V152.989H221.672V154.75H219.618ZM225.358 164.091C224.761 164.091 224.282 163.937 223.922 163.628C223.562 163.319 223.381 162.825 223.381 162.146V153.128H225.358V161.945C225.358 162.151 225.409 162.305 225.512 162.408C225.626 162.511 225.78 162.563 225.976 162.563H226.578V164.091H225.358ZM229.429 164.091L226.418 155.846H228.502L230.602 162.099L232.702 155.846H234.787L231.776 164.091H229.429ZM237.854 164.277C236.989 164.277 236.294 164.081 235.769 163.69C235.244 163.288 234.982 162.733 234.982 162.022C234.982 161.312 235.203 160.756 235.646 160.355C236.088 159.953 236.763 159.665 237.668 159.49L240.402 158.949C240.402 158.363 240.268 157.925 240 157.637C239.732 157.338 239.336 157.189 238.811 157.189C238.338 157.189 237.962 157.302 237.684 157.529C237.416 157.745 237.231 158.059 237.128 158.471L235.121 158.378C235.285 157.503 235.687 156.834 236.325 156.371C236.963 155.897 237.792 155.661 238.811 155.661C239.985 155.661 240.87 155.959 241.467 156.556C242.074 157.143 242.378 157.987 242.378 159.088V162.084C242.378 162.3 242.414 162.449 242.486 162.532C242.568 162.614 242.687 162.655 242.841 162.655H243.104V164.091C243.042 164.112 242.939 164.127 242.795 164.138C242.661 164.148 242.522 164.153 242.378 164.153C242.038 164.153 241.735 164.102 241.467 163.999C241.199 163.885 240.993 163.695 240.849 163.427C240.705 163.149 240.633 162.774 240.633 162.3L240.803 162.424C240.721 162.784 240.54 163.108 240.263 163.396C239.995 163.674 239.655 163.891 239.243 164.045C238.832 164.199 238.368 164.277 237.854 164.277ZM238.255 162.841C238.698 162.841 239.079 162.753 239.398 162.578C239.717 162.403 239.964 162.161 240.139 161.852C240.314 161.544 240.402 161.178 240.402 160.756V160.293L238.271 160.725C237.828 160.818 237.509 160.957 237.313 161.142C237.128 161.317 237.035 161.549 237.035 161.837C237.035 162.156 237.138 162.403 237.344 162.578C237.56 162.753 237.864 162.841 238.255 162.841Z" fill="#292929"/>
<path d="M115.871 190.954V179.991H119.809C121.034 179.991 121.986 180.284 122.665 180.871C123.345 181.458 123.684 182.271 123.684 183.311C123.684 184.011 123.53 184.618 123.221 185.133C122.912 185.637 122.47 186.023 121.893 186.291C121.317 186.558 120.622 186.692 119.809 186.692H117.199V190.954H115.871ZM117.199 185.395H119.809C120.632 185.395 121.25 185.22 121.661 184.87C122.084 184.52 122.295 184 122.295 183.311C122.295 182.641 122.084 182.137 121.661 181.797C121.25 181.458 120.632 181.288 119.809 181.288H117.199V185.395ZM125.269 190.954V182.77H126.411L126.473 184.839L126.35 184.793C126.453 184.093 126.674 183.583 127.014 183.264C127.364 182.935 127.827 182.77 128.403 182.77H129.206V184.005H128.419C128.007 184.005 127.662 184.083 127.384 184.237C127.117 184.381 126.911 184.602 126.767 184.901C126.633 185.189 126.566 185.56 126.566 186.013V190.954H125.269ZM132.401 191.139C131.556 191.139 130.882 190.944 130.378 190.552C129.884 190.161 129.637 189.616 129.637 188.916C129.637 188.216 129.842 187.665 130.254 187.263C130.666 186.862 131.32 186.579 132.215 186.414L135.118 185.874C135.118 185.184 134.953 184.669 134.624 184.33C134.305 183.99 133.821 183.82 133.173 183.82C132.606 183.82 132.159 183.949 131.829 184.206C131.5 184.453 131.273 184.814 131.15 185.287L129.776 185.179C129.93 184.407 130.301 183.784 130.887 183.311C131.484 182.827 132.246 182.585 133.173 182.585C134.223 182.585 135.025 182.883 135.581 183.48C136.137 184.067 136.415 184.88 136.415 185.92V189.302C136.415 189.487 136.446 189.621 136.508 189.703C136.58 189.775 136.693 189.811 136.848 189.811H137.172V190.954C137.131 190.964 137.064 190.969 136.971 190.969C136.878 190.98 136.781 190.985 136.678 190.985C136.307 190.985 136.003 190.928 135.767 190.815C135.54 190.691 135.375 190.506 135.273 190.259C135.17 190.002 135.118 189.667 135.118 189.255L135.273 189.286C135.2 189.636 135.025 189.955 134.748 190.244C134.47 190.522 134.125 190.743 133.713 190.908C133.301 191.062 132.864 191.139 132.401 191.139ZM132.524 189.997C133.07 189.997 133.533 189.894 133.914 189.688C134.305 189.472 134.603 189.183 134.809 188.823C135.015 188.452 135.118 188.041 135.118 187.588V187.001L132.462 187.495C131.906 187.598 131.52 187.758 131.304 187.974C131.098 188.18 130.995 188.452 130.995 188.792C130.995 189.173 131.129 189.472 131.397 189.688C131.675 189.894 132.051 189.997 132.524 189.997ZM137.882 190.954V189.657L143.055 183.913H138.037V182.77H144.476V184.067L139.303 189.811H144.599V190.954H137.882ZM149.132 191.139C148.38 191.139 147.722 190.964 147.155 190.614C146.589 190.264 146.152 189.77 145.843 189.132C145.534 188.483 145.38 187.727 145.38 186.862C145.38 185.987 145.534 185.23 145.843 184.592C146.152 183.954 146.589 183.46 147.155 183.11C147.722 182.76 148.38 182.585 149.132 182.585C149.883 182.585 150.537 182.76 151.093 183.11C151.659 183.46 152.097 183.954 152.405 184.592C152.714 185.23 152.869 185.987 152.869 186.862C152.869 187.727 152.714 188.483 152.405 189.132C152.097 189.77 151.659 190.264 151.093 190.614C150.537 190.964 149.883 191.139 149.132 191.139ZM149.132 189.904C149.883 189.904 150.465 189.636 150.877 189.101C151.299 188.555 151.51 187.809 151.51 186.862C151.51 185.915 151.299 185.174 150.877 184.639C150.465 184.093 149.883 183.82 149.132 183.82C148.38 183.82 147.794 184.093 147.372 184.639C146.95 185.174 146.739 185.915 146.739 186.862C146.739 187.809 146.95 188.555 147.372 189.101C147.794 189.636 148.38 189.904 149.132 189.904ZM154.663 190.954V189.209H156.408V190.954H154.663ZM154.663 184.886V183.141H156.408V184.886H154.663Z" fill="#3D3D3D"/>
<path d="M163.792 190.954V183.434H161.445V181.905H162.387C162.83 181.905 163.185 181.849 163.452 181.736C163.72 181.622 163.911 181.427 164.024 181.149C164.147 180.861 164.209 180.475 164.209 179.991H165.799V190.954H163.792ZM167.899 190.954C167.899 190.069 168.023 189.297 168.27 188.638C168.517 187.969 168.934 187.361 169.521 186.816C170.107 186.26 170.9 185.719 171.899 185.194C172.393 184.927 172.789 184.69 173.087 184.484C173.386 184.278 173.602 184.067 173.736 183.851C173.87 183.625 173.937 183.357 173.937 183.048C173.937 182.739 173.87 182.472 173.736 182.245C173.602 182.008 173.401 181.823 173.134 181.689C172.876 181.555 172.552 181.489 172.161 181.489C171.533 181.489 171.034 181.669 170.663 182.029C170.303 182.379 170.082 182.883 169.999 183.542L167.93 183.419C168.033 182.276 168.45 181.38 169.181 180.732C169.922 180.073 170.915 179.744 172.161 179.744C172.964 179.744 173.654 179.883 174.23 180.161C174.807 180.428 175.244 180.809 175.543 181.303C175.851 181.797 176.006 182.369 176.006 183.017C176.006 183.573 175.908 184.052 175.712 184.453C175.527 184.855 175.218 185.225 174.786 185.565C174.364 185.894 173.793 186.25 173.072 186.63C172.166 187.114 171.487 187.583 171.034 188.036C170.581 188.478 170.339 188.869 170.308 189.209H176.006V190.954H167.899ZM177.111 192.652L181.682 179.373H183.627L179.057 192.652H177.111ZM188.767 191.201C187.84 191.201 187.032 190.969 186.342 190.506C185.663 190.043 185.138 189.384 184.767 188.53C184.397 187.675 184.211 186.661 184.211 185.488C184.211 184.314 184.397 183.3 184.767 182.446C185.138 181.581 185.663 180.917 186.342 180.454C187.032 179.981 187.84 179.744 188.767 179.744C189.714 179.744 190.527 179.981 191.206 180.454C191.886 180.917 192.411 181.576 192.781 182.43C193.152 183.285 193.337 184.304 193.337 185.488C193.337 186.661 193.152 187.675 192.781 188.53C192.411 189.384 191.886 190.043 191.206 190.506C190.527 190.969 189.714 191.201 188.767 191.201ZM188.767 189.456C189.569 189.456 190.187 189.122 190.619 188.452C191.052 187.773 191.268 186.785 191.268 185.488C191.268 184.623 191.17 183.892 190.975 183.295C190.779 182.698 190.496 182.25 190.125 181.952C189.765 181.643 189.312 181.489 188.767 181.489C188.242 181.489 187.794 181.643 187.423 181.952C187.053 182.25 186.77 182.698 186.574 183.295C186.378 183.892 186.281 184.623 186.281 185.488C186.281 186.785 186.497 187.773 186.929 188.452C187.361 189.122 187.974 189.456 188.767 189.456ZM198.641 191.201C197.334 191.201 196.325 190.902 195.615 190.305C194.905 189.698 194.524 188.885 194.472 187.866L196.526 187.773C196.588 188.36 196.804 188.787 197.175 189.055C197.555 189.322 198.044 189.456 198.641 189.456C199.043 189.456 199.408 189.399 199.738 189.286C200.067 189.163 200.33 188.977 200.525 188.73C200.721 188.483 200.819 188.164 200.819 187.773C200.819 187.176 200.618 186.733 200.216 186.445C199.815 186.157 199.28 186.013 198.611 186.013H197.653V184.422H198.611C199.135 184.422 199.573 184.314 199.923 184.098C200.283 183.872 200.463 183.496 200.463 182.971C200.463 182.497 200.314 182.132 200.016 181.875C199.727 181.617 199.274 181.489 198.657 181.489C198.049 181.489 197.591 181.612 197.283 181.859C196.974 182.106 196.788 182.43 196.727 182.832L194.673 182.724C194.786 181.818 195.183 181.097 195.862 180.562C196.552 180.017 197.483 179.744 198.657 179.744C199.48 179.744 200.18 179.867 200.757 180.114C201.333 180.361 201.771 180.711 202.069 181.164C202.378 181.617 202.533 182.158 202.533 182.786C202.533 183.444 202.316 183.985 201.884 184.407C201.452 184.829 200.834 185.112 200.031 185.256V184.994C200.927 185.117 201.627 185.436 202.131 185.951C202.635 186.455 202.888 187.099 202.888 187.881C202.888 188.581 202.713 189.178 202.363 189.672C202.013 190.166 201.519 190.547 200.88 190.815C200.242 191.072 199.496 191.201 198.641 191.201ZM203.252 192.652L207.822 179.373H209.768L205.197 192.652H203.252ZM211.17 190.954C211.17 190.069 211.294 189.297 211.541 188.638C211.788 187.969 212.205 187.361 212.791 186.816C213.378 186.26 214.171 185.719 215.169 185.194C215.663 184.927 216.06 184.69 216.358 184.484C216.657 184.278 216.873 184.067 217.007 183.851C217.141 183.625 217.208 183.357 217.208 183.048C217.208 182.739 217.141 182.472 217.007 182.245C216.873 182.008 216.672 181.823 216.405 181.689C216.147 181.555 215.823 181.489 215.432 181.489C214.804 181.489 214.305 181.669 213.934 182.029C213.574 182.379 213.352 182.883 213.27 183.542L211.201 183.419C211.304 182.276 211.721 181.38 212.452 180.732C213.193 180.073 214.186 179.744 215.432 179.744C216.235 179.744 216.924 179.883 217.501 180.161C218.077 180.428 218.515 180.809 218.813 181.303C219.122 181.797 219.277 182.369 219.277 183.017C219.277 183.573 219.179 184.052 218.983 184.453C218.798 184.855 218.489 185.225 218.057 185.565C217.635 185.894 217.063 186.25 216.343 186.63C215.437 187.114 214.758 187.583 214.305 188.036C213.852 188.478 213.61 188.869 213.579 189.209H219.277V190.954H211.17ZM224.973 191.201C224.046 191.201 223.238 190.969 222.548 190.506C221.869 190.043 221.344 189.384 220.973 188.53C220.603 187.675 220.417 186.661 220.417 185.488C220.417 184.314 220.603 183.3 220.973 182.446C221.344 181.581 221.869 180.917 222.548 180.454C223.238 179.981 224.046 179.744 224.973 179.744C225.92 179.744 226.733 179.981 227.412 180.454C228.092 180.917 228.617 181.576 228.987 182.43C229.358 183.285 229.543 184.304 229.543 185.488C229.543 186.661 229.358 187.675 228.987 188.53C228.617 189.384 228.092 190.043 227.412 190.506C226.733 190.969 225.92 191.201 224.973 191.201ZM224.973 189.456C225.775 189.456 226.393 189.122 226.825 188.452C227.258 187.773 227.474 186.785 227.474 185.488C227.474 184.623 227.376 183.892 227.181 183.295C226.985 182.698 226.702 182.25 226.331 181.952C225.971 181.643 225.518 181.489 224.973 181.489C224.448 181.489 224 181.643 223.629 181.952C223.259 182.25 222.975 182.698 222.78 183.295C222.584 183.892 222.487 184.623 222.487 185.488C222.487 186.785 222.703 187.773 223.135 188.452C223.567 189.122 224.18 189.456 224.973 189.456ZM230.698 190.954C230.698 190.069 230.822 189.297 231.069 188.638C231.316 187.969 231.733 187.361 232.319 186.816C232.906 186.26 233.699 185.719 234.697 185.194C235.191 184.927 235.588 184.69 235.886 184.484C236.185 184.278 236.401 184.067 236.535 183.851C236.669 183.625 236.735 183.357 236.735 183.048C236.735 182.739 236.669 182.472 236.535 182.245C236.401 182.008 236.2 181.823 235.933 181.689C235.675 181.555 235.351 181.489 234.96 181.489C234.332 181.489 233.833 181.669 233.462 182.029C233.102 182.379 232.88 182.883 232.798 183.542L230.729 183.419C230.832 182.276 231.249 181.38 231.98 180.732C232.721 180.073 233.714 179.744 234.96 179.744C235.763 179.744 236.452 179.883 237.029 180.161C237.605 180.428 238.043 180.809 238.341 181.303C238.65 181.797 238.805 182.369 238.805 183.017C238.805 183.573 238.707 184.052 238.511 184.453C238.326 184.855 238.017 185.225 237.585 185.565C237.163 185.894 236.591 186.25 235.871 186.63C234.965 187.114 234.286 187.583 233.833 188.036C233.38 188.478 233.138 188.869 233.107 189.209H238.805V190.954H230.698ZM244.419 191.201C243.565 191.201 242.839 191.067 242.242 190.799C241.645 190.532 241.181 190.161 240.852 189.688C240.523 189.204 240.327 188.643 240.265 188.005L242.319 187.897C242.401 188.411 242.628 188.797 242.998 189.055C243.369 189.312 243.842 189.441 244.419 189.441C245.088 189.441 245.608 189.261 245.978 188.9C246.359 188.53 246.55 188.01 246.55 187.341C246.55 186.919 246.462 186.548 246.287 186.229C246.123 185.91 245.881 185.663 245.562 185.488C245.242 185.313 244.856 185.225 244.403 185.225C243.94 185.225 243.534 185.328 243.184 185.534C242.844 185.73 242.597 185.992 242.442 186.322H240.404L241.161 179.991H247.878V181.736H242.906L242.473 185.225L242.211 184.994C242.376 184.705 242.592 184.464 242.859 184.268C243.127 184.062 243.436 183.908 243.786 183.805C244.146 183.702 244.532 183.65 244.944 183.65C245.685 183.65 246.328 183.81 246.874 184.129C247.43 184.448 247.857 184.886 248.156 185.441C248.464 185.997 248.619 186.63 248.619 187.341C248.619 188.113 248.444 188.792 248.094 189.379C247.754 189.955 247.265 190.403 246.627 190.722C245.999 191.041 245.263 191.201 244.419 191.201Z" fill="#292929"/>
<rect x="114.451" y="216.542" width="103.451" height="24.8626" rx="12.4313" fill="#C5D4FF"/>
<path d="M131.292 233.973L128.684 224.228H130.564L132.348 231.502L134.146 224.228H135.807L137.605 231.502L139.376 224.228H141.27L138.662 233.973H136.686L134.984 227.302L133.282 233.973H131.292ZM144.981 234.138C144.249 234.138 143.613 233.982 143.073 233.671C142.533 233.351 142.117 232.902 141.824 232.326C141.531 231.749 141.385 231.077 141.385 230.308C141.385 229.54 141.531 228.872 141.824 228.304C142.117 227.728 142.528 227.28 143.059 226.959C143.599 226.639 144.226 226.479 144.939 226.479C145.635 226.479 146.243 226.634 146.765 226.946C147.296 227.257 147.703 227.705 147.986 228.291C148.27 228.876 148.412 229.581 148.412 230.404V230.802H143.21C143.247 231.443 143.42 231.928 143.732 232.257C144.052 232.577 144.473 232.738 144.994 232.738C145.388 232.738 145.713 232.651 145.969 232.477C146.234 232.294 146.417 232.042 146.518 231.722L148.316 231.832C148.115 232.545 147.716 233.108 147.122 233.52C146.536 233.932 145.822 234.138 144.981 234.138ZM143.21 229.622H146.6C146.564 229.027 146.394 228.588 146.092 228.304C145.79 228.012 145.406 227.865 144.939 227.865C144.473 227.865 144.084 228.016 143.773 228.318C143.471 228.62 143.283 229.055 143.21 229.622ZM153.45 234.138C152.937 234.138 152.489 234.028 152.105 233.808C151.73 233.589 151.437 233.282 151.226 232.889L151.185 233.973H149.511V224.228H151.267V227.687C151.469 227.348 151.757 227.065 152.132 226.836C152.507 226.598 152.947 226.479 153.45 226.479C154.081 226.479 154.626 226.639 155.083 226.959C155.55 227.27 155.907 227.714 156.154 228.291C156.41 228.858 156.538 229.53 156.538 230.308C156.538 231.086 156.41 231.763 156.154 232.34C155.907 232.907 155.55 233.351 155.083 233.671C154.626 233.982 154.081 234.138 153.45 234.138ZM153.052 232.71C153.555 232.71 153.958 232.5 154.26 232.079C154.562 231.649 154.713 231.059 154.713 230.308C154.713 229.549 154.562 228.959 154.26 228.538C153.967 228.117 153.569 227.906 153.066 227.906C152.69 227.906 152.366 228.002 152.091 228.195C151.826 228.378 151.62 228.647 151.473 229.004C151.336 229.361 151.267 229.796 151.267 230.308C151.267 230.802 151.336 231.232 151.473 231.598C151.62 231.955 151.826 232.23 152.091 232.422C152.356 232.614 152.677 232.71 153.052 232.71ZM160.867 233.973V224.228H164.106C165.662 224.228 166.856 224.653 167.689 225.504C168.531 226.346 168.951 227.549 168.951 229.114C168.951 230.67 168.54 231.868 167.716 232.71C166.893 233.552 165.717 233.973 164.189 233.973H160.867ZM162.652 232.422H164.106C165.122 232.422 165.877 232.147 166.371 231.598C166.865 231.049 167.112 230.221 167.112 229.114C167.112 227.989 166.865 227.151 166.371 226.602C165.877 226.053 165.122 225.779 164.106 225.779H162.652V232.422ZM173.518 234.138C172.786 234.138 172.15 233.982 171.61 233.671C171.07 233.351 170.654 232.902 170.361 232.326C170.068 231.749 169.922 231.077 169.922 230.308C169.922 229.54 170.068 228.872 170.361 228.304C170.654 227.728 171.066 227.28 171.596 226.959C172.136 226.639 172.763 226.479 173.477 226.479C174.172 226.479 174.781 226.634 175.302 226.946C175.833 227.257 176.24 227.705 176.524 228.291C176.807 228.876 176.949 229.581 176.949 230.404V230.802H171.747C171.784 231.443 171.958 231.928 172.269 232.257C172.589 232.577 173.01 232.738 173.532 232.738C173.925 232.738 174.25 232.651 174.506 232.477C174.771 232.294 174.954 232.042 175.055 231.722L176.853 231.832C176.652 232.545 176.254 233.108 175.659 233.52C175.073 233.932 174.36 234.138 173.518 234.138ZM171.747 229.622H175.137C175.101 229.027 174.932 228.588 174.63 228.304C174.328 228.012 173.943 227.865 173.477 227.865C173.01 227.865 172.621 228.016 172.31 228.318C172.008 228.62 171.821 229.055 171.747 229.622ZM181.026 234.138C180.303 234.138 179.695 234.032 179.201 233.822C178.716 233.611 178.341 233.319 178.075 232.944C177.81 232.568 177.659 232.143 177.622 231.667L179.42 231.585C179.485 231.969 179.645 232.266 179.901 232.477C180.157 232.687 180.537 232.793 181.04 232.793C181.452 232.793 181.772 232.728 182.001 232.6C182.239 232.463 182.358 232.253 182.358 231.969C182.358 231.804 182.317 231.667 182.234 231.557C182.152 231.447 181.996 231.351 181.768 231.269C181.539 231.187 181.2 231.104 180.752 231.022C180.002 230.894 179.411 230.738 178.981 230.555C178.551 230.363 178.245 230.125 178.062 229.842C177.888 229.558 177.801 229.206 177.801 228.785C177.801 228.098 178.062 227.545 178.583 227.124C179.114 226.694 179.887 226.479 180.903 226.479C181.562 226.479 182.115 226.589 182.564 226.808C183.012 227.019 183.36 227.312 183.607 227.687C183.863 228.053 184.023 228.474 184.087 228.949L182.317 229.032C182.271 228.785 182.188 228.57 182.069 228.387C181.951 228.204 181.79 228.066 181.589 227.975C181.388 227.874 181.15 227.824 180.875 227.824C180.464 227.824 180.152 227.906 179.942 228.071C179.732 228.236 179.626 228.455 179.626 228.73C179.626 228.922 179.672 229.082 179.764 229.21C179.864 229.338 180.024 229.444 180.244 229.526C180.464 229.599 180.756 229.668 181.122 229.732C181.891 229.851 182.495 230.006 182.934 230.198C183.383 230.381 183.698 230.619 183.881 230.912C184.073 231.196 184.169 231.539 184.169 231.942C184.169 232.408 184.037 232.806 183.771 233.136C183.515 233.465 183.149 233.717 182.673 233.891C182.207 234.055 181.658 234.138 181.026 234.138ZM185.266 233.973V226.644H187.023V233.973H185.266ZM185.239 225.669V224.104H187.064V225.669H185.239ZM191.673 236.196C191.032 236.196 190.483 236.109 190.026 235.936C189.568 235.762 189.198 235.515 188.914 235.194C188.64 234.883 188.447 234.522 188.338 234.11L190.149 233.987C190.241 234.261 190.396 234.476 190.616 234.632C190.845 234.787 191.197 234.865 191.673 234.865C192.213 234.865 192.629 234.742 192.922 234.494C193.215 234.257 193.361 233.881 193.361 233.369V232.436C193.187 232.793 192.908 233.081 192.524 233.3C192.14 233.511 191.709 233.616 191.234 233.616C190.63 233.616 190.09 233.47 189.614 233.177C189.147 232.875 188.781 232.459 188.516 231.928C188.251 231.388 188.118 230.766 188.118 230.061C188.118 229.357 188.246 228.739 188.502 228.208C188.768 227.668 189.134 227.248 189.6 226.946C190.067 226.634 190.602 226.479 191.206 226.479C191.737 226.479 192.194 226.598 192.579 226.836C192.963 227.074 193.242 227.389 193.416 227.783V226.644H195.132V233.328C195.132 233.95 194.985 234.476 194.692 234.906C194.409 235.336 194.006 235.657 193.485 235.867C192.972 236.087 192.368 236.196 191.673 236.196ZM191.645 232.244C192.167 232.244 192.583 232.051 192.894 231.667C193.206 231.274 193.366 230.734 193.375 230.047C193.384 229.59 193.315 229.201 193.169 228.881C193.032 228.551 192.83 228.3 192.565 228.126C192.309 227.943 192.002 227.851 191.645 227.851C191.106 227.851 190.685 228.053 190.383 228.455C190.09 228.849 189.943 229.38 189.943 230.047C189.943 230.715 190.094 231.251 190.396 231.653C190.708 232.047 191.124 232.244 191.645 232.244ZM196.78 233.973V226.644H198.372L198.441 228.702L198.235 228.62C198.308 228.108 198.459 227.696 198.688 227.385C198.917 227.074 199.196 226.845 199.525 226.699C199.855 226.552 200.216 226.479 200.61 226.479C201.149 226.479 201.602 226.598 201.968 226.836C202.344 227.074 202.627 227.403 202.819 227.824C203.012 228.236 203.108 228.716 203.108 229.265V233.973H201.351V229.828C201.351 229.416 201.31 229.068 201.227 228.785C201.145 228.501 201.008 228.286 200.816 228.14C200.632 227.984 200.385 227.906 200.074 227.906C199.608 227.906 199.233 228.071 198.949 228.4C198.674 228.73 198.537 229.206 198.537 229.828V233.973H196.78Z" fill="#5352ED"/>
<rect x="228.195" y="216.542" width="66.4505" height="24.8626" rx="12.4313" fill="#C5D4FF"/>
<path d="M246.711 234.193C245.924 234.193 245.233 234.042 244.638 233.74C244.052 233.438 243.599 233.012 243.279 232.463C242.968 231.905 242.813 231.246 242.813 230.487V224.214H244.597V230.487C244.597 231.173 244.78 231.704 245.146 232.079C245.512 232.454 246.033 232.642 246.711 232.642C247.388 232.642 247.909 232.454 248.275 232.079C248.65 231.704 248.838 231.173 248.838 230.487V224.214H250.622V230.487C250.622 231.246 250.462 231.905 250.142 232.463C249.822 233.012 249.369 233.438 248.783 233.74C248.207 234.042 247.516 234.193 246.711 234.193ZM251.421 233.973L254.702 229.087L251.449 224.228H253.535L255.8 227.728L258.009 224.228H260.082L256.843 229.059L260.123 233.973H258.051L255.772 230.418L253.494 233.973H251.421ZM260.496 235.483L264.559 223.679H266.288L262.225 235.483H260.496ZM271.515 234.193C270.728 234.193 270.037 234.042 269.442 233.74C268.857 233.438 268.404 233.012 268.083 232.463C267.772 231.905 267.617 231.246 267.617 230.487V224.214H269.401V230.487C269.401 231.173 269.584 231.704 269.95 232.079C270.316 232.454 270.838 232.642 271.515 232.642C272.192 232.642 272.713 232.454 273.079 232.079C273.455 231.704 273.642 231.173 273.642 230.487V224.214H275.426V230.487C275.426 231.246 275.266 231.905 274.946 232.463C274.626 233.012 274.173 233.438 273.587 233.74C273.011 234.042 272.32 234.193 271.515 234.193ZM277.346 233.973V224.228H279.13V233.973H277.346Z" fill="#5352ED"/>
<rect x="304.94" y="216.542" width="122.451" height="24.8626" rx="12.4313" fill="#F9F0CC"/>
<path d="M319.763 233.973V224.228H326.323V225.779H321.547V228.318H326.159V229.855H321.547V232.422H326.433V233.973H319.763ZM327.795 233.973V226.644H329.387L329.442 228.442L329.278 228.359C329.36 227.966 329.502 227.632 329.703 227.357C329.913 227.074 330.165 226.859 330.458 226.712C330.76 226.557 331.089 226.479 331.446 226.479C332.068 226.479 332.572 226.657 332.956 227.014C333.34 227.362 333.583 227.842 333.683 228.455H333.45C333.532 228.025 333.674 227.668 333.875 227.385C334.077 227.092 334.328 226.868 334.63 226.712C334.941 226.557 335.289 226.479 335.673 226.479C336.177 226.479 336.611 226.589 336.977 226.808C337.343 227.019 337.622 227.33 337.815 227.742C338.016 228.153 338.117 228.661 338.117 229.265V233.973H336.36V229.718C336.36 229.114 336.255 228.661 336.044 228.359C335.843 228.057 335.532 227.906 335.111 227.906C334.827 227.906 334.585 227.98 334.383 228.126C334.182 228.272 334.026 228.487 333.917 228.771C333.816 229.046 333.766 229.38 333.766 229.773V233.973H332.132V229.773C332.132 229.169 332.041 228.707 331.858 228.387C331.675 228.066 331.359 227.906 330.911 227.906C330.627 227.906 330.385 227.98 330.183 228.126C329.991 228.272 329.836 228.487 329.717 228.771C329.607 229.046 329.552 229.38 329.552 229.773V233.973H327.795ZM344.855 234.138C344.086 234.138 343.468 233.964 343.002 233.616C342.535 233.259 342.302 232.765 342.302 232.134C342.302 231.502 342.499 231.008 342.892 230.651C343.285 230.295 343.885 230.038 344.69 229.883L347.119 229.402C347.119 228.881 347 228.492 346.763 228.236C346.525 227.97 346.172 227.838 345.706 227.838C345.285 227.838 344.951 227.938 344.704 228.14C344.466 228.332 344.301 228.611 344.21 228.977L342.425 228.895C342.572 228.117 342.929 227.522 343.496 227.11C344.063 226.689 344.8 226.479 345.706 226.479C346.749 226.479 347.536 226.744 348.066 227.275C348.606 227.797 348.876 228.547 348.876 229.526V232.189C348.876 232.381 348.908 232.513 348.972 232.587C349.046 232.66 349.151 232.696 349.288 232.696H349.521V233.973C349.466 233.991 349.375 234.005 349.247 234.014C349.128 234.023 349.004 234.028 348.876 234.028C348.574 234.028 348.304 233.982 348.066 233.891C347.829 233.79 347.646 233.621 347.517 233.383C347.389 233.136 347.325 232.802 347.325 232.381L347.476 232.491C347.403 232.811 347.243 233.099 346.996 233.355C346.758 233.602 346.456 233.794 346.09 233.932C345.724 234.069 345.312 234.138 344.855 234.138ZM345.212 232.861C345.605 232.861 345.944 232.783 346.227 232.628C346.511 232.472 346.731 232.257 346.886 231.983C347.042 231.708 347.119 231.383 347.119 231.008V230.596L345.225 230.981C344.832 231.063 344.548 231.187 344.374 231.351C344.21 231.507 344.127 231.713 344.127 231.969C344.127 232.253 344.219 232.472 344.402 232.628C344.594 232.783 344.864 232.861 345.212 232.861ZM350.388 233.973V226.644H351.98L352.048 228.702L351.843 228.62C351.916 228.108 352.067 227.696 352.296 227.385C352.524 227.074 352.803 226.845 353.133 226.699C353.462 226.552 353.824 226.479 354.217 226.479C354.757 226.479 355.21 226.598 355.576 226.836C355.951 227.074 356.235 227.403 356.427 227.824C356.619 228.236 356.715 228.716 356.715 229.265V233.973H354.958V229.828C354.958 229.416 354.917 229.068 354.835 228.785C354.752 228.501 354.615 228.286 354.423 228.14C354.24 227.984 353.993 227.906 353.682 227.906C353.215 227.906 352.84 228.071 352.556 228.4C352.282 228.73 352.145 229.206 352.145 229.828V233.973H350.388ZM360.79 234.138C360.168 234.138 359.628 233.982 359.17 233.671C358.722 233.36 358.374 232.916 358.127 232.34C357.88 231.763 357.757 231.086 357.757 230.308C357.757 229.53 357.88 228.853 358.127 228.277C358.374 227.7 358.727 227.257 359.184 226.946C359.642 226.634 360.177 226.479 360.79 226.479C361.302 226.479 361.751 226.584 362.135 226.795C362.529 227.005 362.826 227.302 363.027 227.687V224.228H364.784V233.973H363.11L363.068 232.889C362.867 233.282 362.565 233.589 362.163 233.808C361.76 234.028 361.302 234.138 360.79 234.138ZM361.325 232.71C361.691 232.71 361.998 232.619 362.245 232.436C362.501 232.253 362.693 231.983 362.821 231.626C362.959 231.26 363.027 230.821 363.027 230.308C363.027 229.787 362.959 229.347 362.821 228.991C362.693 228.634 362.501 228.364 362.245 228.181C361.998 227.998 361.691 227.906 361.325 227.906C360.795 227.906 360.369 228.121 360.049 228.551C359.738 228.972 359.582 229.558 359.582 230.308C359.582 231.04 359.738 231.626 360.049 232.065C360.369 232.495 360.795 232.71 361.325 232.71ZM368.426 234.138C367.657 234.138 367.039 233.964 366.573 233.616C366.106 233.259 365.873 232.765 365.873 232.134C365.873 231.502 366.07 231.008 366.463 230.651C366.856 230.295 367.456 230.038 368.261 229.883L370.69 229.402C370.69 228.881 370.571 228.492 370.334 228.236C370.096 227.97 369.743 227.838 369.277 227.838C368.856 227.838 368.522 227.938 368.275 228.14C368.037 228.332 367.872 228.611 367.781 228.977L365.996 228.895C366.143 228.117 366.5 227.522 367.067 227.11C367.634 226.689 368.371 226.479 369.277 226.479C370.32 226.479 371.107 226.744 371.637 227.275C372.177 227.797 372.447 228.547 372.447 229.526V232.189C372.447 232.381 372.479 232.513 372.543 232.587C372.617 232.66 372.722 232.696 372.859 232.696H373.092V233.973C373.037 233.991 372.946 234.005 372.818 234.014C372.699 234.023 372.575 234.028 372.447 234.028C372.145 234.028 371.875 233.982 371.637 233.891C371.4 233.79 371.217 233.621 371.088 233.383C370.96 233.136 370.896 232.802 370.896 232.381L371.047 232.491C370.974 232.811 370.814 233.099 370.567 233.355C370.329 233.602 370.027 233.794 369.661 233.932C369.295 234.069 368.883 234.138 368.426 234.138ZM368.783 232.861C369.176 232.861 369.515 232.783 369.798 232.628C370.082 232.472 370.302 232.257 370.457 231.983C370.613 231.708 370.69 231.383 370.69 231.008V230.596L368.796 230.981C368.403 231.063 368.119 231.187 367.945 231.351C367.781 231.507 367.698 231.713 367.698 231.969C367.698 232.253 367.79 232.472 367.973 232.628C368.165 232.783 368.435 232.861 368.783 232.861ZM373.959 233.973V226.644H375.551L375.606 228.442L375.441 228.359C375.523 227.966 375.665 227.632 375.867 227.357C376.077 227.074 376.329 226.859 376.621 226.712C376.923 226.557 377.253 226.479 377.61 226.479C378.232 226.479 378.735 226.657 379.119 227.014C379.504 227.362 379.746 227.842 379.847 228.455H379.614C379.696 228.025 379.838 227.668 380.039 227.385C380.24 227.092 380.492 226.868 380.794 226.712C381.105 226.557 381.453 226.479 381.837 226.479C382.34 226.479 382.775 226.589 383.141 226.808C383.507 227.019 383.786 227.33 383.978 227.742C384.179 228.153 384.28 228.661 384.28 229.265V233.973H382.523V229.718C382.523 229.114 382.418 228.661 382.208 228.359C382.006 228.057 381.695 227.906 381.274 227.906C380.991 227.906 380.748 227.98 380.547 228.126C380.346 228.272 380.19 228.487 380.08 228.771C379.98 229.046 379.929 229.38 379.929 229.773V233.973H378.296V229.773C378.296 229.169 378.204 228.707 378.021 228.387C377.838 228.066 377.523 227.906 377.074 227.906C376.791 227.906 376.548 227.98 376.347 228.126C376.155 228.272 375.999 228.487 375.88 228.771C375.77 229.046 375.716 229.38 375.716 229.773V233.973H373.959ZM388.918 234.138C388.186 234.138 387.55 233.982 387.01 233.671C386.47 233.351 386.054 232.902 385.761 232.326C385.468 231.749 385.322 231.077 385.322 230.308C385.322 229.54 385.468 228.872 385.761 228.304C386.054 227.728 386.466 227.28 386.996 226.959C387.536 226.639 388.163 226.479 388.877 226.479C389.572 226.479 390.181 226.634 390.702 226.946C391.233 227.257 391.64 227.705 391.924 228.291C392.207 228.876 392.349 229.581 392.349 230.404V230.802H387.147C387.184 231.443 387.358 231.928 387.669 232.257C387.989 232.577 388.41 232.738 388.932 232.738C389.325 232.738 389.65 232.651 389.906 232.477C390.172 232.294 390.355 232.042 390.455 231.722L392.253 231.832C392.052 232.545 391.654 233.108 391.059 233.52C390.474 233.932 389.76 234.138 388.918 234.138ZM387.147 229.622H390.538C390.501 229.027 390.332 228.588 390.03 228.304C389.728 228.012 389.343 227.865 388.877 227.865C388.41 227.865 388.021 228.016 387.71 228.318C387.408 228.62 387.221 229.055 387.147 229.622ZM393.448 233.973V226.644H395.04L395.109 228.702L394.903 228.62C394.976 228.108 395.127 227.696 395.356 227.385C395.585 227.074 395.864 226.845 396.193 226.699C396.523 226.552 396.884 226.479 397.277 226.479C397.817 226.479 398.27 226.598 398.636 226.836C399.011 227.074 399.295 227.403 399.487 227.824C399.679 228.236 399.775 228.716 399.775 229.265V233.973H398.019V229.828C398.019 229.416 397.977 229.068 397.895 228.785C397.813 228.501 397.675 228.286 397.483 228.14C397.3 227.984 397.053 227.906 396.742 227.906C396.276 227.906 395.9 228.071 395.617 228.4C395.342 228.73 395.205 229.206 395.205 229.828V233.973H393.448ZM403.845 233.973C403.113 233.973 402.573 233.804 402.225 233.465C401.887 233.127 401.717 232.596 401.717 231.873V224.928H403.474V231.708C403.474 232.047 403.547 232.285 403.694 232.422C403.84 232.55 404.069 232.614 404.38 232.614H405.409V233.973H403.845ZM400.564 228.002V226.644H405.409V228.002H400.564ZM409.487 234.138C408.764 234.138 408.128 233.982 407.579 233.671C407.039 233.351 406.618 232.902 406.316 232.326C406.024 231.749 405.877 231.077 405.877 230.308C405.877 229.53 406.024 228.858 406.316 228.291C406.618 227.714 407.039 227.27 407.579 226.959C408.128 226.639 408.764 226.479 409.487 226.479C410.21 226.479 410.841 226.639 411.381 226.959C411.921 227.27 412.337 227.714 412.63 228.291C412.932 228.858 413.083 229.53 413.083 230.308C413.083 231.077 412.932 231.749 412.63 232.326C412.337 232.902 411.921 233.351 411.381 233.671C410.841 233.982 410.21 234.138 409.487 234.138ZM409.487 232.71C410.054 232.71 410.489 232.5 410.791 232.079C411.102 231.658 411.257 231.068 411.257 230.308C411.257 229.558 411.102 228.972 410.791 228.551C410.489 228.121 410.054 227.906 409.487 227.906C408.92 227.906 408.48 228.121 408.169 228.551C407.858 228.972 407.703 229.558 407.703 230.308C407.703 231.068 407.858 231.658 408.169 232.079C408.48 232.5 408.92 232.71 409.487 232.71Z" fill="#DE9622"/>
<rect x="114.451" y="261.992" width="363.72" height="13.7253" rx="6.86264" fill="#C5D4FF"/>
<rect x="114.451" y="261.992" width="266.785" height="13.7253" rx="6.86264" fill="#5352ED"/>
<path d="M115.713 297.718V287.973H119.213C120.302 287.973 121.148 288.234 121.752 288.755C122.356 289.277 122.658 290 122.658 290.924C122.658 291.546 122.521 292.086 122.247 292.543C121.972 292.992 121.579 293.335 121.066 293.573C120.554 293.811 119.936 293.93 119.213 293.93H116.894V297.718H115.713ZM116.894 292.777H119.213C119.945 292.777 120.494 292.621 120.86 292.31C121.235 291.999 121.423 291.537 121.423 290.924C121.423 290.329 121.235 289.881 120.86 289.579C120.494 289.277 119.945 289.126 119.213 289.126H116.894V292.777ZM124.067 297.718V290.443H125.082L125.137 292.283L125.028 292.241C125.119 291.619 125.316 291.166 125.618 290.883C125.929 290.59 126.341 290.443 126.853 290.443H127.567V291.541H126.867C126.501 291.541 126.194 291.61 125.947 291.747C125.709 291.875 125.526 292.072 125.398 292.337C125.279 292.594 125.22 292.923 125.22 293.326V297.718H124.067ZM131.284 297.882C130.617 297.882 130.031 297.727 129.528 297.416C129.024 297.105 128.636 296.666 128.361 296.098C128.087 295.522 127.949 294.849 127.949 294.081C127.949 293.303 128.087 292.63 128.361 292.063C128.636 291.496 129.024 291.056 129.528 290.745C130.031 290.434 130.617 290.279 131.284 290.279C131.952 290.279 132.533 290.434 133.028 290.745C133.531 291.056 133.92 291.496 134.194 292.063C134.469 292.63 134.606 293.303 134.606 294.081C134.606 294.849 134.469 295.522 134.194 296.098C133.92 296.666 133.531 297.105 133.028 297.416C132.533 297.727 131.952 297.882 131.284 297.882ZM131.284 296.784C131.952 296.784 132.469 296.547 132.835 296.071C133.211 295.586 133.398 294.922 133.398 294.081C133.398 293.239 133.211 292.58 132.835 292.104C132.469 291.619 131.952 291.377 131.284 291.377C130.617 291.377 130.095 291.619 129.72 292.104C129.345 292.58 129.157 293.239 129.157 294.081C129.157 294.922 129.345 295.586 129.72 296.071C130.095 296.547 130.617 296.784 131.284 296.784ZM138.662 299.941C138.14 299.941 137.669 299.854 137.248 299.68C136.827 299.507 136.475 299.26 136.191 298.939C135.907 298.619 135.715 298.248 135.614 297.828L136.822 297.745C136.932 298.084 137.124 298.349 137.399 298.541C137.682 298.743 138.103 298.843 138.662 298.843C139.32 298.843 139.824 298.711 140.171 298.445C140.528 298.18 140.707 297.782 140.707 297.251V296.071C140.533 296.455 140.254 296.762 139.869 296.99C139.485 297.219 139.055 297.333 138.579 297.333C137.966 297.333 137.417 297.182 136.932 296.881C136.456 296.579 136.081 296.162 135.807 295.632C135.541 295.101 135.409 294.492 135.409 293.806C135.409 293.111 135.541 292.502 135.807 291.981C136.072 291.45 136.438 291.034 136.905 290.732C137.38 290.43 137.92 290.279 138.524 290.279C139.037 290.279 139.494 290.398 139.897 290.636C140.309 290.873 140.597 291.194 140.761 291.596V290.443H141.859V297.224C141.859 297.791 141.731 298.276 141.475 298.679C141.219 299.09 140.853 299.401 140.377 299.612C139.901 299.831 139.329 299.941 138.662 299.941ZM138.634 296.235C139.256 296.235 139.755 296.02 140.13 295.59C140.505 295.151 140.697 294.556 140.707 293.806C140.716 293.303 140.633 292.873 140.46 292.516C140.295 292.15 140.052 291.871 139.732 291.679C139.421 291.477 139.055 291.377 138.634 291.377C137.994 291.377 137.495 291.596 137.138 292.036C136.79 292.466 136.616 293.056 136.616 293.806C136.616 294.556 136.795 295.151 137.152 295.59C137.518 296.02 138.012 296.235 138.634 296.235ZM143.778 297.718V290.443H144.793L144.848 292.283L144.738 292.241C144.83 291.619 145.027 291.166 145.329 290.883C145.64 290.59 146.051 290.443 146.564 290.443H147.278V291.541H146.578C146.212 291.541 145.905 291.61 145.658 291.747C145.42 291.875 145.237 292.072 145.109 292.337C144.99 292.594 144.931 292.923 144.931 293.326V297.718H143.778ZM150.995 297.882C150.309 297.882 149.714 297.727 149.211 297.416C148.717 297.105 148.333 296.666 148.058 296.098C147.793 295.522 147.66 294.849 147.66 294.081C147.66 293.312 147.793 292.644 148.058 292.077C148.333 291.509 148.712 291.07 149.197 290.759C149.691 290.439 150.272 290.279 150.94 290.279C151.572 290.279 152.13 290.43 152.615 290.732C153.1 291.024 153.475 291.454 153.74 292.022C154.015 292.589 154.152 293.28 154.152 294.094V294.437H148.868C148.914 295.215 149.119 295.801 149.485 296.194C149.861 296.588 150.364 296.784 150.995 296.784C151.471 296.784 151.86 296.675 152.162 296.455C152.473 296.226 152.688 295.929 152.807 295.563L154.042 295.659C153.85 296.309 153.484 296.844 152.944 297.265C152.414 297.677 151.764 297.882 150.995 297.882ZM148.868 293.422H152.889C152.834 292.717 152.629 292.2 152.272 291.871C151.924 291.541 151.48 291.377 150.94 291.377C150.382 291.377 149.92 291.551 149.554 291.898C149.197 292.237 148.969 292.745 148.868 293.422ZM158.088 297.882C157.439 297.882 156.885 297.777 156.427 297.567C155.979 297.356 155.627 297.068 155.371 296.702C155.124 296.327 154.982 295.901 154.945 295.426L156.153 295.343C156.226 295.783 156.414 296.135 156.716 296.4C157.018 296.656 157.475 296.784 158.088 296.784C158.582 296.784 158.976 296.707 159.269 296.551C159.571 296.386 159.722 296.126 159.722 295.769C159.722 295.577 159.676 295.417 159.584 295.288C159.493 295.16 159.314 295.05 159.049 294.959C158.784 294.858 158.39 294.762 157.869 294.671C157.173 294.543 156.624 294.387 156.222 294.204C155.828 294.012 155.544 293.779 155.371 293.504C155.206 293.22 155.124 292.886 155.124 292.502C155.124 291.853 155.361 291.322 155.837 290.91C156.313 290.489 156.99 290.279 157.869 290.279C158.463 290.279 158.962 290.388 159.365 290.608C159.776 290.819 160.097 291.102 160.325 291.459C160.563 291.807 160.719 292.191 160.792 292.612L159.584 292.694C159.529 292.438 159.429 292.214 159.282 292.022C159.136 291.82 158.944 291.665 158.706 291.555C158.468 291.436 158.184 291.377 157.855 291.377C157.333 291.377 156.949 291.477 156.702 291.679C156.455 291.88 156.331 292.136 156.331 292.447C156.331 292.685 156.386 292.882 156.496 293.037C156.615 293.184 156.803 293.307 157.059 293.408C157.315 293.5 157.658 293.582 158.088 293.655C158.829 293.783 159.406 293.939 159.818 294.122C160.229 294.305 160.518 294.529 160.682 294.794C160.847 295.06 160.929 295.384 160.929 295.769C160.929 296.217 160.801 296.601 160.545 296.922C160.298 297.233 159.959 297.471 159.529 297.635C159.108 297.8 158.628 297.882 158.088 297.882ZM164.877 297.882C164.228 297.882 163.674 297.777 163.217 297.567C162.768 297.356 162.416 297.068 162.16 296.702C161.913 296.327 161.771 295.901 161.734 295.426L162.942 295.343C163.015 295.783 163.203 296.135 163.505 296.4C163.807 296.656 164.264 296.784 164.877 296.784C165.372 296.784 165.765 296.707 166.058 296.551C166.36 296.386 166.511 296.126 166.511 295.769C166.511 295.577 166.465 295.417 166.373 295.288C166.282 295.16 166.104 295.05 165.838 294.959C165.573 294.858 165.179 294.762 164.658 294.671C163.962 294.543 163.413 294.387 163.011 294.204C162.617 294.012 162.334 293.779 162.16 293.504C161.995 293.22 161.913 292.886 161.913 292.502C161.913 291.853 162.151 291.322 162.626 290.91C163.102 290.489 163.779 290.279 164.658 290.279C165.253 290.279 165.751 290.388 166.154 290.608C166.566 290.819 166.886 291.102 167.115 291.459C167.353 291.807 167.508 292.191 167.581 292.612L166.373 292.694C166.319 292.438 166.218 292.214 166.072 292.022C165.925 291.82 165.733 291.665 165.495 291.555C165.257 291.436 164.973 291.377 164.644 291.377C164.123 291.377 163.738 291.477 163.491 291.679C163.244 291.88 163.121 292.136 163.121 292.447C163.121 292.685 163.175 292.882 163.285 293.037C163.404 293.184 163.592 293.307 163.848 293.408C164.104 293.5 164.447 293.582 164.877 293.655C165.619 293.783 166.195 293.939 166.607 294.122C167.019 294.305 167.307 294.529 167.471 294.794C167.636 295.06 167.719 295.384 167.719 295.769C167.719 296.217 167.59 296.601 167.334 296.922C167.087 297.233 166.749 297.471 166.319 297.635C165.898 297.8 165.417 297.882 164.877 297.882ZM171.859 297.882C171.191 297.882 170.605 297.727 170.102 297.416C169.599 297.105 169.21 296.666 168.935 296.098C168.661 295.522 168.524 294.849 168.524 294.081C168.524 293.303 168.661 292.63 168.935 292.063C169.21 291.496 169.599 291.056 170.102 290.745C170.605 290.434 171.191 290.279 171.859 290.279C172.527 290.279 173.108 290.434 173.602 290.745C174.105 291.056 174.494 291.496 174.769 292.063C175.043 292.63 175.18 293.303 175.18 294.081C175.18 294.849 175.043 295.522 174.769 296.098C174.494 296.666 174.105 297.105 173.602 297.416C173.108 297.727 172.527 297.882 171.859 297.882ZM171.859 296.784C172.527 296.784 173.044 296.547 173.41 296.071C173.785 295.586 173.972 294.922 173.972 294.081C173.972 293.239 173.785 292.58 173.41 292.104C173.044 291.619 172.527 291.377 171.859 291.377C171.191 291.377 170.669 291.619 170.294 292.104C169.919 292.58 169.731 293.239 169.731 294.081C169.731 294.922 169.919 295.586 170.294 296.071C170.669 296.547 171.191 296.784 171.859 296.784ZM182.348 297.882C181.717 297.882 181.168 297.727 180.701 297.416C180.244 297.105 179.891 296.666 179.644 296.098C179.397 295.531 179.274 294.858 179.274 294.081C179.274 293.303 179.397 292.63 179.644 292.063C179.891 291.496 180.244 291.056 180.701 290.745C181.168 290.434 181.717 290.279 182.348 290.279C182.833 290.279 183.277 290.384 183.68 290.594C184.082 290.796 184.384 291.084 184.585 291.459V287.973H185.738V297.718H184.695L184.654 296.62C184.453 297.013 184.146 297.324 183.734 297.553C183.323 297.773 182.861 297.882 182.348 297.882ZM182.582 296.784C183.012 296.784 183.373 296.675 183.666 296.455C183.968 296.235 184.197 295.924 184.352 295.522C184.508 295.11 184.585 294.63 184.585 294.081C184.585 293.513 184.508 293.028 184.352 292.626C184.197 292.223 183.968 291.917 183.666 291.706C183.373 291.487 183.012 291.377 182.582 291.377C181.941 291.377 181.429 291.619 181.044 292.104C180.669 292.58 180.482 293.239 180.482 294.081C180.482 294.913 180.669 295.572 181.044 296.057C181.429 296.542 181.941 296.784 182.582 296.784ZM190.363 297.882C189.695 297.882 189.11 297.727 188.606 297.416C188.103 297.105 187.714 296.666 187.44 296.098C187.165 295.522 187.028 294.849 187.028 294.081C187.028 293.303 187.165 292.63 187.44 292.063C187.714 291.496 188.103 291.056 188.606 290.745C189.11 290.434 189.695 290.279 190.363 290.279C191.031 290.279 191.612 290.434 192.106 290.745C192.61 291.056 192.998 291.496 193.273 292.063C193.547 292.63 193.685 293.303 193.685 294.081C193.685 294.849 193.547 295.522 193.273 296.098C192.998 296.666 192.61 297.105 192.106 297.416C191.612 297.727 191.031 297.882 190.363 297.882ZM190.363 296.784C191.031 296.784 191.548 296.547 191.914 296.071C192.289 295.586 192.477 294.922 192.477 294.081C192.477 293.239 192.289 292.58 191.914 292.104C191.548 291.619 191.031 291.377 190.363 291.377C189.695 291.377 189.174 291.619 188.799 292.104C188.423 292.58 188.236 293.239 188.236 294.081C188.236 294.922 188.423 295.586 188.799 296.071C189.174 296.547 189.695 296.784 190.363 296.784ZM198.272 299.777V290.443H199.343L199.37 292.008L199.206 291.926C199.389 291.386 199.691 290.979 200.111 290.704C200.542 290.421 201.036 290.279 201.594 290.279C202.317 290.279 202.907 290.457 203.364 290.814C203.831 291.171 204.174 291.637 204.394 292.214C204.623 292.79 204.737 293.413 204.737 294.081C204.737 294.749 204.623 295.371 204.394 295.947C204.174 296.524 203.831 296.99 203.364 297.347C202.907 297.704 202.317 297.882 201.594 297.882C201.219 297.882 200.866 297.818 200.537 297.69C200.217 297.562 199.942 297.384 199.713 297.155C199.494 296.926 199.343 296.656 199.261 296.345L199.425 296.153V299.777H198.272ZM201.484 296.784C202.115 296.784 202.614 296.547 202.98 296.071C203.346 295.595 203.529 294.932 203.529 294.081C203.529 293.23 203.346 292.566 202.98 292.09C202.614 291.615 202.115 291.377 201.484 291.377C201.063 291.377 200.697 291.477 200.386 291.679C200.084 291.88 199.846 292.182 199.672 292.585C199.508 292.987 199.425 293.486 199.425 294.081C199.425 294.675 199.508 295.174 199.672 295.577C199.837 295.979 200.075 296.281 200.386 296.482C200.697 296.684 201.063 296.784 201.484 296.784ZM206.027 297.718V290.443H207.042L207.097 292.283L206.987 292.241C207.079 291.619 207.276 291.166 207.577 290.883C207.889 290.59 208.3 290.443 208.813 290.443H209.526V291.541H208.826C208.46 291.541 208.154 291.61 207.907 291.747C207.669 291.875 207.486 292.072 207.358 292.337C207.239 292.594 207.179 292.923 207.179 293.326V297.718H206.027ZM213.244 297.882C212.576 297.882 211.991 297.727 211.487 297.416C210.984 297.105 210.595 296.666 210.321 296.098C210.046 295.522 209.909 294.849 209.909 294.081C209.909 293.303 210.046 292.63 210.321 292.063C210.595 291.496 210.984 291.056 211.487 290.745C211.991 290.434 212.576 290.279 213.244 290.279C213.912 290.279 214.493 290.434 214.987 290.745C215.491 291.056 215.879 291.496 216.154 292.063C216.428 292.63 216.566 293.303 216.566 294.081C216.566 294.849 216.428 295.522 216.154 296.098C215.879 296.666 215.491 297.105 214.987 297.416C214.493 297.727 213.912 297.882 213.244 297.882ZM213.244 296.784C213.912 296.784 214.429 296.547 214.795 296.071C215.17 295.586 215.358 294.922 215.358 294.081C215.358 293.239 215.17 292.58 214.795 292.104C214.429 291.619 213.912 291.377 213.244 291.377C212.576 291.377 212.055 291.619 211.68 292.104C211.304 292.58 211.117 293.239 211.117 294.081C211.117 294.922 211.304 295.586 211.68 296.071C212.055 296.547 212.576 296.784 213.244 296.784ZM216.696 299.777V298.761H217.286C217.524 298.761 217.716 298.701 217.862 298.582C218.009 298.473 218.082 298.267 218.082 297.965V290.443H219.235V298.02C219.235 298.66 219.093 299.113 218.809 299.379C218.526 299.644 218.055 299.777 217.396 299.777H216.696ZM218.055 289.304V287.959H219.262V289.304H218.055ZM223.86 297.882C223.174 297.882 222.579 297.727 222.076 297.416C221.582 297.105 221.198 296.666 220.923 296.098C220.658 295.522 220.525 294.849 220.525 294.081C220.525 293.312 220.658 292.644 220.923 292.077C221.198 291.509 221.577 291.07 222.062 290.759C222.556 290.439 223.138 290.279 223.805 290.279C224.437 290.279 224.995 290.43 225.48 290.732C225.965 291.024 226.34 291.454 226.605 292.022C226.88 292.589 227.017 293.28 227.017 294.094V294.437H221.733C221.779 295.215 221.985 295.801 222.351 296.194C222.726 296.588 223.229 296.784 223.86 296.784C224.336 296.784 224.725 296.675 225.027 296.455C225.338 296.226 225.553 295.929 225.672 295.563L226.907 295.659C226.715 296.309 226.349 296.844 225.809 297.265C225.279 297.677 224.629 297.882 223.86 297.882ZM221.733 293.422H225.754C225.7 292.717 225.494 292.2 225.137 291.871C224.789 291.541 224.345 291.377 223.805 291.377C223.247 291.377 222.785 291.551 222.419 291.898C222.062 292.237 221.834 292.745 221.733 293.422ZM230.686 297.718C230.027 297.718 229.537 297.567 229.217 297.265C228.906 296.963 228.75 296.492 228.75 295.851V288.741H229.903V295.824C229.903 296.153 229.976 296.382 230.123 296.51C230.269 296.638 230.493 296.702 230.795 296.702H231.839V297.718H230.686ZM227.68 291.459V290.443H231.839V291.459H227.68ZM235.75 297.882C235.082 297.882 234.496 297.727 233.993 297.416C233.49 297.105 233.101 296.666 232.826 296.098C232.552 295.522 232.415 294.849 232.415 294.081C232.415 293.303 232.552 292.63 232.826 292.063C233.101 291.496 233.49 291.056 233.993 290.745C234.496 290.434 235.082 290.279 235.75 290.279C236.418 290.279 236.999 290.434 237.493 290.745C237.996 291.056 238.385 291.496 238.66 292.063C238.934 292.63 239.071 293.303 239.071 294.081C239.071 294.849 238.934 295.522 238.66 296.098C238.385 296.666 237.996 297.105 237.493 297.416C236.999 297.727 236.418 297.882 235.75 297.882ZM235.75 296.784C236.418 296.784 236.935 296.547 237.301 296.071C237.676 295.586 237.864 294.922 237.864 294.081C237.864 293.239 237.676 292.58 237.301 292.104C236.935 291.619 236.418 291.377 235.75 291.377C235.082 291.377 234.56 291.619 234.185 292.104C233.81 292.58 233.622 293.239 233.622 294.081C233.622 294.922 233.81 295.586 234.185 296.071C234.56 296.547 235.082 296.784 235.75 296.784Z" fill="#3D3D3D"/>
<path d="M118.925 323.937C118.12 323.937 117.443 323.764 116.894 323.416C116.345 323.068 115.928 322.56 115.645 321.892C115.37 321.224 115.233 320.424 115.233 319.49C115.233 318.676 115.311 317.921 115.466 317.226C115.622 316.53 115.86 315.926 116.18 315.414C116.509 314.892 116.926 314.485 117.429 314.192C117.941 313.9 118.554 313.753 119.268 313.753C120.183 313.753 120.906 313.977 121.437 314.426C121.967 314.874 122.324 315.473 122.507 316.224L120.819 316.361C120.709 316.022 120.535 315.762 120.298 315.579C120.069 315.387 119.721 315.29 119.254 315.29C118.559 315.29 118.01 315.588 117.607 316.183C117.214 316.777 117.003 317.697 116.976 318.941L116.702 318.886C116.793 318.603 116.953 318.337 117.182 318.09C117.42 317.843 117.713 317.647 118.06 317.5C118.408 317.345 118.815 317.267 119.282 317.267C119.941 317.267 120.513 317.4 120.998 317.665C121.492 317.93 121.876 318.31 122.15 318.804C122.425 319.289 122.562 319.856 122.562 320.506C122.562 321.22 122.407 321.837 122.096 322.359C121.784 322.871 121.354 323.265 120.805 323.539C120.266 323.805 119.639 323.937 118.925 323.937ZM118.925 322.441C119.465 322.441 119.904 322.272 120.243 321.933C120.59 321.586 120.764 321.11 120.764 320.506C120.764 320.131 120.686 319.801 120.531 319.518C120.384 319.234 120.179 319.019 119.913 318.873C119.657 318.717 119.35 318.639 118.994 318.639C118.618 318.639 118.284 318.717 117.992 318.873C117.708 319.019 117.479 319.234 117.305 319.518C117.141 319.801 117.058 320.131 117.058 320.506C117.058 320.89 117.132 321.229 117.278 321.522C117.434 321.805 117.653 322.03 117.937 322.194C118.22 322.359 118.55 322.441 118.925 322.441ZM125.396 323.718C125.396 322.711 125.524 321.728 125.78 320.767C126.045 319.806 126.416 318.886 126.892 318.008C127.377 317.12 127.949 316.292 128.607 315.524H123.351V313.973H130.46V315.428C129.728 316.251 129.12 317.084 128.635 317.926C128.15 318.758 127.788 319.651 127.55 320.602C127.322 321.545 127.207 322.583 127.207 323.718H125.396ZM133.133 318.694C132.493 318.694 131.962 318.493 131.541 318.09C131.12 317.688 130.91 317.084 130.91 316.279C130.91 315.473 131.12 314.87 131.541 314.467C131.962 314.064 132.493 313.863 133.133 313.863C133.783 313.863 134.314 314.064 134.725 314.467C135.146 314.87 135.357 315.473 135.357 316.279C135.357 317.084 135.146 317.688 134.725 318.09C134.314 318.493 133.783 318.694 133.133 318.694ZM133.133 317.706C133.454 317.706 133.691 317.587 133.847 317.349C134.012 317.102 134.094 316.745 134.094 316.279C134.094 315.812 134.012 315.46 133.847 315.222C133.691 314.975 133.454 314.851 133.133 314.851C132.822 314.851 132.584 314.975 132.42 315.222C132.255 315.46 132.173 315.812 132.173 316.279C132.173 316.745 132.255 317.102 132.42 317.349C132.584 317.587 132.822 317.706 133.133 317.706ZM138.843 323.828C138.203 323.828 137.672 323.626 137.251 323.224C136.83 322.821 136.62 322.217 136.62 321.412C136.62 320.607 136.83 320.003 137.251 319.6C137.672 319.198 138.203 318.996 138.843 318.996C139.493 318.996 140.023 319.198 140.435 319.6C140.847 320.003 141.053 320.607 141.053 321.412C141.053 322.217 140.847 322.821 140.435 323.224C140.023 323.626 139.493 323.828 138.843 323.828ZM138.843 322.839C139.163 322.839 139.401 322.72 139.557 322.482C139.721 322.235 139.804 321.879 139.804 321.412C139.804 320.945 139.721 320.593 139.557 320.355C139.401 320.108 139.163 319.984 138.843 319.984C138.532 319.984 138.294 320.108 138.129 320.355C137.965 320.593 137.882 320.945 137.882 321.412C137.882 321.879 137.965 322.235 138.129 322.482C138.294 322.72 138.532 322.839 138.843 322.839ZM132.104 323.718L138.665 313.973H139.872L133.312 323.718H132.104ZM148.446 323.882C147.714 323.882 147.078 323.727 146.539 323.416C145.999 323.096 145.578 322.647 145.276 322.071C144.983 321.494 144.837 320.822 144.837 320.053C144.837 319.285 144.983 318.617 145.276 318.049C145.578 317.473 145.999 317.024 146.539 316.704C147.078 316.384 147.714 316.224 148.446 316.224C149.069 316.224 149.622 316.334 150.107 316.553C150.592 316.773 150.986 317.088 151.288 317.5C151.599 317.903 151.791 318.397 151.864 318.983L150.052 319.079C149.979 318.612 149.796 318.26 149.503 318.022C149.22 317.775 148.867 317.651 148.446 317.651C147.879 317.651 147.44 317.866 147.129 318.296C146.818 318.717 146.662 319.303 146.662 320.053C146.662 320.813 146.818 321.403 147.129 321.824C147.44 322.245 147.879 322.455 148.446 322.455C148.877 322.455 149.233 322.332 149.517 322.084C149.81 321.837 149.988 321.453 150.052 320.932L151.864 321.014C151.791 321.6 151.603 322.107 151.301 322.537C150.999 322.967 150.606 323.301 150.121 323.539C149.636 323.768 149.078 323.882 148.446 323.882ZM156 323.882C155.277 323.882 154.641 323.727 154.092 323.416C153.552 323.096 153.131 322.647 152.829 322.071C152.536 321.494 152.39 320.822 152.39 320.053C152.39 319.275 152.536 318.603 152.829 318.036C153.131 317.459 153.552 317.015 154.092 316.704C154.641 316.384 155.277 316.224 156 316.224C156.722 316.224 157.354 316.384 157.894 316.704C158.434 317.015 158.85 317.459 159.143 318.036C159.445 318.603 159.596 319.275 159.596 320.053C159.596 320.822 159.445 321.494 159.143 322.071C158.85 322.647 158.434 323.096 157.894 323.416C157.354 323.727 156.722 323.882 156 323.882ZM156 322.455C156.567 322.455 157.002 322.245 157.304 321.824C157.615 321.403 157.77 320.813 157.77 320.053C157.77 319.303 157.615 318.717 157.304 318.296C157.002 317.866 156.567 317.651 156 317.651C155.432 317.651 154.993 317.866 154.682 318.296C154.371 318.717 154.215 319.303 154.215 320.053C154.215 320.813 154.371 321.403 154.682 321.824C154.993 322.245 155.432 322.455 156 322.455ZM160.677 323.718V316.388H162.269L162.338 318.447L162.132 318.365C162.205 317.853 162.356 317.441 162.585 317.13C162.813 316.819 163.092 316.59 163.422 316.443C163.751 316.297 164.113 316.224 164.506 316.224C165.046 316.224 165.499 316.343 165.865 316.581C166.24 316.819 166.524 317.148 166.716 317.569C166.908 317.981 167.004 318.461 167.004 319.01V323.718H165.247V319.573C165.247 319.161 165.206 318.813 165.124 318.53C165.041 318.246 164.904 318.031 164.712 317.885C164.529 317.729 164.282 317.651 163.971 317.651C163.504 317.651 163.129 317.816 162.845 318.145C162.571 318.475 162.434 318.951 162.434 319.573V323.718H160.677ZM171.656 323.882C170.924 323.882 170.288 323.727 169.748 323.416C169.208 323.096 168.787 322.647 168.485 322.071C168.192 321.494 168.046 320.822 168.046 320.053C168.046 319.285 168.192 318.617 168.485 318.049C168.787 317.473 169.208 317.024 169.748 316.704C170.288 316.384 170.924 316.224 171.656 316.224C172.278 316.224 172.831 316.334 173.316 316.553C173.801 316.773 174.195 317.088 174.497 317.5C174.808 317.903 175 318.397 175.073 318.983L173.261 319.079C173.188 318.612 173.005 318.26 172.712 318.022C172.429 317.775 172.076 317.651 171.656 317.651C171.088 317.651 170.649 317.866 170.338 318.296C170.027 318.717 169.871 319.303 169.871 320.053C169.871 320.813 170.027 321.403 170.338 321.824C170.649 322.245 171.088 322.455 171.656 322.455C172.086 322.455 172.442 322.332 172.726 322.084C173.019 321.837 173.197 321.453 173.261 320.932L175.073 321.014C175 321.6 174.812 322.107 174.51 322.537C174.208 322.967 173.815 323.301 173.33 323.539C172.845 323.768 172.287 323.882 171.656 323.882ZM177.848 323.718C177.318 323.718 176.892 323.581 176.572 323.306C176.252 323.032 176.091 322.592 176.091 321.988V313.973H177.848V321.81C177.848 321.993 177.894 322.13 177.986 322.222C178.086 322.313 178.223 322.359 178.397 322.359H178.933V323.718H177.848ZM182.2 323.882C181.459 323.882 180.869 323.64 180.43 323.155C179.999 322.661 179.784 321.979 179.784 321.11V316.388H181.541V320.671C181.541 321.284 181.642 321.737 181.843 322.03C182.054 322.313 182.369 322.455 182.79 322.455C183.266 322.455 183.632 322.299 183.888 321.988C184.154 321.668 184.286 321.206 184.286 320.602V316.388H186.043V323.718H184.437L184.396 321.7L184.616 321.769C184.506 322.464 184.245 322.99 183.833 323.347C183.422 323.704 182.877 323.882 182.2 323.882ZM187.566 323.718V316.388H189.322V323.718H187.566ZM187.648 315.565L188.485 313.643H190.256L189.02 315.565H187.648ZM193.451 323.882C192.829 323.882 192.289 323.727 191.831 323.416C191.383 323.105 191.035 322.661 190.788 322.084C190.541 321.508 190.417 320.831 190.417 320.053C190.417 319.275 190.541 318.598 190.788 318.022C191.035 317.445 191.387 317.002 191.845 316.69C192.302 316.379 192.838 316.224 193.451 316.224C193.963 316.224 194.412 316.329 194.796 316.539C195.189 316.75 195.487 317.047 195.688 317.432V313.973H197.445V323.718H195.77L195.729 322.633C195.528 323.027 195.226 323.333 194.823 323.553C194.421 323.773 193.963 323.882 193.451 323.882ZM193.986 322.455C194.352 322.455 194.659 322.364 194.906 322.181C195.162 321.998 195.354 321.728 195.482 321.371C195.619 321.005 195.688 320.566 195.688 320.053C195.688 319.532 195.619 319.092 195.482 318.736C195.354 318.379 195.162 318.109 194.906 317.926C194.659 317.743 194.352 317.651 193.986 317.651C193.455 317.651 193.03 317.866 192.71 318.296C192.398 318.717 192.243 319.303 192.243 320.053C192.243 320.785 192.398 321.371 192.71 321.81C193.03 322.24 193.455 322.455 193.986 322.455ZM202.143 323.882C201.42 323.882 200.785 323.727 200.236 323.416C199.696 323.096 199.275 322.647 198.973 322.071C198.68 321.494 198.534 320.822 198.534 320.053C198.534 319.275 198.68 318.603 198.973 318.036C199.275 317.459 199.696 317.015 200.236 316.704C200.785 316.384 201.42 316.224 202.143 316.224C202.866 316.224 203.498 316.384 204.037 316.704C204.577 317.015 204.994 317.459 205.286 318.036C205.588 318.603 205.739 319.275 205.739 320.053C205.739 320.822 205.588 321.494 205.286 322.071C204.994 322.647 204.577 323.096 204.037 323.416C203.498 323.727 202.866 323.882 202.143 323.882ZM202.143 322.455C202.711 322.455 203.145 322.245 203.447 321.824C203.758 321.403 203.914 320.813 203.914 320.053C203.914 319.303 203.758 318.717 203.447 318.296C203.145 317.866 202.711 317.651 202.143 317.651C201.576 317.651 201.137 317.866 200.826 318.296C200.515 318.717 200.359 319.303 200.359 320.053C200.359 320.813 200.515 321.403 200.826 321.824C201.137 322.245 201.576 322.455 202.143 322.455Z" fill="#292929"/>
<path d="M418.568 340.231L414.176 328.05H416.149L419.735 338.172L423.321 328.05H425.294L420.885 340.231H418.568ZM429.592 340.437C428.7 340.437 427.928 340.242 427.276 339.853C426.635 339.464 426.138 338.91 425.783 338.189C425.44 337.469 425.269 336.628 425.269 335.667C425.269 334.706 425.44 333.871 425.783 333.162C426.138 332.442 426.635 331.887 427.276 331.498C427.916 331.098 428.671 330.898 429.541 330.898C430.364 330.898 431.09 331.092 431.72 331.481C432.349 331.858 432.835 332.407 433.178 333.128C433.532 333.848 433.71 334.718 433.71 335.736V336.199H427.156C427.202 337.091 427.436 337.76 427.859 338.206C428.294 338.652 428.877 338.875 429.609 338.875C430.147 338.875 430.593 338.75 430.947 338.498C431.302 338.246 431.548 337.909 431.685 337.486L433.572 337.606C433.332 338.452 432.858 339.138 432.148 339.665C431.451 340.179 430.599 340.437 429.592 340.437ZM427.156 334.826H431.788C431.731 334.014 431.496 333.414 431.085 333.025C430.684 332.636 430.17 332.442 429.541 332.442C428.889 332.442 428.351 332.648 427.928 333.059C427.516 333.46 427.259 334.049 427.156 334.826ZM435.209 340.231V331.103H436.873L436.942 333.522L436.788 333.471C436.914 332.648 437.165 332.047 437.543 331.67C437.931 331.292 438.452 331.103 439.104 331.103H439.979V332.733H439.104C438.646 332.733 438.263 332.808 437.954 332.956C437.646 333.105 437.411 333.334 437.251 333.643C437.102 333.951 437.028 334.352 437.028 334.844V340.231H435.209ZM445.447 340.231V331.103H447.111L447.163 333.368L446.957 333.299C447.06 332.796 447.237 332.367 447.489 332.013C447.752 331.658 448.072 331.384 448.449 331.189C448.827 330.995 449.239 330.898 449.685 330.898C450.462 330.898 451.097 331.121 451.589 331.567C452.081 332.001 452.39 332.602 452.515 333.368H452.224C452.327 332.831 452.498 332.384 452.738 332.03C452.99 331.664 453.31 331.384 453.699 331.189C454.088 330.995 454.529 330.898 455.02 330.898C455.661 330.898 456.204 331.035 456.65 331.309C457.108 331.572 457.451 331.961 457.68 332.476C457.92 332.991 458.04 333.62 458.04 334.363V340.231H456.221V334.809C456.221 334.02 456.078 333.425 455.792 333.025C455.506 332.625 455.072 332.424 454.488 332.424C454.111 332.424 453.779 332.522 453.493 332.716C453.207 332.911 452.984 333.191 452.824 333.557C452.676 333.923 452.601 334.363 452.601 334.878V340.231H450.868V334.878C450.868 334.1 450.737 333.5 450.474 333.076C450.222 332.642 449.788 332.424 449.17 332.424C448.781 332.424 448.444 332.522 448.158 332.716C447.883 332.911 447.666 333.197 447.506 333.574C447.346 333.94 447.266 334.375 447.266 334.878V340.231H445.447ZM462.655 340.437C461.706 340.437 460.945 340.219 460.374 339.785C459.813 339.35 459.533 338.738 459.533 337.949C459.533 337.16 459.767 336.548 460.236 336.113C460.717 335.667 461.454 335.347 462.45 335.152L465.589 334.552C465.589 333.843 465.423 333.317 465.092 332.973C464.76 332.619 464.268 332.442 463.616 332.442C463.033 332.442 462.575 332.573 462.244 332.836C461.912 333.088 461.683 333.465 461.557 333.969L459.687 333.848C459.859 332.933 460.282 332.213 460.957 331.687C461.643 331.161 462.53 330.898 463.616 330.898C464.851 330.898 465.789 331.229 466.43 331.893C467.082 332.545 467.408 333.465 467.408 334.655V338.206C467.408 338.424 467.442 338.578 467.511 338.669C467.591 338.75 467.717 338.79 467.888 338.79H468.214V340.231C468.157 340.242 468.065 340.254 467.94 340.265C467.814 340.276 467.682 340.282 467.545 340.282C467.156 340.282 466.819 340.219 466.533 340.093C466.258 339.968 466.052 339.762 465.915 339.476C465.778 339.178 465.709 338.784 465.709 338.292L465.898 338.378C465.806 338.778 465.606 339.133 465.298 339.442C465 339.75 464.617 339.996 464.148 340.179C463.691 340.351 463.193 340.437 462.655 340.437ZM462.947 338.995C463.496 338.995 463.965 338.892 464.354 338.687C464.743 338.469 465.046 338.172 465.263 337.794C465.481 337.417 465.589 336.988 465.589 336.508V335.924L462.913 336.439C462.364 336.542 461.975 336.708 461.746 336.937C461.529 337.154 461.42 337.434 461.42 337.777C461.42 338.166 461.552 338.469 461.815 338.687C462.089 338.892 462.467 338.995 462.947 338.995ZM469.323 340.231V331.103H471.141V340.231H469.323ZM469.288 329.782V327.964H471.176V329.782H469.288ZM476.719 340.437C475.861 340.437 475.135 340.305 474.54 340.042C473.957 339.779 473.505 339.419 473.185 338.961C472.864 338.492 472.681 337.955 472.636 337.348L474.506 337.263C474.597 337.766 474.814 338.166 475.158 338.464C475.501 338.761 476.021 338.91 476.719 338.91C477.291 338.91 477.743 338.818 478.074 338.635C478.406 338.452 478.572 338.16 478.572 337.76C478.572 337.543 478.515 337.36 478.4 337.211C478.297 337.051 478.091 336.919 477.783 336.817C477.474 336.702 477.016 336.594 476.41 336.491C475.506 336.319 474.797 336.119 474.283 335.89C473.768 335.661 473.402 335.37 473.185 335.015C472.967 334.661 472.859 334.232 472.859 333.728C472.859 332.893 473.167 332.213 473.785 331.687C474.414 331.161 475.318 330.898 476.496 330.898C477.285 330.898 477.948 331.035 478.486 331.309C479.024 331.572 479.441 331.933 479.738 332.39C480.047 332.836 480.242 333.339 480.322 333.9L478.452 334.003C478.394 333.683 478.28 333.408 478.109 333.179C477.948 332.939 477.731 332.756 477.457 332.63C477.182 332.493 476.856 332.424 476.479 332.424C475.895 332.424 475.461 332.539 475.175 332.768C474.889 332.996 474.746 333.294 474.746 333.66C474.746 333.934 474.809 334.157 474.935 334.329C475.072 334.5 475.289 334.643 475.587 334.758C475.884 334.861 476.278 334.952 476.77 335.032C477.72 335.192 478.463 335.393 479.001 335.633C479.538 335.862 479.916 336.147 480.133 336.491C480.35 336.834 480.459 337.251 480.459 337.743C480.459 338.315 480.299 338.801 479.979 339.201C479.658 339.602 479.218 339.91 478.658 340.128C478.097 340.334 477.451 340.437 476.719 340.437Z" fill="#7C7C7C"/>
</g>
</g>
<defs>
<filter id="filter0_dddd_490_4510" x="57" y="30" width="478.621" height="451.558" filterUnits="userSpaceOnUse" color-interpolation-filters="sRGB">
<feFlood flood-opacity="0" result="BackgroundImageFix"/>
<feColorMatrix in="SourceAlpha" type="matrix" values="0 0 0 0 0 0 0 0 0 0 0 0 0 0 0 0 0 0 127 0" result="hardAlpha"/>
<feOffset dy="5"/>
<feGaussianBlur stdDeviation="5"/>
<feColorMatrix type="matrix" values="0 0 0 0 0 0 0 0 0 0 0 0 0 0 0 0 0 0 0.05 0"/>
<feBlend mode="normal" in2="BackgroundImageFix" result="effect1_dropShadow_490_4510"/>
<feColorMatrix in="SourceAlpha" type="matrix" values="0 0 0 0 0 0 0 0 0 0 0 0 0 0 0 0 0 0 127 0" result="hardAlpha"/>
<feOffset dy="19"/>
<feGaussianBlur stdDeviation="9.5"/>
<feColorMatrix type="matrix" values="0 0 0 0 0 0 0 0 0 0 0 0 0 0 0 0 0 0 0.04 0"/>
<feBlend mode="normal" in2="effect1_dropShadow_490_4510" result="effect2_dropShadow_490_4510"/>
<feColorMatrix in="SourceAlpha" type="matrix" values="0 0 0 0 0 0 0 0 0 0 0 0 0 0 0 0 0 0 127 0" result="hardAlpha"/>
<feOffset dy="43"/>
<feGaussianBlur stdDeviation="13"/>
<feColorMatrix type="matrix" values="0 0 0 0 0 0 0 0 0 0 0 0 0 0 0 0 0 0 0.03 0"/>
<feBlend mode="normal" in2="effect2_dropShadow_490_4510" result="effect3_dropShadow_490_4510"/>
<feColorMatrix in="SourceAlpha" type="matrix" values="0 0 0 0 0 0 0 0 0 0 0 0 0 0 0 0 0 0 127 0" result="hardAlpha"/>
<feOffset dy="76"/>
<feGaussianBlur stdDeviation="15"/>
<feColorMatrix type="matrix" values="0 0 0 0 0 0 0 0 0 0 0 0 0 0 0 0 0 0 0.01 0"/>
<feBlend mode="normal" in2="effect3_dropShadow_490_4510" result="effect4_dropShadow_490_4510"/>
<feBlend mode="normal" in="SourceGraphic" in2="effect4_dropShadow_490_4510" result="shape"/>
</filter>
<clipPath id="clip0_490_4510">
<rect width="592" height="410" fill="white"/>
</clipPath>
<clipPath id="clip1_490_4510">
<rect width="15.4409" height="15.4409" fill="white" transform="translate(114.451 68.1616)"/>
</clipPath>
</defs>
</svg>
