<svg width="592" height="410" viewBox="0 0 592 410" fill="none" xmlns="http://www.w3.org/2000/svg">
<g clip-path="url(#clip0_490_4548)">
<rect width="592" height="410" fill="#EFEFEF"/>
<rect x="-118" y="111" width="507" height="382" rx="29" fill="white"/>
<g filter="url(#filter0_dddd_490_4548)">
<rect x="105.646" y="50.5" width="380.708" height="309.529" rx="23.5" fill="white" stroke="#DCDCDC"/>
<path d="M381.187 328.605L377.182 317.498H378.981L382.251 326.728L385.52 317.498H387.319L383.299 328.605H381.187ZM391.239 328.793C390.425 328.793 389.721 328.615 389.127 328.261C388.543 327.906 388.089 327.4 387.766 326.743C387.453 326.086 387.296 325.32 387.296 324.444C387.296 323.568 387.453 322.806 387.766 322.16C388.089 321.503 388.543 320.997 389.127 320.642C389.711 320.277 390.399 320.095 391.192 320.095C391.943 320.095 392.605 320.272 393.178 320.627C393.752 320.971 394.195 321.471 394.508 322.128C394.831 322.785 394.993 323.578 394.993 324.506V324.929H389.017C389.059 325.742 389.273 326.352 389.659 326.759C390.055 327.166 390.587 327.369 391.254 327.369C391.744 327.369 392.151 327.254 392.474 327.025C392.798 326.796 393.022 326.488 393.147 326.102L394.868 326.211C394.649 326.983 394.216 327.609 393.569 328.089C392.933 328.558 392.156 328.793 391.239 328.793ZM389.017 323.677H393.241C393.189 322.937 392.975 322.389 392.6 322.035C392.235 321.68 391.765 321.503 391.192 321.503C390.597 321.503 390.107 321.69 389.721 322.066C389.346 322.431 389.111 322.968 389.017 323.677ZM396.36 328.605V320.282H397.878L397.94 322.488L397.8 322.441C397.914 321.69 398.144 321.143 398.488 320.799C398.843 320.455 399.317 320.282 399.912 320.282H400.709V321.769H399.912C399.494 321.769 399.145 321.836 398.863 321.972C398.582 322.108 398.368 322.316 398.222 322.598C398.086 322.879 398.019 323.244 398.019 323.693V328.605H396.36ZM408.652 328.793C407.943 328.793 407.322 328.615 406.79 328.261C406.269 327.906 405.867 327.406 405.586 326.759C405.315 326.102 405.179 325.33 405.179 324.444C405.179 323.557 405.32 322.791 405.601 322.144C405.883 321.487 406.285 320.981 406.806 320.627C407.328 320.272 407.943 320.095 408.652 320.095C409.226 320.095 409.737 320.215 410.185 320.455C410.634 320.694 410.973 321.028 411.202 321.456V317.498H412.86V328.605H411.311L411.265 327.353C411.035 327.802 410.686 328.157 410.216 328.417C409.758 328.668 409.236 328.793 408.652 328.793ZM409.09 327.353C409.539 327.353 409.919 327.239 410.232 327.009C410.545 326.78 410.785 326.446 410.952 326.008C411.119 325.57 411.202 325.049 411.202 324.444C411.202 323.818 411.119 323.291 410.952 322.864C410.785 322.426 410.545 322.097 410.232 321.878C409.919 321.649 409.539 321.534 409.09 321.534C408.423 321.534 407.891 321.795 407.494 322.316C407.098 322.827 406.9 323.536 406.9 324.444C406.9 325.341 407.098 326.05 407.494 326.571C407.891 327.093 408.423 327.353 409.09 327.353ZM418.173 328.793C417.36 328.793 416.656 328.615 416.061 328.261C415.477 327.906 415.024 327.4 414.7 326.743C414.388 326.086 414.231 325.32 414.231 324.444C414.231 323.568 414.388 322.806 414.7 322.16C415.024 321.503 415.477 320.997 416.061 320.642C416.645 320.277 417.334 320.095 418.126 320.095C418.877 320.095 419.54 320.272 420.113 320.627C420.687 320.971 421.13 321.471 421.443 322.128C421.766 322.785 421.928 323.578 421.928 324.506V324.929H415.952C415.994 325.742 416.207 326.352 416.593 326.759C416.99 327.166 417.522 327.369 418.189 327.369C418.679 327.369 419.086 327.254 419.409 327.025C419.733 326.796 419.957 326.488 420.082 326.102L421.803 326.211C421.584 326.983 421.151 327.609 420.504 328.089C419.868 328.558 419.091 328.793 418.173 328.793ZM415.952 323.677H420.176C420.124 322.937 419.91 322.389 419.534 322.035C419.169 321.68 418.7 321.503 418.126 321.503C417.532 321.503 417.042 321.69 416.656 322.066C416.28 322.431 416.046 322.968 415.952 323.677ZM426.181 328.605C425.388 328.605 424.804 328.422 424.429 328.057C424.053 327.692 423.866 327.124 423.866 326.352V318.327H425.524V326.227C425.524 326.613 425.607 326.879 425.774 327.025C425.941 327.171 426.197 327.244 426.541 327.244H427.73V328.605H426.181ZM422.599 321.644V320.282H427.73V321.644H422.599ZM431.287 328.793C430.421 328.793 429.727 328.595 429.206 328.198C428.695 327.802 428.439 327.244 428.439 326.524C428.439 325.805 428.653 325.247 429.081 324.85C429.519 324.444 430.192 324.152 431.099 323.974L433.962 323.427C433.962 322.78 433.81 322.301 433.508 321.988C433.206 321.664 432.757 321.503 432.163 321.503C431.631 321.503 431.214 321.623 430.911 321.863C430.609 322.092 430.4 322.436 430.285 322.895L428.58 322.785C428.737 321.951 429.123 321.294 429.738 320.814C430.364 320.335 431.172 320.095 432.163 320.095C433.289 320.095 434.144 320.397 434.728 321.002C435.323 321.597 435.62 322.436 435.62 323.521V326.759C435.62 326.957 435.651 327.098 435.714 327.181C435.787 327.254 435.902 327.291 436.058 327.291H436.355V328.605C436.303 328.615 436.22 328.626 436.105 328.636C435.99 328.647 435.87 328.652 435.745 328.652C435.39 328.652 435.083 328.595 434.822 328.48C434.572 328.365 434.384 328.177 434.259 327.917C434.134 327.645 434.071 327.286 434.071 326.837L434.243 326.915C434.16 327.28 433.977 327.604 433.696 327.885C433.425 328.167 433.075 328.391 432.648 328.558C432.23 328.714 431.777 328.793 431.287 328.793ZM431.553 327.479C432.053 327.479 432.481 327.385 432.835 327.197C433.19 326.999 433.466 326.728 433.664 326.384C433.863 326.039 433.962 325.648 433.962 325.21V324.678L431.521 325.148C431.021 325.242 430.666 325.393 430.457 325.601C430.259 325.8 430.16 326.055 430.16 326.368C430.16 326.723 430.28 326.999 430.52 327.197C430.77 327.385 431.115 327.479 431.553 327.479ZM439.15 328.605C438.608 328.605 438.17 328.464 437.836 328.183C437.502 327.901 437.335 327.453 437.335 326.837V317.498H438.994V326.681C438.994 326.869 439.041 327.009 439.135 327.103C439.239 327.197 439.385 327.244 439.573 327.244H440.23V328.605H439.15ZM441.315 328.605V317.498H442.974V322.16L442.77 322.128C442.864 321.659 443.036 321.278 443.287 320.986C443.537 320.684 443.845 320.46 444.21 320.314C444.575 320.168 444.976 320.095 445.414 320.095C446.019 320.095 446.53 320.23 446.947 320.502C447.364 320.762 447.677 321.132 447.886 321.612C448.105 322.092 448.214 322.639 448.214 323.255V328.605H446.556V323.693C446.556 322.942 446.426 322.389 446.165 322.035C445.915 321.67 445.518 321.487 444.976 321.487C444.371 321.487 443.886 321.68 443.521 322.066C443.156 322.441 442.974 322.994 442.974 323.724V328.605H441.315ZM453.488 328.793C452.674 328.793 451.97 328.615 451.376 328.261C450.792 327.906 450.338 327.4 450.015 326.743C449.702 326.086 449.546 325.32 449.546 324.444C449.546 323.568 449.702 322.806 450.015 322.16C450.338 321.503 450.792 320.997 451.376 320.642C451.96 320.277 452.648 320.095 453.441 320.095C454.192 320.095 454.854 320.272 455.428 320.627C456.001 320.971 456.445 321.471 456.757 322.128C457.081 322.785 457.242 323.578 457.242 324.506V324.929H451.267C451.308 325.742 451.522 326.352 451.908 326.759C452.304 327.166 452.836 327.369 453.504 327.369C453.994 327.369 454.4 327.254 454.724 327.025C455.047 326.796 455.271 326.488 455.396 326.102L457.117 326.211C456.898 326.983 456.465 327.609 455.819 328.089C455.183 328.558 454.406 328.793 453.488 328.793ZM451.267 323.677H455.49C455.438 322.937 455.224 322.389 454.849 322.035C454.484 321.68 454.015 321.503 453.441 321.503C452.847 321.503 452.356 321.69 451.97 322.066C451.595 322.431 451.36 322.968 451.267 323.677ZM461.817 328.793C461.035 328.793 460.372 328.673 459.83 328.433C459.298 328.193 458.886 327.865 458.594 327.447C458.302 327.02 458.135 326.53 458.094 325.977L459.799 325.899C459.882 326.357 460.08 326.723 460.393 326.994C460.706 327.265 461.181 327.4 461.817 327.4C462.338 327.4 462.75 327.317 463.053 327.15C463.355 326.983 463.506 326.717 463.506 326.352C463.506 326.154 463.454 325.987 463.35 325.852C463.256 325.706 463.068 325.586 462.787 325.492C462.505 325.388 462.088 325.289 461.535 325.195C460.711 325.038 460.065 324.856 459.595 324.647C459.126 324.439 458.792 324.173 458.594 323.849C458.396 323.526 458.297 323.135 458.297 322.676C458.297 321.915 458.579 321.294 459.142 320.814C459.715 320.335 460.539 320.095 461.613 320.095C462.333 320.095 462.938 320.22 463.428 320.47C463.918 320.71 464.299 321.039 464.57 321.456C464.852 321.863 465.029 322.321 465.102 322.832L463.397 322.926C463.345 322.634 463.24 322.384 463.084 322.175C462.938 321.956 462.74 321.79 462.489 321.675C462.239 321.55 461.942 321.487 461.598 321.487C461.066 321.487 460.67 321.591 460.409 321.8C460.148 322.009 460.018 322.28 460.018 322.613C460.018 322.864 460.075 323.067 460.19 323.224C460.315 323.38 460.513 323.51 460.784 323.615C461.055 323.708 461.415 323.792 461.864 323.865C462.729 324.011 463.407 324.193 463.897 324.412C464.388 324.621 464.732 324.882 464.93 325.195C465.128 325.508 465.227 325.888 465.227 326.337C465.227 326.858 465.081 327.301 464.789 327.666C464.497 328.031 464.096 328.313 463.585 328.511C463.073 328.699 462.484 328.793 461.817 328.793Z" fill="#7C7C7C"/>
<path d="M134.762 196.566V160.312H149.928C152.549 160.312 154.813 160.755 156.719 161.64C158.625 162.525 160.106 163.785 161.161 165.419C162.217 167.053 162.744 168.976 162.744 171.189C162.744 172.857 162.387 174.337 161.672 175.631C160.957 176.925 159.987 177.963 158.761 178.746C157.57 179.529 156.242 180.005 154.779 180.175L154.523 179.665C156.872 179.665 158.676 180.192 159.936 181.248C161.229 182.303 161.961 183.92 162.131 186.099L163.051 196.566H156.31L155.544 187.069C155.442 185.639 154.983 184.584 154.166 183.903C153.349 183.222 151.987 182.882 150.081 182.882H141.4V196.566H134.762ZM141.4 177.061H149.519C151.528 177.061 153.094 176.584 154.217 175.631C155.34 174.678 155.902 173.333 155.902 171.597C155.902 169.827 155.323 168.465 154.166 167.512C153.042 166.559 151.391 166.082 149.213 166.082H141.4V177.061ZM179.924 201.162V155.717H183.907V201.162H179.924ZM182.324 197.23C179.397 197.23 176.861 196.72 174.716 195.698C172.571 194.643 170.886 193.196 169.661 191.358C168.469 189.486 167.771 187.307 167.567 184.822L174.154 184.465C174.358 185.997 174.801 187.29 175.482 188.345C176.163 189.401 177.082 190.218 178.239 190.796C179.397 191.341 180.792 191.613 182.426 191.613C183.822 191.613 185.013 191.443 186.001 191.103C186.988 190.728 187.737 190.201 188.247 189.52C188.792 188.839 189.064 188.005 189.064 187.018C189.064 186.065 188.843 185.248 188.401 184.567C187.958 183.852 187.107 183.205 185.847 182.626C184.622 182.048 182.801 181.486 180.384 180.941C177.456 180.227 175.09 179.444 173.286 178.593C171.516 177.742 170.239 176.686 169.457 175.427C168.674 174.133 168.282 172.516 168.282 170.576C168.282 168.499 168.793 166.678 169.814 165.112C170.835 163.512 172.299 162.287 174.205 161.436C176.112 160.551 178.409 160.108 181.099 160.108C183.924 160.108 186.324 160.619 188.298 161.64C190.273 162.627 191.822 164.006 192.945 165.776C194.102 167.546 194.8 169.572 195.039 171.852L188.452 172.21C188.315 170.916 187.941 169.776 187.328 168.789C186.715 167.801 185.881 167.035 184.826 166.491C183.771 165.946 182.494 165.674 180.997 165.674C179.09 165.674 177.592 166.116 176.503 167.001C175.448 167.852 174.92 168.976 174.92 170.372C174.92 171.325 175.141 172.125 175.584 172.771C176.061 173.384 176.878 173.929 178.035 174.405C179.192 174.848 180.826 175.308 182.937 175.784C186.103 176.499 188.605 177.367 190.443 178.388C192.315 179.376 193.643 180.567 194.426 181.963C195.243 183.324 195.651 184.89 195.651 186.66C195.651 188.805 195.09 190.677 193.966 192.277C192.877 193.843 191.328 195.069 189.32 195.954C187.345 196.805 185.013 197.23 182.324 197.23ZM207.051 196.566V171.699H199.29V166.644H202.404C203.868 166.644 205.043 166.457 205.928 166.082C206.813 165.708 207.442 165.061 207.817 164.142C208.225 163.189 208.43 161.912 208.43 160.312H213.689V196.566H207.051ZM234.255 197.383C229.931 197.383 226.595 196.396 224.247 194.422C221.898 192.413 220.638 189.724 220.468 186.354L227.259 186.048C227.463 187.988 228.178 189.401 229.404 190.286C230.663 191.171 232.28 191.613 234.255 191.613C235.582 191.613 236.791 191.426 237.88 191.052C238.969 190.643 239.837 190.03 240.484 189.213C241.131 188.396 241.454 187.341 241.454 186.048C241.454 184.073 240.791 182.609 239.463 181.656C238.135 180.703 236.365 180.227 234.153 180.227H230.987V174.967H234.153C235.889 174.967 237.335 174.61 238.493 173.895C239.684 173.146 240.28 171.903 240.28 170.167C240.28 168.601 239.786 167.393 238.799 166.542C237.846 165.691 236.348 165.265 234.306 165.265C232.297 165.265 230.782 165.674 229.761 166.491C228.74 167.308 228.127 168.38 227.923 169.708L221.132 169.35C221.506 166.355 222.817 163.972 225.064 162.202C227.344 160.397 230.425 159.495 234.306 159.495C237.029 159.495 239.344 159.904 241.25 160.721C243.157 161.538 244.603 162.695 245.59 164.193C246.612 165.691 247.122 167.478 247.122 169.555C247.122 171.733 246.407 173.52 244.978 174.916C243.548 176.312 241.506 177.248 238.85 177.724V176.856C241.812 177.265 244.127 178.32 245.795 180.022C247.463 181.69 248.297 183.818 248.297 186.405C248.297 188.72 247.718 190.694 246.561 192.328C245.403 193.962 243.769 195.222 241.659 196.107C239.548 196.958 237.08 197.383 234.255 197.383ZM251.601 196.566V189.418H259.057V196.566H251.601ZM276.575 197.383C273.511 197.383 270.839 196.617 268.558 195.086C266.311 193.554 264.575 191.375 263.35 188.55C262.124 185.724 261.511 182.371 261.511 178.49C261.511 174.61 262.124 171.257 263.35 168.431C264.575 165.572 266.311 163.376 268.558 161.844C270.839 160.278 273.511 159.495 276.575 159.495C279.707 159.495 282.396 160.278 284.643 161.844C286.889 163.376 288.625 165.555 289.851 168.38C291.076 171.206 291.689 174.576 291.689 178.49C291.689 182.371 291.076 185.724 289.851 188.55C288.625 191.375 286.889 193.554 284.643 195.086C282.396 196.617 279.707 197.383 276.575 197.383ZM276.575 191.613C279.23 191.613 281.273 190.507 282.702 188.294C284.132 186.048 284.847 182.78 284.847 178.49C284.847 175.631 284.523 173.214 283.877 171.24C283.23 169.265 282.294 167.784 281.068 166.797C279.877 165.776 278.379 165.265 276.575 165.265C274.839 165.265 273.358 165.776 272.132 166.797C270.907 167.784 269.971 169.265 269.324 171.24C268.677 173.214 268.354 175.631 268.354 178.49C268.354 182.78 269.069 186.048 270.498 188.294C271.928 190.507 273.954 191.613 276.575 191.613ZM310.609 197.383C307.545 197.383 304.873 196.617 302.592 195.086C300.345 193.554 298.609 191.375 297.384 188.55C296.158 185.724 295.546 182.371 295.546 178.49C295.546 174.61 296.158 171.257 297.384 168.431C298.609 165.572 300.345 163.376 302.592 161.844C304.873 160.278 307.545 159.495 310.609 159.495C313.741 159.495 316.43 160.278 318.677 161.844C320.923 163.376 322.66 165.555 323.885 168.38C325.111 171.206 325.723 174.576 325.723 178.49C325.723 182.371 325.111 185.724 323.885 188.55C322.66 191.375 320.923 193.554 318.677 195.086C316.43 196.617 313.741 197.383 310.609 197.383ZM310.609 191.613C313.264 191.613 315.307 190.507 316.736 188.294C318.166 186.048 318.881 182.78 318.881 178.49C318.881 175.631 318.558 173.214 317.911 171.24C317.264 169.265 316.328 167.784 315.102 166.797C313.911 165.776 312.413 165.265 310.609 165.265C308.873 165.265 307.392 165.776 306.166 166.797C304.941 167.784 304.005 169.265 303.358 171.24C302.711 173.214 302.388 175.631 302.388 178.49C302.388 182.78 303.103 186.048 304.532 188.294C305.962 190.507 307.988 191.613 310.609 191.613ZM344.643 197.383C341.579 197.383 338.907 196.617 336.626 195.086C334.379 193.554 332.643 191.375 331.418 188.55C330.192 185.724 329.58 182.371 329.58 178.49C329.58 174.61 330.192 171.257 331.418 168.431C332.643 165.572 334.379 163.376 336.626 161.844C338.907 160.278 341.579 159.495 344.643 159.495C347.775 159.495 350.464 160.278 352.711 161.844C354.958 163.376 356.694 165.555 357.919 168.38C359.145 171.206 359.757 174.576 359.757 178.49C359.757 182.371 359.145 185.724 357.919 188.55C356.694 191.375 354.958 193.554 352.711 195.086C350.464 196.617 347.775 197.383 344.643 197.383ZM344.643 191.613C347.298 191.613 349.341 190.507 350.77 188.294C352.2 186.048 352.915 182.78 352.915 178.49C352.915 175.631 352.592 173.214 351.945 171.24C351.298 169.265 350.362 167.784 349.136 166.797C347.945 165.776 346.447 165.265 344.643 165.265C342.907 165.265 341.426 165.776 340.201 166.797C338.975 167.784 338.039 169.265 337.392 171.24C336.745 173.214 336.422 175.631 336.422 178.49C336.422 182.78 337.137 186.048 338.567 188.294C339.996 190.507 342.022 191.613 344.643 191.613Z" fill="#292929"/>
<path d="M369.05 202.458L370.188 199H368.853V195.936H372.048V198.65L370.604 202.458H369.05ZM379.556 199.35C378.243 199.35 377.098 199.022 376.121 198.365C375.158 197.709 374.414 196.775 373.888 195.564C373.363 194.353 373.101 192.916 373.101 191.253C373.101 189.59 373.363 188.153 373.888 186.942C374.414 185.717 375.158 184.776 376.121 184.119C377.098 183.448 378.243 183.112 379.556 183.112C380.899 183.112 382.051 183.448 383.014 184.119C383.977 184.776 384.721 185.709 385.246 186.92C385.771 188.131 386.034 189.575 386.034 191.253C386.034 192.916 385.771 194.353 385.246 195.564C384.721 196.775 383.977 197.709 383.014 198.365C382.051 199.022 380.899 199.35 379.556 199.35ZM379.556 196.877C380.694 196.877 381.57 196.403 382.182 195.455C382.795 194.492 383.101 193.091 383.101 191.253C383.101 190.028 382.963 188.992 382.686 188.146C382.409 187.299 382.007 186.665 381.482 186.242C380.971 185.804 380.33 185.585 379.556 185.585C378.812 185.585 378.178 185.804 377.652 186.242C377.127 186.665 376.726 187.299 376.449 188.146C376.172 188.992 376.033 190.028 376.033 191.253C376.033 193.091 376.339 194.492 376.952 195.455C377.565 196.403 378.433 196.877 379.556 196.877ZM394.142 199.35C392.829 199.35 391.684 199.022 390.707 198.365C389.744 197.709 389 196.775 388.474 195.564C387.949 194.353 387.687 192.916 387.687 191.253C387.687 189.59 387.949 188.153 388.474 186.942C389 185.717 389.744 184.776 390.707 184.119C391.684 183.448 392.829 183.112 394.142 183.112C395.485 183.112 396.637 183.448 397.6 184.119C398.563 184.776 399.307 185.709 399.832 186.92C400.357 188.131 400.62 189.575 400.62 191.253C400.62 192.916 400.357 194.353 399.832 195.564C399.307 196.775 398.563 197.709 397.6 198.365C396.637 199.022 395.485 199.35 394.142 199.35ZM394.142 196.877C395.28 196.877 396.156 196.403 396.768 195.455C397.381 194.492 397.688 193.091 397.688 191.253C397.688 190.028 397.549 188.992 397.272 188.146C396.995 187.299 396.593 186.665 396.068 186.242C395.558 185.804 394.916 185.585 394.142 185.585C393.398 185.585 392.764 185.804 392.238 186.242C391.713 186.665 391.312 187.299 391.035 188.146C390.758 188.992 390.619 190.028 390.619 191.253C390.619 193.091 390.925 194.492 391.538 195.455C392.151 196.403 393.019 196.877 394.142 196.877Z" fill="#292929"/>
<g clip-path="url(#clip1_490_4548)">
<path d="M159.031 231.593C158.884 231.501 158.715 231.448 158.541 231.439C158.367 231.43 158.194 231.465 158.037 231.542C154.491 233.276 151.934 232.457 149.227 231.59C146.39 230.682 143.176 229.652 138.889 231.749C138.716 231.833 138.571 231.964 138.469 232.127C138.367 232.29 138.314 232.479 138.314 232.671V242.937C138.314 243.112 138.358 243.283 138.442 243.435C138.527 243.588 138.648 243.716 138.796 243.808C138.944 243.9 139.112 243.954 139.286 243.963C139.46 243.972 139.634 243.936 139.79 243.86C143.336 242.125 145.894 242.944 148.601 243.812C150.21 244.325 151.941 244.881 153.921 244.881C155.431 244.881 157.084 244.559 158.938 243.653C159.111 243.569 159.256 243.437 159.358 243.274C159.46 243.111 159.514 242.923 159.514 242.731V232.464C159.514 232.29 159.47 232.118 159.385 231.966C159.301 231.814 159.179 231.685 159.031 231.593ZM157.462 242.071C154.214 243.452 151.785 242.675 149.227 241.856C147.617 241.343 145.886 240.786 143.906 240.786C142.7 240.788 141.503 240.995 140.365 241.397V233.331C143.614 231.949 146.042 232.726 148.601 233.545C151.102 234.346 153.896 235.241 157.462 234.004V242.071ZM148.914 234.965C148.373 234.965 147.844 235.126 147.394 235.426C146.944 235.727 146.593 236.154 146.386 236.654C146.179 237.154 146.125 237.704 146.231 238.234C146.336 238.765 146.597 239.252 146.979 239.635C147.362 240.018 147.849 240.278 148.38 240.384C148.911 240.489 149.461 240.435 149.96 240.228C150.46 240.021 150.888 239.67 151.188 239.22C151.489 238.771 151.649 238.242 151.649 237.701C151.648 236.976 151.359 236.281 150.846 235.768C150.334 235.255 149.639 234.967 148.914 234.965ZM148.914 238.385C148.778 238.385 148.646 238.344 148.534 238.269C148.421 238.194 148.334 238.087 148.282 237.962C148.23 237.837 148.217 237.7 148.243 237.567C148.269 237.435 148.334 237.313 148.43 237.217C148.526 237.122 148.648 237.056 148.78 237.03C148.913 237.004 149.05 237.017 149.175 237.069C149.3 237.121 149.407 237.208 149.482 237.321C149.557 237.433 149.598 237.565 149.598 237.701C149.598 237.882 149.525 238.056 149.397 238.184C149.269 238.313 149.095 238.385 148.914 238.385ZM143.443 235.307V238.727C143.443 238.999 143.335 239.259 143.142 239.452C142.95 239.644 142.689 239.752 142.417 239.752C142.145 239.752 141.884 239.644 141.692 239.452C141.499 239.259 141.391 238.999 141.391 238.727V235.307C141.391 235.035 141.499 234.774 141.692 234.582C141.884 234.389 142.145 234.281 142.417 234.281C142.689 234.281 142.95 234.389 143.142 234.582C143.335 234.774 143.443 235.035 143.443 235.307ZM154.385 240.094V236.675C154.385 236.403 154.493 236.142 154.685 235.95C154.877 235.757 155.138 235.649 155.41 235.649C155.682 235.649 155.943 235.757 156.136 235.95C156.328 236.142 156.436 236.403 156.436 236.675V240.094C156.436 240.366 156.328 240.627 156.136 240.82C155.943 241.012 155.682 241.12 155.41 241.12C155.138 241.12 154.877 241.012 154.685 240.82C154.493 240.627 154.385 240.366 154.385 240.094Z" fill="#7C7C7C"/>
</g>
<path d="M171.605 242.405C170.873 242.405 170.231 242.265 169.678 241.984C169.133 241.703 168.712 241.307 168.414 240.796C168.125 240.277 167.98 239.665 167.98 238.958V233.124H169.639V238.958C169.639 239.597 169.81 240.09 170.15 240.439C170.49 240.788 170.976 240.962 171.605 240.962C172.235 240.962 172.72 240.788 173.061 240.439C173.41 240.09 173.584 239.597 173.584 238.958V233.124H175.243V238.958C175.243 239.665 175.095 240.277 174.797 240.796C174.499 241.307 174.078 241.703 173.533 241.984C172.997 242.265 172.354 242.405 171.605 242.405ZM170.865 232.371L171.644 230.584H173.29L172.141 232.371H170.865ZM176.842 242.201V233.137H178.501V241.69L177.595 240.758H182.803V242.201H176.842ZM184.26 242.201V234.58H181.503V233.137H188.664V234.58H185.92V242.201H184.26ZM189.296 242.201V233.137H190.956V242.201H189.296ZM192.544 242.201V233.137H194.778L197.28 240.158L199.782 233.137H202.016V242.201H200.357V235.946L198.072 242.188H196.489L194.204 235.946V242.201H192.544ZM207.451 242.405C206.557 242.405 205.787 242.218 205.14 241.843C204.493 241.46 203.995 240.916 203.646 240.209C203.306 239.503 203.136 238.66 203.136 237.682C203.136 236.703 203.306 235.86 203.646 235.154C203.995 234.439 204.493 233.89 205.14 233.507C205.787 233.124 206.557 232.933 207.451 232.933C208.361 232.933 209.136 233.124 209.774 233.507C210.421 233.89 210.914 234.439 211.255 235.154C211.604 235.86 211.778 236.703 211.778 237.682C211.778 238.66 211.604 239.503 211.255 240.209C210.914 240.916 210.421 241.46 209.774 241.843C209.136 242.218 208.361 242.405 207.451 242.405ZM207.451 240.962C208.004 240.962 208.472 240.835 208.855 240.579C209.246 240.316 209.544 239.941 209.748 239.456C209.961 238.962 210.068 238.371 210.068 237.682C210.068 236.992 209.961 236.401 209.748 235.907C209.544 235.414 209.246 235.035 208.855 234.771C208.472 234.507 208.004 234.375 207.451 234.375C206.914 234.375 206.451 234.507 206.059 234.771C205.668 235.035 205.366 235.414 205.153 235.907C204.949 236.401 204.846 236.992 204.846 237.682C204.846 238.371 204.949 238.962 205.153 239.456C205.366 239.941 205.668 240.316 206.059 240.579C206.451 240.835 206.914 240.962 207.451 240.962ZM215.851 242.201V233.137H219.361C220.425 233.137 221.255 233.392 221.85 233.903C222.446 234.414 222.744 235.12 222.744 236.022C222.744 236.626 222.608 237.15 222.335 237.592C222.063 238.026 221.676 238.358 221.174 238.588C220.672 238.818 220.067 238.933 219.361 238.933H217.51V242.201H215.851ZM217.51 237.49H219.285C219.846 237.49 220.276 237.367 220.574 237.12C220.88 236.873 221.033 236.507 221.033 236.022C221.033 235.546 220.88 235.188 220.574 234.95C220.276 234.703 219.846 234.58 219.285 234.58H217.51V237.49ZM223.823 242.201V233.137H227.614C228.27 233.137 228.836 233.248 229.312 233.469C229.789 233.69 230.159 234.005 230.423 234.414C230.687 234.822 230.819 235.303 230.819 235.856C230.819 236.273 230.729 236.643 230.551 236.967C230.372 237.29 230.129 237.55 229.823 237.746C229.525 237.941 229.193 238.06 228.827 238.103L228.763 237.975C229.351 237.975 229.802 238.107 230.116 238.371C230.44 238.635 230.623 239.039 230.665 239.584L230.895 242.201H229.21L229.019 239.826C228.993 239.469 228.878 239.205 228.674 239.035C228.47 238.865 228.129 238.78 227.653 238.78H225.483V242.201H223.823ZM225.483 237.324H227.512C228.014 237.324 228.406 237.205 228.687 236.967C228.968 236.729 229.108 236.392 229.108 235.958C229.108 235.516 228.963 235.175 228.674 234.937C228.393 234.699 227.98 234.58 227.436 234.58H225.483V237.324ZM236.024 242.405C235.131 242.405 234.361 242.218 233.714 241.843C233.067 241.46 232.569 240.916 232.22 240.209C231.88 239.503 231.71 238.66 231.71 237.682C231.71 236.703 231.88 235.86 232.22 235.154C232.569 234.439 233.067 233.89 233.714 233.507C234.361 233.124 235.131 232.933 236.024 232.933C236.935 232.933 237.709 233.124 238.348 233.507C238.995 233.89 239.488 234.439 239.829 235.154C240.177 235.86 240.352 236.703 240.352 237.682C240.352 238.66 240.177 239.503 239.829 240.209C239.488 240.916 238.995 241.46 238.348 241.843C237.709 242.218 236.935 242.405 236.024 242.405ZM236.024 240.962C236.578 240.962 237.046 240.835 237.429 240.579C237.82 240.316 238.118 239.941 238.322 239.456C238.535 238.962 238.641 238.371 238.641 237.682C238.641 236.992 238.535 236.401 238.322 235.907C238.118 235.414 237.82 235.035 237.429 234.771C237.046 234.507 236.578 234.375 236.024 234.375C235.488 234.375 235.024 234.507 234.633 234.771C234.242 235.035 233.939 235.414 233.727 235.907C233.522 236.401 233.42 236.992 233.42 237.682C233.42 238.371 233.522 238.962 233.727 239.456C233.939 239.941 234.242 240.316 234.633 240.579C235.024 240.835 235.488 240.962 236.024 240.962ZM244.398 242.405C243.742 242.405 243.176 242.265 242.7 241.984C242.223 241.694 241.857 241.299 241.602 240.796C241.355 240.286 241.228 239.707 241.219 239.06L242.891 238.971C242.908 239.635 243.045 240.133 243.3 240.465C243.564 240.796 243.93 240.962 244.398 240.962C244.874 240.962 245.244 240.796 245.508 240.465C245.772 240.124 245.904 239.626 245.904 238.971V233.137H247.564V238.971C247.564 239.669 247.432 240.277 247.168 240.796C246.904 241.307 246.534 241.703 246.057 241.984C245.589 242.265 245.036 242.405 244.398 242.405ZM249.349 242.201V233.137H255.451V234.58H251.008V236.941H255.297V238.371H251.008V240.758H255.553V242.201H249.349ZM258.824 242.201V234.58H256.066V233.137H263.228V234.58H260.483V242.201H258.824ZM267.478 242.405C266.584 242.405 265.814 242.218 265.167 241.843C264.521 241.46 264.023 240.916 263.674 240.209C263.333 239.503 263.163 238.66 263.163 237.682C263.163 236.703 263.333 235.86 263.674 235.154C264.023 234.439 264.521 233.89 265.167 233.507C265.814 233.124 266.584 232.933 267.478 232.933C268.389 232.933 269.163 233.124 269.801 233.507C270.448 233.89 270.942 234.439 271.282 235.154C271.631 235.86 271.805 236.703 271.805 237.682C271.805 238.66 271.631 239.503 271.282 240.209C270.942 240.916 270.448 241.46 269.801 241.843C269.163 242.218 268.389 242.405 267.478 242.405ZM267.478 240.962C268.031 240.962 268.499 240.835 268.882 240.579C269.274 240.316 269.572 239.941 269.776 239.456C269.989 238.962 270.095 238.371 270.095 237.682C270.095 236.992 269.989 236.401 269.776 235.907C269.572 235.414 269.274 235.035 268.882 234.771C268.499 234.507 268.031 234.375 267.478 234.375C266.942 234.375 266.478 234.507 266.087 234.771C265.695 235.035 265.393 235.414 265.18 235.907C264.976 236.401 264.874 236.992 264.874 237.682C264.874 238.371 264.976 238.962 265.18 239.456C265.393 239.941 265.695 240.316 266.087 240.579C266.478 240.835 266.942 240.962 267.478 240.962Z" fill="#7C7C7C"/>
<rect x="284.092" y="225.553" width="91.5892" height="24.2946" rx="12.1473" fill="#C5D4FF"/>
<path d="M294.323 241.613V235.409H295.676V241.613H294.323ZM291.897 239.188V237.822H298.102V239.188H291.897ZM299.383 242.201V233.137H303.175C303.83 233.137 304.396 233.248 304.872 233.469C305.349 233.69 305.719 234.005 305.983 234.414C306.247 234.822 306.379 235.303 306.379 235.856C306.379 236.273 306.289 236.643 306.111 236.967C305.932 237.29 305.689 237.55 305.383 237.746C305.085 237.941 304.753 238.06 304.387 238.103L304.324 237.975C304.911 237.975 305.362 238.107 305.677 238.371C306 238.635 306.183 239.039 306.226 239.584L306.455 242.201H304.77L304.579 239.826C304.553 239.469 304.438 239.205 304.234 239.035C304.03 238.865 303.689 238.78 303.213 238.78H301.043V242.201H299.383ZM301.043 237.324H303.072C303.575 237.324 303.966 237.205 304.247 236.967C304.528 236.729 304.668 236.392 304.668 235.958C304.668 235.516 304.523 235.175 304.234 234.937C303.953 234.699 303.541 234.58 302.996 234.58H301.043V237.324ZM310.674 243.35V231.988H311.669V243.35H310.674ZM311.274 242.367C310.542 242.367 309.908 242.239 309.372 241.984C308.836 241.72 308.414 241.358 308.108 240.899C307.81 240.431 307.636 239.886 307.584 239.265L309.231 239.175C309.282 239.558 309.393 239.882 309.563 240.145C309.733 240.409 309.963 240.614 310.252 240.758C310.542 240.894 310.891 240.962 311.299 240.962C311.648 240.962 311.946 240.92 312.193 240.835C312.44 240.741 312.627 240.609 312.755 240.439C312.891 240.269 312.959 240.06 312.959 239.814C312.959 239.575 312.903 239.371 312.793 239.201C312.682 239.022 312.469 238.86 312.155 238.716C311.848 238.571 311.393 238.431 310.789 238.294C310.057 238.116 309.465 237.92 309.014 237.707C308.572 237.494 308.253 237.231 308.057 236.916C307.861 236.592 307.763 236.188 307.763 235.703C307.763 235.184 307.891 234.729 308.146 234.337C308.401 233.937 308.767 233.631 309.244 233.418C309.721 233.197 310.295 233.086 310.967 233.086C311.674 233.086 312.274 233.214 312.767 233.469C313.261 233.716 313.648 234.061 313.929 234.503C314.218 234.946 314.393 235.452 314.452 236.022L312.806 236.112C312.772 235.788 312.678 235.503 312.525 235.256C312.372 235.009 312.163 234.818 311.899 234.682C311.635 234.546 311.316 234.478 310.942 234.478C310.465 234.478 310.091 234.588 309.818 234.809C309.555 235.022 309.423 235.303 309.423 235.652C309.423 235.89 309.478 236.09 309.589 236.252C309.708 236.405 309.912 236.541 310.201 236.66C310.491 236.771 310.899 236.886 311.427 237.005C312.218 237.184 312.844 237.401 313.303 237.656C313.772 237.903 314.103 238.201 314.299 238.55C314.503 238.89 314.606 239.282 314.606 239.724C314.606 240.26 314.465 240.728 314.184 241.128C313.912 241.52 313.525 241.826 313.023 242.047C312.529 242.26 311.946 242.367 311.274 242.367ZM319.906 242.201V240.388H315.362V239.035L319.638 233.137H321.566V238.945H322.651V240.388H321.566V242.201H319.906ZM317.175 238.945H319.906V235.295L317.175 238.945ZM327.139 242.405C326.433 242.405 325.833 242.294 325.339 242.073C324.846 241.852 324.463 241.545 324.19 241.154C323.918 240.754 323.756 240.29 323.705 239.762L325.403 239.673C325.471 240.099 325.658 240.418 325.965 240.631C326.271 240.843 326.663 240.95 327.139 240.95C327.692 240.95 328.122 240.801 328.428 240.503C328.743 240.196 328.901 239.767 328.901 239.214C328.901 238.865 328.828 238.558 328.684 238.294C328.548 238.031 328.348 237.826 328.084 237.682C327.82 237.537 327.501 237.465 327.126 237.465C326.743 237.465 326.407 237.55 326.118 237.72C325.837 237.882 325.633 238.099 325.505 238.371H323.82L324.446 233.137H329.999V234.58H325.888L325.531 237.465L325.314 237.273C325.45 237.035 325.628 236.835 325.85 236.673C326.071 236.503 326.326 236.375 326.616 236.29C326.914 236.205 327.233 236.163 327.573 236.163C328.186 236.163 328.718 236.295 329.169 236.558C329.628 236.822 329.982 237.184 330.228 237.643C330.484 238.103 330.611 238.626 330.611 239.214C330.611 239.852 330.467 240.414 330.177 240.899C329.896 241.375 329.492 241.745 328.965 242.009C328.445 242.273 327.837 242.405 327.139 242.405ZM335.478 242.405C334.712 242.405 334.044 242.213 333.474 241.83C332.912 241.448 332.478 240.903 332.172 240.196C331.866 239.49 331.712 238.652 331.712 237.682C331.712 236.712 331.866 235.873 332.172 235.167C332.478 234.452 332.912 233.903 333.474 233.52C334.044 233.129 334.712 232.933 335.478 232.933C336.261 232.933 336.933 233.129 337.495 233.52C338.057 233.903 338.491 234.448 338.797 235.154C339.104 235.86 339.257 236.703 339.257 237.682C339.257 238.652 339.104 239.49 338.797 240.196C338.491 240.903 338.057 241.448 337.495 241.83C336.933 242.213 336.261 242.405 335.478 242.405ZM335.478 240.962C336.142 240.962 336.653 240.686 337.01 240.133C337.367 239.571 337.546 238.754 337.546 237.682C337.546 236.967 337.465 236.363 337.304 235.869C337.142 235.375 336.908 235.005 336.602 234.758C336.304 234.503 335.929 234.375 335.478 234.375C335.044 234.375 334.674 234.503 334.368 234.758C334.061 235.005 333.827 235.375 333.665 235.869C333.504 236.363 333.423 236.967 333.423 237.682C333.423 238.754 333.602 239.571 333.959 240.133C334.316 240.686 334.823 240.962 335.478 240.962ZM343.987 242.405C343.221 242.405 342.553 242.213 341.982 241.83C341.421 241.448 340.987 240.903 340.68 240.196C340.374 239.49 340.221 238.652 340.221 237.682C340.221 236.712 340.374 235.873 340.68 235.167C340.987 234.452 341.421 233.903 341.982 233.52C342.553 233.129 343.221 232.933 343.987 232.933C344.77 232.933 345.442 233.129 346.004 233.52C346.565 233.903 346.999 234.448 347.306 235.154C347.612 235.86 347.765 236.703 347.765 237.682C347.765 238.652 347.612 239.49 347.306 240.196C346.999 240.903 346.565 241.448 346.004 241.83C345.442 242.213 344.77 242.405 343.987 242.405ZM343.987 240.962C344.65 240.962 345.161 240.686 345.519 240.133C345.876 239.571 346.055 238.754 346.055 237.682C346.055 236.967 345.974 236.363 345.812 235.869C345.65 235.375 345.416 235.005 345.11 234.758C344.812 234.503 344.438 234.375 343.987 234.375C343.553 234.375 343.182 234.503 342.876 234.758C342.57 235.005 342.336 235.375 342.174 235.869C342.012 236.363 341.931 236.967 341.931 237.682C341.931 238.754 342.11 239.571 342.468 240.133C342.825 240.686 343.331 240.962 343.987 240.962ZM348.365 242.201V240.414H350.229V242.201H348.365ZM354.608 242.405C353.843 242.405 353.174 242.213 352.604 241.83C352.043 241.448 351.609 240.903 351.302 240.196C350.996 239.49 350.843 238.652 350.843 237.682C350.843 236.712 350.996 235.873 351.302 235.167C351.609 234.452 352.043 233.903 352.604 233.52C353.174 233.129 353.843 232.933 354.608 232.933C355.391 232.933 356.064 233.129 356.625 233.52C357.187 233.903 357.621 234.448 357.928 235.154C358.234 235.86 358.387 236.703 358.387 237.682C358.387 238.652 358.234 239.49 357.928 240.196C357.621 240.903 357.187 241.448 356.625 241.83C356.064 242.213 355.391 242.405 354.608 242.405ZM354.608 240.962C355.272 240.962 355.783 240.686 356.14 240.133C356.498 239.571 356.677 238.754 356.677 237.682C356.677 236.967 356.596 236.363 356.434 235.869C356.272 235.375 356.038 235.005 355.732 234.758C355.434 234.503 355.06 234.375 354.608 234.375C354.174 234.375 353.804 234.503 353.498 234.758C353.192 235.005 352.957 235.375 352.796 235.869C352.634 236.363 352.553 236.967 352.553 237.682C352.553 238.754 352.732 239.571 353.089 240.133C353.447 240.686 353.953 240.962 354.608 240.962ZM363.117 242.405C362.351 242.405 361.683 242.213 361.113 241.83C360.551 241.448 360.117 240.903 359.811 240.196C359.504 239.49 359.351 238.652 359.351 237.682C359.351 236.712 359.504 235.873 359.811 235.167C360.117 234.452 360.551 233.903 361.113 233.52C361.683 233.129 362.351 232.933 363.117 232.933C363.9 232.933 364.572 233.129 365.134 233.52C365.696 233.903 366.13 234.448 366.436 235.154C366.742 235.86 366.896 236.703 366.896 237.682C366.896 238.652 366.742 239.49 366.436 240.196C366.13 240.903 365.696 241.448 365.134 241.83C364.572 242.213 363.9 242.405 363.117 242.405ZM363.117 240.962C363.781 240.962 364.291 240.686 364.649 240.133C365.006 239.571 365.185 238.754 365.185 237.682C365.185 236.967 365.104 236.363 364.942 235.869C364.781 235.375 364.547 235.005 364.24 234.758C363.943 234.503 363.568 234.375 363.117 234.375C362.683 234.375 362.313 234.503 362.006 234.758C361.7 235.005 361.466 235.375 361.304 235.869C361.143 236.363 361.062 236.967 361.062 237.682C361.062 238.754 361.24 239.571 361.598 240.133C361.955 240.686 362.462 240.962 363.117 240.962Z" fill="#5352ED"/>
<path d="M135.231 145V133.024H130.898V130.757H142.152V133.024H137.839V145H135.231ZM146.443 145.241C145.386 145.241 144.457 145.013 143.654 144.559C142.865 144.091 142.25 143.435 141.809 142.593C141.381 141.75 141.167 140.767 141.167 139.644C141.167 138.507 141.381 137.524 141.809 136.695C142.25 135.853 142.865 135.204 143.654 134.749C144.457 134.281 145.386 134.047 146.443 134.047C147.499 134.047 148.422 134.281 149.211 134.749C150 135.204 150.608 135.853 151.036 136.695C151.478 137.524 151.698 138.507 151.698 139.644C151.698 140.767 151.478 141.75 151.036 142.593C150.608 143.435 150 144.091 149.211 144.559C148.422 145.013 147.499 145.241 146.443 145.241ZM146.443 143.154C147.272 143.154 147.907 142.847 148.348 142.232C148.803 141.617 149.03 140.754 149.03 139.644C149.03 138.547 148.803 137.691 148.348 137.076C147.907 136.448 147.272 136.133 146.443 136.133C145.613 136.133 144.972 136.448 144.517 137.076C144.062 137.691 143.835 138.547 143.835 139.644C143.835 140.754 144.062 141.617 144.517 142.232C144.972 142.847 145.613 143.154 146.443 143.154ZM157.199 145C156.129 145 155.34 144.753 154.832 144.258C154.337 143.763 154.09 142.987 154.09 141.931V131.78H156.658V141.69C156.658 142.185 156.765 142.533 156.979 142.733C157.193 142.92 157.527 143.014 157.982 143.014H159.486V145H157.199ZM152.405 136.274V134.288H159.486V136.274H152.405ZM164.019 145.241C162.895 145.241 161.992 144.987 161.31 144.478C160.628 143.957 160.287 143.235 160.287 142.312C160.287 141.389 160.575 140.667 161.15 140.145C161.725 139.624 162.601 139.249 163.778 139.022L167.328 138.32C167.328 137.558 167.155 136.989 166.807 136.615C166.459 136.227 165.944 136.033 165.262 136.033C164.647 136.033 164.159 136.18 163.798 136.474C163.45 136.755 163.209 137.163 163.076 137.698L160.468 137.578C160.682 136.441 161.203 135.572 162.033 134.97C162.862 134.355 163.938 134.047 165.262 134.047C166.787 134.047 167.937 134.435 168.713 135.211C169.502 135.973 169.896 137.07 169.896 138.501V142.392C169.896 142.673 169.943 142.867 170.037 142.974C170.144 143.081 170.297 143.134 170.498 143.134H170.839V145C170.759 145.027 170.625 145.047 170.438 145.06C170.264 145.074 170.083 145.08 169.896 145.08C169.455 145.08 169.06 145.013 168.713 144.88C168.365 144.733 168.097 144.485 167.91 144.137C167.723 143.776 167.629 143.288 167.629 142.673L167.85 142.834C167.743 143.302 167.509 143.723 167.148 144.097C166.8 144.458 166.359 144.739 165.824 144.94C165.289 145.14 164.687 145.241 164.019 145.241ZM164.54 143.375C165.115 143.375 165.61 143.261 166.025 143.034C166.439 142.807 166.76 142.492 166.987 142.091C167.215 141.69 167.328 141.215 167.328 140.667V140.065L164.56 140.627C163.985 140.747 163.571 140.928 163.316 141.169C163.076 141.396 162.955 141.697 162.955 142.071C162.955 142.486 163.089 142.807 163.357 143.034C163.637 143.261 164.032 143.375 164.54 143.375ZM174.516 145C173.741 145 173.119 144.799 172.651 144.398C172.183 143.997 171.949 143.355 171.949 142.472V130.757H174.516V142.212C174.516 142.479 174.583 142.68 174.717 142.813C174.864 142.947 175.065 143.014 175.319 143.014H176.101V145H174.516ZM184.952 145.241C183.828 145.241 182.926 144.987 182.243 144.478C181.561 143.957 181.22 143.235 181.22 142.312C181.22 141.389 181.508 140.667 182.083 140.145C182.658 139.624 183.534 139.249 184.711 139.022L188.262 138.32C188.262 137.558 188.088 136.989 187.74 136.615C187.392 136.227 186.877 136.033 186.195 136.033C185.58 136.033 185.092 136.18 184.731 136.474C184.383 136.755 184.142 137.163 184.009 137.698L181.401 137.578C181.615 136.441 182.136 135.572 182.966 134.97C183.795 134.355 184.871 134.047 186.195 134.047C187.72 134.047 188.87 134.435 189.646 135.211C190.435 135.973 190.829 137.07 190.829 138.501V142.392C190.829 142.673 190.876 142.867 190.97 142.974C191.077 143.081 191.23 143.134 191.431 143.134H191.772V145C191.692 145.027 191.558 145.047 191.371 145.06C191.197 145.074 191.016 145.08 190.829 145.08C190.388 145.08 189.993 145.013 189.646 144.88C189.298 144.733 189.03 144.485 188.843 144.137C188.656 143.776 188.562 143.288 188.562 142.673L188.783 142.834C188.676 143.302 188.442 143.723 188.081 144.097C187.733 144.458 187.292 144.739 186.757 144.94C186.222 145.14 185.62 145.241 184.952 145.241ZM185.473 143.375C186.048 143.375 186.543 143.261 186.958 143.034C187.372 142.807 187.693 142.492 187.92 142.091C188.148 141.69 188.262 141.215 188.262 140.667V140.065L185.493 140.627C184.918 140.747 184.504 140.928 184.249 141.169C184.009 141.396 183.888 141.697 183.888 142.071C183.888 142.486 184.022 142.807 184.29 143.034C184.57 143.261 184.965 143.375 185.473 143.375ZM197.417 145V134.288H199.824L199.925 137.257L199.704 137.217C199.864 136.187 200.165 135.445 200.607 134.99C201.061 134.522 201.676 134.288 202.452 134.288H203.435V136.495H202.432C201.884 136.495 201.429 136.575 201.068 136.735C200.707 136.896 200.433 137.15 200.246 137.498C200.072 137.832 199.985 138.273 199.985 138.821V145H197.417ZM209.055 145.241C207.985 145.241 207.055 145.013 206.266 144.559C205.477 144.091 204.869 143.435 204.441 142.593C204.013 141.75 203.799 140.767 203.799 139.644C203.799 138.521 204.013 137.544 204.441 136.715C204.869 135.873 205.471 135.217 206.246 134.749C207.035 134.281 207.951 134.047 208.995 134.047C210.011 134.047 210.9 134.275 211.663 134.729C212.438 135.184 213.033 135.839 213.448 136.695C213.862 137.551 214.07 138.581 214.07 139.784V140.366H206.467C206.52 141.302 206.775 142.011 207.229 142.492C207.697 142.961 208.313 143.195 209.075 143.195C209.65 143.195 210.125 143.068 210.499 142.813C210.887 142.546 211.154 142.178 211.301 141.71L213.929 141.871C213.635 142.914 213.053 143.736 212.184 144.338C211.328 144.94 210.285 145.241 209.055 145.241ZM206.467 138.641H211.422C211.368 137.772 211.121 137.13 210.68 136.715C210.238 136.287 209.677 136.073 208.995 136.073C208.313 136.073 207.744 136.294 207.289 136.735C206.848 137.177 206.574 137.812 206.467 138.641ZM220.33 145.241C219.26 145.241 218.33 145.013 217.541 144.559C216.752 144.091 216.137 143.435 215.696 142.593C215.268 141.75 215.054 140.767 215.054 139.644C215.054 138.521 215.268 137.544 215.696 136.715C216.137 135.873 216.752 135.217 217.541 134.749C218.33 134.281 219.26 134.047 220.33 134.047C221.239 134.047 222.048 134.208 222.757 134.529C223.466 134.85 224.041 135.311 224.482 135.913C224.937 136.501 225.218 137.223 225.325 138.079L222.677 138.22C222.57 137.538 222.302 137.023 221.874 136.675C221.46 136.314 220.945 136.133 220.33 136.133C219.5 136.133 218.859 136.448 218.404 137.076C217.949 137.691 217.722 138.547 217.722 139.644C217.722 140.754 217.949 141.617 218.404 142.232C218.859 142.847 219.5 143.154 220.33 143.154C220.958 143.154 221.48 142.974 221.894 142.613C222.322 142.252 222.583 141.69 222.677 140.928L225.325 141.048C225.218 141.904 224.943 142.646 224.502 143.275C224.061 143.903 223.486 144.392 222.777 144.739C222.068 145.074 221.252 145.241 220.33 145.241ZM231.349 145.241C230.279 145.241 229.35 145.013 228.561 144.559C227.772 144.091 227.163 143.435 226.735 142.593C226.307 141.75 226.093 140.767 226.093 139.644C226.093 138.521 226.307 137.544 226.735 136.715C227.163 135.873 227.765 135.217 228.54 134.749C229.33 134.281 230.246 134.047 231.289 134.047C232.305 134.047 233.194 134.275 233.957 134.729C234.732 135.184 235.327 135.839 235.742 136.695C236.157 137.551 236.364 138.581 236.364 139.784V140.366H228.761C228.815 141.302 229.069 142.011 229.523 142.492C229.991 142.961 230.607 143.195 231.369 143.195C231.944 143.195 232.419 143.068 232.793 142.813C233.181 142.546 233.449 142.178 233.596 141.71L236.223 141.871C235.929 142.914 235.348 143.736 234.478 144.338C233.622 144.94 232.579 145.241 231.349 145.241ZM228.761 138.641H233.716C233.662 137.772 233.415 137.13 232.974 136.715C232.532 136.287 231.971 136.073 231.289 136.073C230.607 136.073 230.038 136.294 229.584 136.735C229.142 137.177 228.868 137.812 228.761 138.641ZM243.727 145.241C242.978 145.241 242.323 145.08 241.761 144.759C241.213 144.438 240.785 143.99 240.477 143.415L240.417 145H237.97V130.757H240.538V135.812C240.832 135.318 241.253 134.903 241.801 134.569C242.35 134.221 242.992 134.047 243.727 134.047C244.65 134.047 245.446 134.281 246.114 134.749C246.796 135.204 247.318 135.853 247.679 136.695C248.053 137.524 248.241 138.507 248.241 139.644C248.241 140.781 248.053 141.77 247.679 142.613C247.318 143.442 246.796 144.091 246.114 144.559C245.446 145.013 244.65 145.241 243.727 145.241ZM243.145 143.154C243.881 143.154 244.469 142.847 244.911 142.232C245.352 141.603 245.573 140.741 245.573 139.644C245.573 138.534 245.352 137.671 244.911 137.056C244.483 136.441 243.901 136.133 243.165 136.133C242.617 136.133 242.142 136.274 241.741 136.555C241.353 136.822 241.052 137.217 240.838 137.738C240.638 138.26 240.538 138.895 240.538 139.644C240.538 140.366 240.638 140.995 240.838 141.53C241.052 142.051 241.353 142.452 241.741 142.733C242.129 143.014 242.597 143.154 243.145 143.154ZM254.466 145.241C253.396 145.241 252.466 145.013 251.677 144.559C250.888 144.091 250.28 143.435 249.852 142.593C249.424 141.75 249.21 140.767 249.21 139.644C249.21 138.521 249.424 137.544 249.852 136.715C250.28 135.873 250.882 135.217 251.657 134.749C252.446 134.281 253.363 134.047 254.406 134.047C255.422 134.047 256.311 134.275 257.074 134.729C257.849 135.184 258.444 135.839 258.859 136.695C259.274 137.551 259.481 138.581 259.481 139.784V140.366H251.878C251.932 141.302 252.186 142.011 252.64 142.492C253.108 142.961 253.724 143.195 254.486 143.195C255.061 143.195 255.536 143.068 255.91 142.813C256.298 142.546 256.565 142.178 256.713 141.71L259.34 141.871C259.046 142.914 258.464 143.736 257.595 144.338C256.739 144.94 255.696 145.241 254.466 145.241ZM251.878 138.641H256.833C256.779 137.772 256.532 137.13 256.091 136.715C255.649 136.287 255.088 136.073 254.406 136.073C253.724 136.073 253.155 136.294 252.701 136.735C252.259 137.177 251.985 137.812 251.878 138.641ZM261.087 145V134.288H263.494L263.594 137.257L263.374 137.217C263.534 136.187 263.835 135.445 264.276 134.99C264.731 134.522 265.346 134.288 266.122 134.288H267.105V136.495H266.102C265.553 136.495 265.099 136.575 264.738 136.735C264.377 136.896 264.102 137.15 263.915 137.498C263.741 137.832 263.654 138.273 263.654 138.821V145H261.087Z" fill="#7C7C7C"/>
<rect x="131.146" y="267.153" width="329" height="12.4151" rx="6.20755" fill="#5352ED"/>
<rect x="131.146" y="267.153" width="241.318" height="12.4151" rx="6.20755" fill="#5352ED"/>
<path d="M132.288 299.568V290.754H135.454C136.439 290.754 137.205 290.99 137.751 291.461C138.297 291.933 138.57 292.587 138.57 293.423C138.57 293.986 138.446 294.474 138.198 294.888C137.949 295.293 137.594 295.604 137.13 295.819C136.667 296.034 136.108 296.142 135.454 296.142H133.356V299.568H132.288ZM133.356 295.099H135.454C136.116 295.099 136.613 294.958 136.944 294.677C137.283 294.395 137.453 293.977 137.453 293.423C137.453 292.885 137.283 292.479 136.944 292.206C136.613 291.933 136.116 291.797 135.454 291.797H133.356V295.099ZM139.844 299.568V292.988H140.763L140.813 294.652L140.713 294.615C140.796 294.052 140.974 293.642 141.247 293.386C141.529 293.121 141.901 292.988 142.365 292.988H143.01V293.982H142.377C142.046 293.982 141.769 294.044 141.545 294.168C141.33 294.284 141.164 294.462 141.049 294.702C140.941 294.933 140.887 295.231 140.887 295.596V299.568H139.844ZM146.373 299.717C145.769 299.717 145.239 299.577 144.784 299.295C144.329 299.014 143.977 298.617 143.729 298.103C143.48 297.582 143.356 296.974 143.356 296.278C143.356 295.575 143.48 294.966 143.729 294.453C143.977 293.94 144.329 293.543 144.784 293.261C145.239 292.98 145.769 292.839 146.373 292.839C146.977 292.839 147.503 292.98 147.95 293.261C148.405 293.543 148.757 293.94 149.005 294.453C149.253 294.966 149.377 295.575 149.377 296.278C149.377 296.974 149.253 297.582 149.005 298.103C148.757 298.617 148.405 299.014 147.95 299.295C147.503 299.577 146.977 299.717 146.373 299.717ZM146.373 298.724C146.977 298.724 147.445 298.509 147.776 298.079C148.115 297.64 148.285 297.04 148.285 296.278C148.285 295.517 148.115 294.921 147.776 294.491C147.445 294.052 146.977 293.833 146.373 293.833C145.769 293.833 145.297 294.052 144.958 294.491C144.618 294.921 144.449 295.517 144.449 296.278C144.449 297.04 144.618 297.64 144.958 298.079C145.297 298.509 145.769 298.724 146.373 298.724ZM153.046 301.58C152.574 301.58 152.148 301.501 151.767 301.344C151.386 301.186 151.068 300.963 150.811 300.673C150.555 300.384 150.381 300.048 150.29 299.668L151.382 299.593C151.482 299.899 151.655 300.139 151.904 300.313C152.16 300.495 152.541 300.586 153.046 300.586C153.642 300.586 154.097 300.466 154.411 300.226C154.734 299.986 154.896 299.626 154.896 299.146V298.079C154.738 298.426 154.486 298.703 154.138 298.91C153.791 299.117 153.402 299.221 152.971 299.221C152.417 299.221 151.92 299.084 151.482 298.811C151.051 298.538 150.712 298.161 150.463 297.681C150.223 297.201 150.103 296.651 150.103 296.03C150.103 295.401 150.223 294.851 150.463 294.379C150.704 293.899 151.035 293.522 151.457 293.249C151.887 292.976 152.375 292.839 152.922 292.839C153.385 292.839 153.799 292.947 154.163 293.162C154.536 293.377 154.796 293.667 154.945 294.031V292.988H155.939V299.121C155.939 299.635 155.823 300.073 155.591 300.437C155.359 300.81 155.028 301.091 154.598 301.282C154.167 301.48 153.65 301.58 153.046 301.58ZM153.021 298.228C153.584 298.228 154.035 298.033 154.374 297.644C154.714 297.247 154.887 296.709 154.896 296.03C154.904 295.575 154.829 295.186 154.672 294.863C154.523 294.532 154.304 294.28 154.014 294.106C153.733 293.924 153.402 293.833 153.021 293.833C152.442 293.833 151.991 294.031 151.668 294.429C151.353 294.818 151.196 295.351 151.196 296.03C151.196 296.709 151.357 297.247 151.68 297.644C152.011 298.033 152.458 298.228 153.021 298.228ZM157.674 299.568V292.988H158.592L158.642 294.652L158.543 294.615C158.625 294.052 158.803 293.642 159.076 293.386C159.358 293.121 159.73 292.988 160.194 292.988H160.839V293.982H160.206C159.875 293.982 159.598 294.044 159.374 294.168C159.159 294.284 158.994 294.462 158.878 294.702C158.77 294.933 158.716 295.231 158.716 295.596V299.568H157.674ZM164.202 299.717C163.581 299.717 163.044 299.577 162.588 299.295C162.141 299.014 161.794 298.617 161.545 298.103C161.305 297.582 161.185 296.974 161.185 296.278C161.185 295.583 161.305 294.979 161.545 294.466C161.794 293.953 162.137 293.555 162.576 293.274C163.023 292.984 163.548 292.839 164.153 292.839C164.724 292.839 165.229 292.976 165.667 293.249C166.106 293.514 166.445 293.903 166.685 294.416C166.934 294.929 167.058 295.554 167.058 296.291V296.601H162.278C162.319 297.305 162.506 297.834 162.837 298.19C163.176 298.546 163.631 298.724 164.202 298.724C164.633 298.724 164.984 298.625 165.258 298.426C165.539 298.219 165.733 297.95 165.841 297.619L166.958 297.706C166.785 298.294 166.454 298.778 165.965 299.159C165.485 299.531 164.897 299.717 164.202 299.717ZM162.278 295.682H165.916C165.866 295.045 165.68 294.577 165.357 294.28C165.042 293.982 164.641 293.833 164.153 293.833C163.648 293.833 163.23 293.99 162.899 294.304C162.576 294.611 162.369 295.07 162.278 295.682ZM170.618 299.717C170.03 299.717 169.53 299.622 169.116 299.432C168.71 299.241 168.392 298.981 168.16 298.65C167.936 298.31 167.808 297.925 167.775 297.495L168.868 297.421C168.934 297.818 169.103 298.136 169.377 298.377C169.65 298.608 170.064 298.724 170.618 298.724C171.065 298.724 171.421 298.654 171.686 298.513C171.959 298.364 172.096 298.128 172.096 297.805C172.096 297.632 172.054 297.487 171.971 297.371C171.889 297.255 171.727 297.156 171.487 297.073C171.247 296.982 170.891 296.895 170.419 296.812C169.79 296.696 169.294 296.556 168.93 296.39C168.574 296.216 168.317 296.005 168.16 295.757C168.011 295.5 167.936 295.198 167.936 294.851C167.936 294.263 168.152 293.783 168.582 293.41C169.012 293.03 169.625 292.839 170.419 292.839C170.957 292.839 171.409 292.939 171.773 293.137C172.145 293.328 172.435 293.584 172.642 293.907C172.857 294.222 172.998 294.569 173.064 294.95L171.971 295.024C171.922 294.793 171.831 294.59 171.698 294.416C171.566 294.234 171.392 294.093 171.177 293.994C170.962 293.886 170.705 293.833 170.407 293.833C169.935 293.833 169.588 293.924 169.364 294.106C169.141 294.288 169.029 294.52 169.029 294.801C169.029 295.016 169.079 295.194 169.178 295.335C169.286 295.467 169.455 295.579 169.687 295.67C169.919 295.753 170.229 295.827 170.618 295.893C171.289 296.009 171.81 296.15 172.182 296.316C172.555 296.481 172.816 296.684 172.965 296.924C173.114 297.164 173.188 297.458 173.188 297.805C173.188 298.211 173.072 298.559 172.84 298.848C172.617 299.13 172.311 299.345 171.922 299.494C171.541 299.643 171.106 299.717 170.618 299.717ZM176.759 299.717C176.172 299.717 175.671 299.622 175.257 299.432C174.851 299.241 174.533 298.981 174.301 298.65C174.078 298.31 173.949 297.925 173.916 297.495L175.009 297.421C175.075 297.818 175.245 298.136 175.518 298.377C175.791 298.608 176.205 298.724 176.759 298.724C177.206 298.724 177.562 298.654 177.827 298.513C178.1 298.364 178.237 298.128 178.237 297.805C178.237 297.632 178.195 297.487 178.112 297.371C178.03 297.255 177.868 297.156 177.628 297.073C177.388 296.982 177.032 296.895 176.561 296.812C175.932 296.696 175.435 296.556 175.071 296.39C174.715 296.216 174.458 296.005 174.301 295.757C174.152 295.5 174.078 295.198 174.078 294.851C174.078 294.263 174.293 293.783 174.723 293.41C175.154 293.03 175.766 292.839 176.561 292.839C177.099 292.839 177.55 292.939 177.914 293.137C178.286 293.328 178.576 293.584 178.783 293.907C178.998 294.222 179.139 294.569 179.205 294.95L178.112 295.024C178.063 294.793 177.972 294.59 177.839 294.416C177.707 294.234 177.533 294.093 177.318 293.994C177.103 293.886 176.846 293.833 176.548 293.833C176.076 293.833 175.729 293.924 175.505 294.106C175.282 294.288 175.17 294.52 175.17 294.801C175.17 295.016 175.22 295.194 175.319 295.335C175.427 295.467 175.596 295.579 175.828 295.67C176.06 295.753 176.37 295.827 176.759 295.893C177.43 296.009 177.951 296.15 178.324 296.316C178.696 296.481 178.957 296.684 179.106 296.924C179.255 297.164 179.329 297.458 179.329 297.805C179.329 298.211 179.213 298.559 178.982 298.848C178.758 299.13 178.452 299.345 178.063 299.494C177.682 299.643 177.248 299.717 176.759 299.717ZM183.074 299.717C182.47 299.717 181.94 299.577 181.485 299.295C181.03 299.014 180.678 298.617 180.43 298.103C180.181 297.582 180.057 296.974 180.057 296.278C180.057 295.575 180.181 294.966 180.43 294.453C180.678 293.94 181.03 293.543 181.485 293.261C181.94 292.98 182.47 292.839 183.074 292.839C183.678 292.839 184.204 292.98 184.651 293.261C185.106 293.543 185.458 293.94 185.706 294.453C185.954 294.966 186.079 295.575 186.079 296.278C186.079 296.974 185.954 297.582 185.706 298.103C185.458 298.617 185.106 299.014 184.651 299.295C184.204 299.577 183.678 299.717 183.074 299.717ZM183.074 298.724C183.678 298.724 184.146 298.509 184.477 298.079C184.816 297.64 184.986 297.04 184.986 296.278C184.986 295.517 184.816 294.921 184.477 294.491C184.146 294.052 183.678 293.833 183.074 293.833C182.47 293.833 181.998 294.052 181.659 294.491C181.319 294.921 181.15 295.517 181.15 296.278C181.15 297.04 181.319 297.64 181.659 298.079C181.998 298.509 182.47 298.724 183.074 298.724ZM192.562 299.717C191.991 299.717 191.495 299.577 191.072 299.295C190.659 299.014 190.34 298.617 190.117 298.103C189.893 297.59 189.781 296.982 189.781 296.278C189.781 295.575 189.893 294.966 190.117 294.453C190.34 293.94 190.659 293.543 191.072 293.261C191.495 292.98 191.991 292.839 192.562 292.839C193.001 292.839 193.402 292.935 193.767 293.125C194.131 293.307 194.404 293.568 194.586 293.907V290.754H195.629V299.568H194.685L194.648 298.575C194.466 298.931 194.189 299.212 193.816 299.419C193.444 299.618 193.026 299.717 192.562 299.717ZM192.773 298.724C193.162 298.724 193.489 298.625 193.754 298.426C194.027 298.228 194.234 297.946 194.375 297.582C194.516 297.209 194.586 296.775 194.586 296.278C194.586 295.765 194.516 295.327 194.375 294.962C194.234 294.598 194.027 294.321 193.754 294.131C193.489 293.932 193.162 293.833 192.773 293.833C192.194 293.833 191.73 294.052 191.383 294.491C191.044 294.921 190.874 295.517 190.874 296.278C190.874 297.032 191.044 297.627 191.383 298.066C191.73 298.505 192.194 298.724 192.773 298.724ZM199.018 299.717C198.339 299.717 197.797 299.56 197.391 299.246C196.994 298.931 196.795 298.492 196.795 297.93C196.795 297.367 196.961 296.924 197.292 296.601C197.623 296.278 198.149 296.051 198.869 295.918L201.203 295.484C201.203 294.929 201.07 294.515 200.805 294.242C200.549 293.969 200.16 293.833 199.638 293.833C199.183 293.833 198.823 293.936 198.558 294.143C198.293 294.342 198.111 294.631 198.012 295.012L196.907 294.925C197.031 294.304 197.329 293.804 197.801 293.423C198.281 293.034 198.894 292.839 199.638 292.839C200.483 292.839 201.128 293.079 201.575 293.559C202.022 294.031 202.246 294.685 202.246 295.521V298.24C202.246 298.389 202.27 298.497 202.32 298.563C202.378 298.621 202.469 298.65 202.593 298.65H202.854V299.568C202.821 299.577 202.767 299.581 202.693 299.581C202.618 299.589 202.539 299.593 202.457 299.593C202.159 299.593 201.915 299.548 201.724 299.457C201.542 299.357 201.41 299.208 201.327 299.01C201.244 298.803 201.203 298.534 201.203 298.203L201.327 298.228C201.269 298.509 201.128 298.766 200.905 298.997C200.681 299.221 200.404 299.399 200.073 299.531C199.742 299.655 199.39 299.717 199.018 299.717ZM199.117 298.799C199.556 298.799 199.928 298.716 200.234 298.55C200.549 298.377 200.789 298.145 200.954 297.855C201.12 297.557 201.203 297.226 201.203 296.862V296.39L199.067 296.787C198.62 296.87 198.31 296.998 198.136 297.172C197.971 297.338 197.888 297.557 197.888 297.83C197.888 298.136 197.995 298.377 198.211 298.55C198.434 298.716 198.736 298.799 199.117 298.799ZM206.687 299.568V292.988H207.643L207.681 294.652L207.532 294.602C207.606 294.238 207.734 293.928 207.917 293.671C208.107 293.406 208.339 293.204 208.612 293.063C208.885 292.914 209.187 292.839 209.518 292.839C210.089 292.839 210.553 292.997 210.909 293.311C211.273 293.626 211.5 294.064 211.591 294.627L211.393 294.615C211.459 294.234 211.579 293.915 211.753 293.659C211.935 293.394 212.167 293.191 212.448 293.05C212.729 292.91 213.052 292.839 213.416 292.839C213.888 292.839 214.286 292.939 214.608 293.137C214.931 293.328 215.175 293.609 215.341 293.982C215.506 294.354 215.589 294.805 215.589 295.335V299.568H214.546V295.558C214.546 294.962 214.43 294.515 214.199 294.217C213.967 293.911 213.623 293.758 213.168 293.758C212.862 293.758 212.593 293.833 212.361 293.982C212.138 294.131 211.964 294.346 211.84 294.627C211.716 294.9 211.654 295.235 211.654 295.633V299.568H210.611V295.633C210.611 295.045 210.507 294.586 210.3 294.255C210.093 293.924 209.746 293.758 209.257 293.758C208.951 293.758 208.682 293.833 208.45 293.982C208.227 294.131 208.049 294.346 207.917 294.627C207.792 294.909 207.73 295.244 207.73 295.633V299.568H206.687ZM219.751 299.717C219.13 299.717 218.592 299.577 218.137 299.295C217.69 299.014 217.343 298.617 217.094 298.103C216.854 297.582 216.734 296.974 216.734 296.278C216.734 295.583 216.854 294.979 217.094 294.466C217.343 293.953 217.686 293.555 218.125 293.274C218.572 292.984 219.097 292.839 219.701 292.839C220.273 292.839 220.777 292.976 221.216 293.249C221.655 293.514 221.994 293.903 222.234 294.416C222.482 294.929 222.607 295.554 222.607 296.291V296.601H217.827C217.868 297.305 218.054 297.834 218.385 298.19C218.725 298.546 219.18 298.724 219.751 298.724C220.181 298.724 220.533 298.625 220.806 298.426C221.088 298.219 221.282 297.95 221.39 297.619L222.507 297.706C222.333 298.294 222.002 298.778 221.514 299.159C221.034 299.531 220.446 299.717 219.751 299.717ZM217.827 295.682H221.464C221.415 295.045 221.228 294.577 220.906 294.28C220.591 293.982 220.19 293.833 219.701 293.833C219.197 293.833 218.779 293.99 218.447 294.304C218.125 294.611 217.918 295.07 217.827 295.682ZM225.925 299.568C225.329 299.568 224.886 299.432 224.596 299.159C224.315 298.886 224.174 298.459 224.174 297.88V291.449H225.217V297.855C225.217 298.153 225.283 298.36 225.416 298.476C225.548 298.592 225.751 298.65 226.024 298.65H226.968V299.568H225.925ZM223.206 293.907V292.988H226.968V293.907H223.206ZM229.784 299.717C229.105 299.717 228.563 299.56 228.157 299.246C227.76 298.931 227.562 298.492 227.562 297.93C227.562 297.367 227.727 296.924 228.058 296.601C228.389 296.278 228.915 296.051 229.635 295.918L231.969 295.484C231.969 294.929 231.836 294.515 231.572 294.242C231.315 293.969 230.926 293.833 230.405 293.833C229.949 293.833 229.589 293.936 229.324 294.143C229.06 294.342 228.878 294.631 228.778 295.012L227.673 294.925C227.797 294.304 228.095 293.804 228.567 293.423C229.047 293.034 229.66 292.839 230.405 292.839C231.249 292.839 231.894 293.079 232.341 293.559C232.788 294.031 233.012 294.685 233.012 295.521V298.24C233.012 298.389 233.037 298.497 233.086 298.563C233.144 298.621 233.235 298.65 233.359 298.65H233.62V299.568C233.587 299.577 233.533 299.581 233.459 299.581C233.384 299.589 233.306 299.593 233.223 299.593C232.925 299.593 232.681 299.548 232.49 299.457C232.308 299.357 232.176 299.208 232.093 299.01C232.01 298.803 231.969 298.534 231.969 298.203L232.093 298.228C232.035 298.509 231.894 298.766 231.671 298.997C231.447 299.221 231.17 299.399 230.839 299.531C230.508 299.655 230.156 299.717 229.784 299.717ZM229.883 298.799C230.322 298.799 230.694 298.716 231.001 298.55C231.315 298.377 231.555 298.145 231.721 297.855C231.886 297.557 231.969 297.226 231.969 296.862V296.39L229.833 296.787C229.387 296.87 229.076 296.998 228.902 297.172C228.737 297.338 228.654 297.557 228.654 297.83C228.654 298.136 228.762 298.377 228.977 298.55C229.2 298.716 229.502 298.799 229.883 298.799Z" fill="#3D3D3D"/>
<path d="M430.505 299.568V293.522H428.618V292.293H429.375C429.731 292.293 430.017 292.248 430.232 292.157C430.447 292.066 430.6 291.908 430.691 291.685C430.79 291.453 430.84 291.143 430.84 290.754H432.119V299.568H430.505ZM437.285 299.767C436.54 299.767 435.89 299.581 435.335 299.208C434.789 298.836 434.367 298.306 434.069 297.619C433.771 296.932 433.622 296.117 433.622 295.173C433.622 294.23 433.771 293.415 434.069 292.728C434.367 292.032 434.789 291.499 435.335 291.126C435.89 290.745 436.54 290.555 437.285 290.555C438.046 290.555 438.7 290.745 439.246 291.126C439.792 291.499 440.215 292.028 440.512 292.715C440.81 293.402 440.959 294.222 440.959 295.173C440.959 296.117 440.81 296.932 440.512 297.619C440.215 298.306 439.792 298.836 439.246 299.208C438.7 299.581 438.046 299.767 437.285 299.767ZM437.285 298.364C437.93 298.364 438.427 298.095 438.774 297.557C439.122 297.011 439.296 296.216 439.296 295.173C439.296 294.478 439.217 293.891 439.06 293.41C438.903 292.93 438.675 292.57 438.377 292.33C438.087 292.082 437.723 291.958 437.285 291.958C436.862 291.958 436.502 292.082 436.204 292.33C435.906 292.57 435.679 292.93 435.522 293.41C435.364 293.891 435.286 294.478 435.286 295.173C435.286 296.216 435.46 297.011 435.807 297.557C436.155 298.095 436.647 298.364 437.285 298.364ZM445.56 299.767C444.815 299.767 444.165 299.581 443.61 299.208C443.064 298.836 442.642 298.306 442.344 297.619C442.046 296.932 441.897 296.117 441.897 295.173C441.897 294.23 442.046 293.415 442.344 292.728C442.642 292.032 443.064 291.499 443.61 291.126C444.165 290.745 444.815 290.555 445.56 290.555C446.321 290.555 446.975 290.745 447.521 291.126C448.067 291.499 448.489 292.028 448.787 292.715C449.085 293.402 449.234 294.222 449.234 295.173C449.234 296.117 449.085 296.932 448.787 297.619C448.489 298.306 448.067 298.836 447.521 299.208C446.975 299.581 446.321 299.767 445.56 299.767ZM445.56 298.364C446.205 298.364 446.702 298.095 447.049 297.557C447.397 297.011 447.571 296.216 447.571 295.173C447.571 294.478 447.492 293.891 447.335 293.41C447.178 292.93 446.95 292.57 446.652 292.33C446.362 292.082 445.998 291.958 445.56 291.958C445.137 291.958 444.777 292.082 444.479 292.33C444.181 292.57 443.954 292.93 443.797 293.41C443.639 293.891 443.561 294.478 443.561 295.173C443.561 296.216 443.735 297.011 444.082 297.557C444.43 298.095 444.922 298.364 445.56 298.364ZM452.072 295.024C451.492 295.024 451.012 294.842 450.631 294.478C450.251 294.114 450.06 293.568 450.06 292.839C450.06 292.111 450.251 291.565 450.631 291.201C451.012 290.836 451.492 290.654 452.072 290.654C452.659 290.654 453.139 290.836 453.512 291.201C453.892 291.565 454.083 292.111 454.083 292.839C454.083 293.568 453.892 294.114 453.512 294.478C453.139 294.842 452.659 295.024 452.072 295.024ZM452.072 294.131C452.361 294.131 452.576 294.023 452.717 293.808C452.866 293.584 452.941 293.261 452.941 292.839C452.941 292.417 452.866 292.099 452.717 291.883C452.576 291.66 452.361 291.548 452.072 291.548C451.79 291.548 451.575 291.66 451.426 291.883C451.277 292.099 451.202 292.417 451.202 292.839C451.202 293.261 451.277 293.584 451.426 293.808C451.575 294.023 451.79 294.131 452.072 294.131ZM457.236 299.668C456.657 299.668 456.177 299.486 455.796 299.121C455.415 298.757 455.225 298.211 455.225 297.483C455.225 296.754 455.415 296.208 455.796 295.844C456.177 295.48 456.657 295.298 457.236 295.298C457.824 295.298 458.304 295.48 458.676 295.844C459.049 296.208 459.235 296.754 459.235 297.483C459.235 298.211 459.049 298.757 458.676 299.121C458.304 299.486 457.824 299.668 457.236 299.668ZM457.236 298.774C457.526 298.774 457.741 298.666 457.882 298.451C458.031 298.228 458.105 297.905 458.105 297.483C458.105 297.061 458.031 296.742 457.882 296.527C457.741 296.303 457.526 296.191 457.236 296.191C456.955 296.191 456.74 296.303 456.591 296.527C456.442 296.742 456.367 297.061 456.367 297.483C456.367 297.905 456.442 298.228 456.591 298.451C456.74 298.666 456.955 298.774 457.236 298.774ZM451.14 299.568L457.075 290.754H458.167L452.233 299.568H451.14Z" fill="#292929"/>
<g opacity="0.6">
<g clip-path="url(#clip2_490_4548)">
<path d="M154.242 85.3017C154.08 85.2005 153.895 85.1422 153.704 85.1324C153.514 85.1226 153.323 85.1615 153.152 85.2454C149.263 87.1476 146.458 86.2495 143.489 85.2979C140.378 84.3023 136.853 83.1735 132.152 85.4723C131.963 85.5649 131.803 85.7088 131.691 85.8876C131.58 86.0665 131.521 86.2731 131.521 86.4838V97.7432C131.521 97.9342 131.569 98.1221 131.662 98.2891C131.754 98.4562 131.888 98.597 132.05 98.6982C132.212 98.7994 132.397 98.8577 132.588 98.8676C132.778 98.8775 132.968 98.8387 133.14 98.7548C137.029 96.8526 139.834 97.7507 142.803 98.7023C144.568 99.2648 146.467 99.8751 148.638 99.8751C150.293 99.8751 152.107 99.5217 154.14 98.5279C154.329 98.4353 154.489 98.2914 154.601 98.1126C154.712 97.9337 154.771 97.7271 154.771 97.5163V86.257C154.771 86.0659 154.723 85.878 154.63 85.7109C154.538 85.5437 154.404 85.4029 154.242 85.3017ZM152.521 96.7926C148.958 98.3076 146.295 97.4554 143.489 96.5573C141.724 95.9948 139.825 95.3835 137.654 95.3835C136.331 95.3859 135.018 95.6126 133.771 96.0538V87.2076C137.333 85.6926 139.997 86.5438 142.803 87.4429C145.546 88.3213 148.611 89.3029 152.521 87.9463V96.7926ZM143.146 89.0001C142.553 89.0001 141.973 89.176 141.479 89.5057C140.986 89.8353 140.601 90.3039 140.374 90.852C140.147 91.4002 140.088 92.0034 140.204 92.5854C140.319 93.1673 140.605 93.7019 141.025 94.1214C141.444 94.541 141.979 94.8267 142.561 94.9425C143.143 95.0582 143.746 94.9988 144.294 94.7717C144.842 94.5447 145.311 94.1602 145.64 93.6668C145.97 93.1735 146.146 92.5934 146.146 92.0001C146.145 91.2049 145.828 90.4427 145.266 89.8804C144.703 89.3181 143.941 89.0016 143.146 89.0001ZM143.146 92.7501C142.998 92.7501 142.853 92.7061 142.729 92.6237C142.606 92.5413 142.51 92.4242 142.453 92.2871C142.396 92.1501 142.381 91.9993 142.41 91.8538C142.439 91.7083 142.511 91.5747 142.616 91.4698C142.721 91.3649 142.854 91.2934 143 91.2645C143.145 91.2356 143.296 91.2504 143.433 91.3072C143.57 91.364 143.687 91.4601 143.77 91.5834C143.852 91.7068 143.896 91.8518 143.896 92.0001C143.896 92.199 143.817 92.3898 143.676 92.5304C143.536 92.6711 143.345 92.7501 143.146 92.7501ZM137.146 89.3751V93.1251C137.146 93.4235 137.027 93.7096 136.816 93.9206C136.606 94.1316 136.319 94.2501 136.021 94.2501C135.723 94.2501 135.436 94.1316 135.226 93.9206C135.015 93.7096 134.896 93.4235 134.896 93.1251V89.3751C134.896 89.0767 135.015 88.7906 135.226 88.5796C135.436 88.3686 135.723 88.2501 136.021 88.2501C136.319 88.2501 136.606 88.3686 136.816 88.5796C137.027 88.7906 137.146 89.0767 137.146 89.3751ZM149.146 94.6251V90.8751C149.146 90.5767 149.265 90.2906 149.476 90.0796C149.686 89.8686 149.973 89.7501 150.271 89.7501C150.569 89.7501 150.856 89.8686 151.066 90.0796C151.277 90.2906 151.396 90.5767 151.396 90.8751V94.6251C151.396 94.9235 151.277 95.2096 151.066 95.4206C150.856 95.6316 150.569 95.7501 150.271 95.7501C149.973 95.7501 149.686 95.6316 149.476 95.4206C149.265 95.2096 149.146 94.9235 149.146 94.6251Z" fill="#7C7C7C"/>
</g>
<path d="M167.77 98.788C166.618 98.788 165.604 98.524 164.728 97.996C163.852 97.456 163.168 96.688 162.676 95.692C162.184 94.696 161.938 93.508 161.938 92.128C161.938 90.76 162.178 89.578 162.658 88.582C163.15 87.574 163.834 86.8 164.71 86.26C165.586 85.708 166.612 85.432 167.788 85.432C169.372 85.432 170.602 85.828 171.478 86.62C172.354 87.412 172.924 88.51 173.188 89.914L171.154 90.022C170.986 89.146 170.626 88.462 170.074 87.97C169.522 87.466 168.76 87.214 167.788 87.214C167.008 87.214 166.33 87.412 165.754 87.808C165.19 88.204 164.746 88.768 164.422 89.5C164.11 90.232 163.954 91.108 163.954 92.128C163.954 93.148 164.11 94.024 164.422 94.756C164.746 95.488 165.196 96.046 165.772 96.43C166.348 96.814 167.014 97.006 167.77 97.006C168.802 97.006 169.6 96.736 170.164 96.196C170.74 95.644 171.1 94.888 171.244 93.928L173.278 94.036C173.122 95.008 172.81 95.848 172.342 96.556C171.874 97.264 171.256 97.816 170.488 98.212C169.72 98.596 168.814 98.788 167.77 98.788ZM180.728 98.788C179.492 98.788 178.43 98.524 177.542 97.996C176.654 97.456 175.97 96.688 175.49 95.692C175.01 94.696 174.77 93.508 174.77 92.128C174.77 90.748 175.01 89.56 175.49 88.564C175.97 87.556 176.654 86.782 177.542 86.242C178.43 85.702 179.492 85.432 180.728 85.432C181.976 85.432 183.044 85.702 183.932 86.242C184.832 86.782 185.516 87.556 185.984 88.564C186.464 89.56 186.704 90.748 186.704 92.128C186.704 93.508 186.464 94.696 185.984 95.692C185.516 96.688 184.832 97.456 183.932 97.996C183.044 98.524 181.976 98.788 180.728 98.788ZM180.728 97.006C181.556 97.006 182.264 96.814 182.852 96.43C183.452 96.046 183.908 95.494 184.22 94.774C184.532 94.042 184.688 93.16 184.688 92.128C184.688 91.096 184.532 90.214 184.22 89.482C183.908 88.75 183.452 88.192 182.852 87.808C182.264 87.412 181.556 87.214 180.728 87.214C179.912 87.214 179.21 87.412 178.622 87.808C178.034 88.192 177.578 88.75 177.254 89.482C176.942 90.214 176.786 91.096 176.786 92.128C176.786 93.16 176.942 94.042 177.254 94.774C177.578 95.494 178.034 96.046 178.622 96.43C179.21 96.814 179.912 97.006 180.728 97.006ZM188.78 98.5V85.72H191.246L197.15 96.142V85.72H199.094V98.5H196.538L190.724 88.312V98.5H188.78ZM204.134 98.5V87.502H200.21V85.72H210.002V87.502H206.078V98.5H204.134ZM211.298 98.5V85.72H216.392C217.304 85.72 218.09 85.876 218.75 86.188C219.41 86.5 219.92 86.944 220.28 87.52C220.64 88.096 220.82 88.78 220.82 89.572C220.82 90.148 220.688 90.664 220.424 91.12C220.172 91.576 219.83 91.942 219.398 92.218C218.978 92.482 218.528 92.632 218.048 92.668L217.958 92.506C218.762 92.506 219.386 92.692 219.83 93.064C220.274 93.424 220.532 93.994 220.604 94.774L220.946 98.5H218.984L218.678 95.026C218.642 94.51 218.468 94.132 218.156 93.892C217.844 93.64 217.334 93.514 216.626 93.514H213.242V98.5H211.298ZM213.242 91.732H216.428C217.16 91.732 217.736 91.552 218.156 91.192C218.588 90.82 218.804 90.298 218.804 89.626C218.804 88.942 218.588 88.42 218.156 88.06C217.724 87.688 217.094 87.502 216.266 87.502H213.242V91.732ZM228.47 98.788C227.234 98.788 226.172 98.524 225.284 97.996C224.396 97.456 223.712 96.688 223.232 95.692C222.752 94.696 222.512 93.508 222.512 92.128C222.512 90.748 222.752 89.56 223.232 88.564C223.712 87.556 224.396 86.782 225.284 86.242C226.172 85.702 227.234 85.432 228.47 85.432C229.718 85.432 230.786 85.702 231.674 86.242C232.574 86.782 233.258 87.556 233.726 88.564C234.206 89.56 234.446 90.748 234.446 92.128C234.446 93.508 234.206 94.696 233.726 95.692C233.258 96.688 232.574 97.456 231.674 97.996C230.786 98.524 229.718 98.788 228.47 98.788ZM228.47 97.006C229.298 97.006 230.006 96.814 230.594 96.43C231.194 96.046 231.65 95.494 231.962 94.774C232.274 94.042 232.43 93.16 232.43 92.128C232.43 91.096 232.274 90.214 231.962 89.482C231.65 88.75 231.194 88.192 230.594 87.808C230.006 87.412 229.298 87.214 228.47 87.214C227.654 87.214 226.952 87.412 226.364 87.808C225.776 88.192 225.32 88.75 224.996 89.482C224.684 90.214 224.528 91.096 224.528 92.128C224.528 93.16 224.684 94.042 224.996 94.774C225.32 95.494 225.776 96.046 226.364 96.43C226.952 96.814 227.654 97.006 228.47 97.006ZM236.592 98.5V85.72H238.536V97.78L237.51 96.718H244.764V98.5H236.592ZM246.296 98.5V85.72H254.612V87.502H248.24V91.228H254.396V92.956H248.24V96.718H254.756V98.5H246.296ZM261.641 98.5V85.72H269.939V87.502H262.559L263.585 86.44V92.308L262.559 91.39H269.615V93.118H262.559L263.585 92.2V98.5H261.641ZM272.03 98.5V85.72H273.974V98.5H272.03ZM276.758 98.5V85.72H279.224L285.128 96.142V85.72H287.072V98.5H284.516L278.702 88.312V98.5H276.758ZM288.807 98.5L293.415 85.72H295.881L300.489 98.5H298.419L297.249 95.17H292.029L290.877 98.5H288.807ZM292.641 93.406H296.655L294.639 87.574L292.641 93.406ZM302.018 98.5V85.72H304.484L310.388 96.142V85.72H312.332V98.5H309.776L303.962 88.312V98.5H302.018ZM320.243 98.788C319.091 98.788 318.077 98.524 317.201 97.996C316.325 97.456 315.641 96.688 315.149 95.692C314.657 94.696 314.411 93.508 314.411 92.128C314.411 90.76 314.651 89.578 315.131 88.582C315.623 87.574 316.307 86.8 317.183 86.26C318.059 85.708 319.085 85.432 320.261 85.432C321.845 85.432 323.075 85.828 323.951 86.62C324.827 87.412 325.397 88.51 325.661 89.914L323.627 90.022C323.459 89.146 323.099 88.462 322.547 87.97C321.995 87.466 321.233 87.214 320.261 87.214C319.481 87.214 318.803 87.412 318.227 87.808C317.663 88.204 317.219 88.768 316.895 89.5C316.583 90.232 316.427 91.108 316.427 92.128C316.427 93.148 316.583 94.024 316.895 94.756C317.219 95.488 317.669 96.046 318.245 96.43C318.821 96.814 319.487 97.006 320.243 97.006C321.275 97.006 322.073 96.736 322.637 96.196C323.213 95.644 323.573 94.888 323.717 93.928L325.751 94.036C325.595 95.008 325.283 95.848 324.815 96.556C324.347 97.264 323.729 97.816 322.961 98.212C322.193 98.596 321.287 98.788 320.243 98.788ZM327.946 98.5V85.72H336.262V87.502H329.89V91.228H336.046V92.956H329.89V96.718H336.406V98.5H327.946ZM338.774 98.5V85.72H340.718V98.5H338.774ZM343.503 98.5V85.72H348.597C349.509 85.72 350.295 85.876 350.955 86.188C351.615 86.5 352.125 86.944 352.485 87.52C352.845 88.096 353.025 88.78 353.025 89.572C353.025 90.148 352.893 90.664 352.629 91.12C352.377 91.576 352.035 91.942 351.603 92.218C351.183 92.482 350.733 92.632 350.253 92.668L350.163 92.506C350.967 92.506 351.591 92.692 352.035 93.064C352.479 93.424 352.737 93.994 352.809 94.774L353.151 98.5H351.189L350.883 95.026C350.847 94.51 350.673 94.132 350.361 93.892C350.049 93.64 349.539 93.514 348.831 93.514H345.447V98.5H343.503ZM345.447 91.732H348.633C349.365 91.732 349.941 91.552 350.361 91.192C350.793 90.82 351.009 90.298 351.009 89.626C351.009 88.942 350.793 88.42 350.361 88.06C349.929 87.688 349.299 87.502 348.471 87.502H345.447V91.732ZM360.675 98.788C359.439 98.788 358.377 98.524 357.489 97.996C356.601 97.456 355.917 96.688 355.437 95.692C354.957 94.696 354.717 93.508 354.717 92.128C354.717 90.748 354.957 89.56 355.437 88.564C355.917 87.556 356.601 86.782 357.489 86.242C358.377 85.702 359.439 85.432 360.675 85.432C361.923 85.432 362.991 85.702 363.879 86.242C364.779 86.782 365.463 87.556 365.931 88.564C366.411 89.56 366.651 90.748 366.651 92.128C366.651 93.508 366.411 94.696 365.931 95.692C365.463 96.688 364.779 97.456 363.879 97.996C362.991 98.524 361.923 98.788 360.675 98.788ZM360.675 97.006C361.503 97.006 362.211 96.814 362.799 96.43C363.399 96.046 363.855 95.494 364.167 94.774C364.479 94.042 364.635 93.16 364.635 92.128C364.635 91.096 364.479 90.214 364.167 89.482C363.855 88.75 363.399 88.192 362.799 87.808C362.211 87.412 361.503 87.214 360.675 87.214C359.859 87.214 359.157 87.412 358.569 87.808C357.981 88.192 357.525 88.75 357.201 89.482C356.889 90.214 356.733 91.096 356.733 92.128C356.733 93.16 356.889 94.042 357.201 94.774C357.525 95.494 357.981 96.046 358.569 96.43C359.157 96.814 359.859 97.006 360.675 97.006Z" fill="#7C7C7C"/>
</g>
</g>
</g>
<defs>
<filter id="filter0_dddd_490_4548" x="75.146" y="45" width="441.708" height="421.529" filterUnits="userSpaceOnUse" color-interpolation-filters="sRGB">
<feFlood flood-opacity="0" result="BackgroundImageFix"/>
<feColorMatrix in="SourceAlpha" type="matrix" values="0 0 0 0 0 0 0 0 0 0 0 0 0 0 0 0 0 0 127 0" result="hardAlpha"/>
<feOffset dy="5"/>
<feGaussianBlur stdDeviation="5"/>
<feColorMatrix type="matrix" values="0 0 0 0 0 0 0 0 0 0 0 0 0 0 0 0 0 0 0.05 0"/>
<feBlend mode="normal" in2="BackgroundImageFix" result="effect1_dropShadow_490_4548"/>
<feColorMatrix in="SourceAlpha" type="matrix" values="0 0 0 0 0 0 0 0 0 0 0 0 0 0 0 0 0 0 127 0" result="hardAlpha"/>
<feOffset dy="19"/>
<feGaussianBlur stdDeviation="9.5"/>
<feColorMatrix type="matrix" values="0 0 0 0 0 0 0 0 0 0 0 0 0 0 0 0 0 0 0.04 0"/>
<feBlend mode="normal" in2="effect1_dropShadow_490_4548" result="effect2_dropShadow_490_4548"/>
<feColorMatrix in="SourceAlpha" type="matrix" values="0 0 0 0 0 0 0 0 0 0 0 0 0 0 0 0 0 0 127 0" result="hardAlpha"/>
<feOffset dy="43"/>
<feGaussianBlur stdDeviation="13"/>
<feColorMatrix type="matrix" values="0 0 0 0 0 0 0 0 0 0 0 0 0 0 0 0 0 0 0.03 0"/>
<feBlend mode="normal" in2="effect2_dropShadow_490_4548" result="effect3_dropShadow_490_4548"/>
<feColorMatrix in="SourceAlpha" type="matrix" values="0 0 0 0 0 0 0 0 0 0 0 0 0 0 0 0 0 0 127 0" result="hardAlpha"/>
<feOffset dy="76"/>
<feGaussianBlur stdDeviation="15"/>
<feColorMatrix type="matrix" values="0 0 0 0 0 0 0 0 0 0 0 0 0 0 0 0 0 0 0.01 0"/>
<feBlend mode="normal" in2="effect3_dropShadow_490_4548" result="effect4_dropShadow_490_4548"/>
<feBlend mode="normal" in="SourceGraphic" in2="effect4_dropShadow_490_4548" result="shape"/>
</filter>
<clipPath id="clip0_490_4548">
<rect width="592" height="410" fill="white"/>
</clipPath>
<clipPath id="clip1_490_4548">
<rect width="21.8838" height="21.8838" fill="white" transform="translate(137.972 226.759)"/>
</clipPath>
<clipPath id="clip2_490_4548">
<rect width="24" height="24" fill="white" transform="translate(131.146 80)"/>
</clipPath>
</defs>
</svg>
