<svg width="592" height="410" viewBox="0 0 592 410" fill="none" xmlns="http://www.w3.org/2000/svg">
<g clip-path="url(#clip0_490_4586)">
<rect width="592" height="410" fill="#EFEFEF"/>
<g filter="url(#filter0_dddd_490_4586)">
<rect x="71.5" y="51.5" width="450" height="307" rx="23.5" fill="white" stroke="#DCDCDC"/>
<rect opacity="0.2" x="89" y="102" width="242" height="16" rx="8" fill="#BDBDBD"/>
<rect opacity="0.2" x="89" y="142" width="125" height="25" rx="12.5" fill="#BDBDBD"/>
<rect opacity="0.2" x="89" y="180" width="125" height="13" rx="6.5" fill="#BDBDBD"/>
<rect opacity="0.2" x="92" y="215" width="125" height="15" rx="7.5" fill="#BDBDBD"/>
<rect opacity="0.2" x="233" y="215" width="125" height="15" rx="7.5" fill="#BDBDBD"/>
<rect opacity="0.2" x="89" y="252" width="393" height="15" rx="7.5" fill="#BDBDBD"/>
<rect opacity="0.2" x="89" y="284" width="73" height="15" rx="7.5" fill="#BDBDBD"/>
</g>
<rect opacity="0.2" x="377" y="212" width="125" height="25" rx="12.5" fill="#BDBDBD"/>
<g filter="url(#filter1_dddd_490_4586)">
<rect x="286" y="40" width="237.013" height="47.2534" rx="23.6267" fill="#F9F0CC"/>
<path d="M314.627 72.6267V53.8069H327.297V56.8022H318.073V61.7059H326.979V64.6747H318.073V69.6314H327.51V72.6267H314.627ZM330.14 72.6267V58.4721H333.215L333.321 61.9445L333.003 61.7855C333.162 61.0256 333.436 60.3806 333.824 59.8505C334.231 59.3027 334.717 58.8874 335.282 58.6047C335.865 58.3042 336.502 58.154 337.191 58.154C338.392 58.154 339.364 58.4986 340.106 59.1878C340.849 59.8593 341.317 60.787 341.511 61.971H341.061C341.22 61.1405 341.494 60.4513 341.882 59.9035C342.271 59.338 342.757 58.9051 343.34 58.6047C343.941 58.3042 344.613 58.154 345.355 58.154C346.327 58.154 347.166 58.3661 347.873 58.7902C348.58 59.1966 349.119 59.7975 349.49 60.5927C349.879 61.3879 350.073 62.3686 350.073 63.5349V72.6267H346.68V64.4096C346.68 63.2433 346.477 62.3686 346.07 61.7855C345.682 61.2023 345.081 60.9107 344.268 60.9107C343.72 60.9107 343.252 61.0521 342.863 61.3348C342.474 61.6176 342.174 62.0329 341.962 62.5807C341.768 63.1108 341.67 63.7558 341.67 64.5157V72.6267H338.516V64.5157C338.516 63.3494 338.339 62.457 337.986 61.8385C337.632 61.22 337.023 60.9107 336.157 60.9107C335.609 60.9107 335.141 61.0521 334.752 61.3348C334.381 61.6176 334.081 62.0329 333.851 62.5807C333.639 63.1108 333.533 63.7558 333.533 64.5157V72.6267H330.14ZM363.086 72.9448C361.601 72.9448 360.409 72.609 359.507 71.9375C358.606 71.2484 358.156 70.2941 358.156 69.0748C358.156 67.8555 358.536 66.9013 359.295 66.2121C360.055 65.5229 361.213 65.0281 362.768 64.7277L367.459 63.8C367.459 62.7927 367.23 62.0417 366.77 61.5469C366.311 61.0344 365.631 60.7782 364.729 60.7782C363.916 60.7782 363.271 60.9726 362.794 61.3614C362.335 61.7324 362.017 62.2714 361.84 62.9783L358.394 62.8192C358.677 61.3172 359.366 60.1686 360.462 59.3734C361.557 58.5605 362.98 58.154 364.729 58.154C366.744 58.154 368.264 58.6665 369.288 59.6914C370.331 60.6987 370.852 62.1477 370.852 64.0385V69.1808C370.852 69.5519 370.914 69.8082 371.038 69.9495C371.179 70.0909 371.382 70.1616 371.648 70.1616H372.098V72.6267C371.992 72.6621 371.815 72.6886 371.568 72.7062C371.338 72.7239 371.1 72.7327 370.852 72.7327C370.269 72.7327 369.748 72.6444 369.288 72.4677C368.829 72.2733 368.476 71.9464 368.228 71.4869C367.981 71.0098 367.857 70.3648 367.857 69.5519L368.149 69.764C368.007 70.3825 367.698 70.9391 367.221 71.4339C366.761 71.911 366.178 72.2821 365.471 72.5472C364.765 72.8123 363.969 72.9448 363.086 72.9448ZM363.775 70.4797C364.535 70.4797 365.189 70.3295 365.737 70.0291C366.284 69.7286 366.708 69.3134 367.009 68.7832C367.309 68.2531 367.459 67.6258 367.459 66.9013V66.1061L363.802 66.8482C363.042 67.0073 362.494 67.2458 362.158 67.5639C361.84 67.8643 361.681 68.2619 361.681 68.7567C361.681 69.3045 361.858 69.7286 362.211 70.0291C362.582 70.3295 363.104 70.4797 363.775 70.4797ZM373.771 72.6267V58.4721H376.846L376.979 62.4481L376.581 62.2891C376.722 61.2995 377.014 60.5043 377.456 59.9035C377.898 59.3027 378.437 58.8609 379.073 58.5781C379.709 58.2954 380.407 58.154 381.167 58.154C382.209 58.154 383.084 58.3838 383.791 58.8432C384.515 59.3027 385.063 59.9388 385.434 60.7517C385.805 61.5469 385.991 62.4746 385.991 63.5349V72.6267H382.598V64.6217C382.598 63.8265 382.519 63.155 382.36 62.6072C382.201 62.0594 381.935 61.6441 381.564 61.3614C381.211 61.0609 380.734 60.9107 380.133 60.9107C379.232 60.9107 378.507 61.2288 377.959 61.865C377.429 62.5011 377.164 63.42 377.164 64.6217V72.6267H373.771ZM393.861 72.9448C392.659 72.9448 391.616 72.6444 390.733 72.0436C389.867 71.4427 389.195 70.5857 388.718 69.4724C388.241 68.3591 388.003 67.0515 388.003 65.5494C388.003 64.0474 388.241 62.7397 388.718 61.6264C389.195 60.5131 389.876 59.6561 390.759 59.0553C391.643 58.4545 392.677 58.154 393.861 58.154C394.85 58.154 395.716 58.3573 396.458 58.7637C397.218 59.1701 397.792 59.7444 398.181 60.4866V53.8069H401.574V72.6267H398.34L398.261 70.5327C397.872 71.2925 397.289 71.8845 396.511 72.3086C395.734 72.7327 394.85 72.9448 393.861 72.9448ZM394.894 70.1881C395.601 70.1881 396.193 70.0114 396.67 69.658C397.165 69.3045 397.536 68.7832 397.784 68.0941C398.049 67.3872 398.181 66.539 398.181 65.5494C398.181 64.5422 398.049 63.6939 397.784 63.0048C397.536 62.3156 397.165 61.7943 396.67 61.4409C396.193 61.0875 395.601 60.9107 394.894 60.9107C393.869 60.9107 393.048 61.326 392.429 62.1566C391.828 62.9694 391.528 64.1004 391.528 65.5494C391.528 66.9631 391.828 68.0941 392.429 68.9423C393.048 69.7728 393.869 70.1881 394.894 70.1881ZM408.607 72.9448C407.123 72.9448 405.93 72.609 405.029 71.9375C404.127 71.2484 403.677 70.2941 403.677 69.0748C403.677 67.8555 404.057 66.9013 404.817 66.2121C405.576 65.5229 406.734 65.0281 408.289 64.7277L412.981 63.8C412.981 62.7927 412.751 62.0417 412.291 61.5469C411.832 61.0344 411.152 60.7782 410.25 60.7782C409.438 60.7782 408.793 60.9726 408.315 61.3614C407.856 61.7324 407.538 62.2714 407.361 62.9783L403.915 62.8192C404.198 61.3172 404.887 60.1686 405.983 59.3734C407.078 58.5605 408.501 58.154 410.25 58.154C412.265 58.154 413.785 58.6665 414.81 59.6914C415.852 60.6987 416.373 62.1477 416.373 64.0385V69.1808C416.373 69.5519 416.435 69.8082 416.559 69.9495C416.7 70.0909 416.904 70.1616 417.169 70.1616H417.619V72.6267C417.513 72.6621 417.337 72.6886 417.089 72.7062C416.859 72.7239 416.621 72.7327 416.373 72.7327C415.79 72.7327 415.269 72.6444 414.81 72.4677C414.35 72.2733 413.997 71.9464 413.749 71.4869C413.502 71.0098 413.378 70.3648 413.378 69.5519L413.67 69.764C413.528 70.3825 413.219 70.9391 412.742 71.4339C412.283 71.911 411.699 72.2821 410.993 72.5472C410.286 72.8123 409.491 72.9448 408.607 72.9448ZM409.296 70.4797C410.056 70.4797 410.71 70.3295 411.258 70.0291C411.805 69.7286 412.23 69.3134 412.53 68.7832C412.83 68.2531 412.981 67.6258 412.981 66.9013V66.1061L409.323 66.8482C408.563 67.0073 408.015 67.2458 407.679 67.5639C407.361 67.8643 407.202 68.2619 407.202 68.7567C407.202 69.3045 407.379 69.7286 407.732 70.0291C408.103 70.3295 408.625 70.4797 409.296 70.4797ZM419.293 72.6267V58.4721H422.367L422.473 61.9445L422.155 61.7855C422.314 61.0256 422.588 60.3806 422.977 59.8505C423.383 59.3027 423.869 58.8874 424.435 58.6047C425.018 58.3042 425.654 58.154 426.343 58.154C427.545 58.154 428.517 58.4986 429.259 59.1878C430.001 59.8593 430.47 60.787 430.664 61.971H430.213C430.372 61.1405 430.646 60.4513 431.035 59.9035C431.424 59.338 431.91 58.9051 432.493 58.6047C433.094 58.3042 433.765 58.154 434.507 58.154C435.479 58.154 436.319 58.3661 437.026 58.7902C437.732 59.1966 438.271 59.7975 438.642 60.5927C439.031 61.3879 439.226 62.3686 439.226 63.5349V72.6267H435.833V64.4096C435.833 63.2433 435.63 62.3686 435.223 61.7855C434.834 61.2023 434.233 60.9107 433.421 60.9107C432.873 60.9107 432.405 61.0521 432.016 61.3348C431.627 61.6176 431.327 62.0329 431.115 62.5807C430.92 63.1108 430.823 63.7558 430.823 64.5157V72.6267H427.669V64.5157C427.669 63.3494 427.492 62.457 427.139 61.8385C426.785 61.22 426.175 60.9107 425.31 60.9107C424.762 60.9107 424.293 61.0521 423.905 61.3348C423.534 61.6176 423.233 62.0329 423.003 62.5807C422.791 63.1108 422.685 63.7558 422.685 64.5157V72.6267H419.293ZM448.182 72.9448C446.769 72.9448 445.541 72.6444 444.498 72.0436C443.455 71.4251 442.651 70.5592 442.086 69.4459C441.52 68.3326 441.238 67.0338 441.238 65.5494C441.238 64.065 441.52 62.775 442.086 61.6794C442.651 60.5662 443.447 59.7003 444.471 59.0818C445.514 58.4633 446.725 58.154 448.103 58.154C449.446 58.154 450.621 58.4545 451.628 59.0553C452.653 59.6561 453.44 60.522 453.987 61.6529C454.535 62.7839 454.809 64.1446 454.809 65.735V66.5037H444.763C444.834 67.7406 445.169 68.6772 445.77 69.3134C446.389 69.9319 447.202 70.2411 448.209 70.2411C448.969 70.2411 449.596 70.0732 450.091 69.7375C450.603 69.3841 450.957 68.8981 451.151 68.2796L454.624 68.4917C454.235 69.87 453.466 70.9568 452.317 71.752C451.186 72.5472 449.808 72.9448 448.182 72.9448ZM444.763 64.2241H451.31C451.239 63.0755 450.913 62.2272 450.329 61.6794C449.746 61.114 449.004 60.8312 448.103 60.8312C447.202 60.8312 446.451 61.1228 445.85 61.7059C445.267 62.2891 444.904 63.1285 444.763 64.2241ZM456.931 72.6267V58.4721H460.006L460.138 62.4481L459.741 62.2891C459.882 61.2995 460.174 60.5043 460.615 59.9035C461.057 59.3027 461.596 58.8609 462.232 58.5781C462.869 58.2954 463.567 58.154 464.326 58.154C465.369 58.154 466.244 58.3838 466.951 58.8432C467.675 59.3027 468.223 59.9388 468.594 60.7517C468.965 61.5469 469.151 62.4746 469.151 63.5349V72.6267H465.758V64.6217C465.758 63.8265 465.678 63.155 465.519 62.6072C465.36 62.0594 465.095 61.6441 464.724 61.3614C464.371 61.0609 463.893 60.9107 463.293 60.9107C462.391 60.9107 461.667 61.2288 461.119 61.865C460.589 62.5011 460.324 63.42 460.324 64.6217V72.6267H456.931ZM477.009 72.6267C475.596 72.6267 474.553 72.2998 473.881 71.646C473.228 70.9921 472.901 69.9672 472.901 68.5712V55.1588H476.294V68.2531C476.294 68.9069 476.435 69.3664 476.718 69.6314C477 69.8788 477.442 70.0025 478.043 70.0025H480.031V72.6267H477.009ZM470.674 61.0963V58.4721H480.031V61.0963H470.674ZM487.906 72.9448C486.51 72.9448 485.282 72.6444 484.221 72.0436C483.179 71.4251 482.366 70.5592 481.783 69.4459C481.217 68.3326 480.935 67.0338 480.935 65.5494C480.935 64.0474 481.217 62.7485 481.783 61.6529C482.366 60.5396 483.179 59.6826 484.221 59.0818C485.282 58.4633 486.51 58.154 487.906 58.154C489.302 58.154 490.521 58.4633 491.564 59.0818C492.606 59.6826 493.41 60.5396 493.976 61.6529C494.559 62.7485 494.851 64.0474 494.851 65.5494C494.851 67.0338 494.559 68.3326 493.976 69.4459C493.41 70.5592 492.606 71.4251 491.564 72.0436C490.521 72.6444 489.302 72.9448 487.906 72.9448ZM487.906 70.1881C489.001 70.1881 489.841 69.7817 490.424 68.9688C491.025 68.1559 491.325 67.0161 491.325 65.5494C491.325 64.1004 491.025 62.9694 490.424 62.1566C489.841 61.326 489.001 60.9107 487.906 60.9107C486.81 60.9107 485.962 61.326 485.361 62.1566C484.76 62.9694 484.46 64.1004 484.46 65.5494C484.46 67.0161 484.76 68.1559 485.361 68.9688C485.962 69.7817 486.81 70.1881 487.906 70.1881Z" fill="#DE9622"/>
</g>
<g filter="url(#filter2_dddd_490_4586)">
<rect x="40" y="127" width="183.013" height="47.2534" rx="23.6267" fill="#D7F1FF"/>
<path d="M75.7576 160.051C74.2378 160.051 72.9037 159.759 71.755 159.176C70.6241 158.593 69.7494 157.771 69.1309 156.711C68.5301 155.633 68.2297 154.361 68.2297 152.894V140.78H71.6755V152.894C71.6755 154.219 72.0289 155.244 72.7358 155.969C73.4426 156.693 74.4499 157.056 75.7576 157.056C77.0652 157.056 78.0725 156.693 78.7793 155.969C79.5038 155.244 79.8661 154.219 79.8661 152.894V140.78H83.312V152.894C83.312 154.361 83.0027 155.633 82.3842 156.711C81.7657 157.771 80.891 158.593 79.7601 159.176C78.6468 159.759 77.3126 160.051 75.7576 160.051ZM84.8552 159.627L91.1903 150.19L84.9082 140.807H88.9372L93.3108 147.566L97.5784 140.807H101.581L95.3253 150.137L101.66 159.627H97.6579L93.2578 152.761L88.8577 159.627H84.8552ZM113.23 159.627L108.194 140.807H111.825L115.271 154.855L118.744 140.807H121.951L125.423 154.855L128.843 140.807H132.501L127.464 159.627H123.647L120.36 146.744L117.074 159.627H113.23ZM133.803 159.627V145.472H136.984L137.116 149.395L136.824 149.342C137.037 147.981 137.434 147.001 138.017 146.4C138.618 145.781 139.431 145.472 140.456 145.472H141.755V148.388H140.429C139.705 148.388 139.104 148.494 138.627 148.706C138.15 148.918 137.788 149.254 137.54 149.713C137.31 150.155 137.196 150.738 137.196 151.463V159.627H133.803ZM143.42 159.627V145.472H146.813V159.627H143.42ZM143.367 143.59V140.568H146.892V143.59H143.367ZM154.8 159.627C153.387 159.627 152.344 159.3 151.673 158.646C151.019 157.992 150.692 156.967 150.692 155.571V142.159H154.085V155.253C154.085 155.907 154.226 156.366 154.509 156.631C154.792 156.879 155.233 157.003 155.834 157.003H157.822V159.627H154.8ZM148.465 148.096V145.472H157.822V148.096H148.465ZM159.78 159.627V145.472H163.173V159.627H159.78ZM159.727 143.59V140.568H163.253V143.59H159.727ZM166.576 159.627V145.472H169.651L169.783 149.448L169.385 149.289C169.527 148.3 169.818 147.504 170.26 146.903C170.702 146.303 171.241 145.861 171.877 145.578C172.513 145.295 173.211 145.154 173.971 145.154C175.014 145.154 175.888 145.384 176.595 145.843C177.32 146.303 177.868 146.939 178.239 147.752C178.61 148.547 178.795 149.475 178.795 150.535V159.627H175.403V151.622C175.403 150.826 175.323 150.155 175.164 149.607C175.005 149.059 174.74 148.644 174.369 148.361C174.015 148.061 173.538 147.911 172.937 147.911C172.036 147.911 171.312 148.229 170.764 148.865C170.234 149.501 169.969 150.42 169.969 151.622V159.627H166.576ZM187.672 163.921C186.435 163.921 185.375 163.753 184.491 163.417C183.608 163.081 182.892 162.604 182.344 161.986C181.814 161.385 181.443 160.687 181.231 159.892L184.73 159.653C184.907 160.183 185.207 160.599 185.631 160.899C186.073 161.199 186.753 161.35 187.672 161.35C188.715 161.35 189.519 161.111 190.084 160.634C190.65 160.175 190.933 159.45 190.933 158.46V156.658C190.597 157.347 190.058 157.904 189.316 158.328C188.573 158.734 187.743 158.938 186.824 158.938C185.658 158.938 184.615 158.655 183.696 158.089C182.795 157.506 182.088 156.702 181.576 155.677C181.063 154.635 180.807 153.433 180.807 152.072C180.807 150.712 181.054 149.519 181.549 148.494C182.062 147.451 182.768 146.638 183.67 146.055C184.571 145.454 185.605 145.154 186.771 145.154C187.796 145.154 188.679 145.384 189.422 145.843C190.164 146.303 190.703 146.912 191.039 147.672V145.472H194.352V158.381C194.352 159.583 194.069 160.599 193.504 161.429C192.956 162.26 192.178 162.878 191.171 163.285C190.182 163.709 189.015 163.921 187.672 163.921ZM187.619 156.287C188.626 156.287 189.431 155.916 190.031 155.174C190.632 154.414 190.941 153.371 190.959 152.046C190.977 151.162 190.844 150.411 190.561 149.793C190.296 149.157 189.908 148.671 189.395 148.335C188.9 147.981 188.308 147.805 187.619 147.805C186.577 147.805 185.764 148.193 185.181 148.971C184.615 149.731 184.332 150.756 184.332 152.046C184.332 153.336 184.624 154.37 185.207 155.147C185.808 155.907 186.612 156.287 187.619 156.287Z" fill="#28A7FF"/>
</g>
<g filter="url(#filter3_dddd_490_4586)">
<rect x="348" y="212" width="200.013" height="47.2534" rx="23.6267" fill="#C5D4FF"/>
<path d="M380.524 244.627L375.487 225.807H379.119L382.565 239.855L386.037 225.807H389.244L392.717 239.855L396.136 225.807H399.794L394.758 244.627H390.941L387.654 231.744L384.367 244.627H380.524ZM406.96 244.945C405.547 244.945 404.319 244.644 403.276 244.044C402.233 243.425 401.429 242.559 400.864 241.446C400.298 240.333 400.016 239.034 400.016 237.549C400.016 236.065 400.298 234.775 400.864 233.679C401.429 232.566 402.225 231.7 403.25 231.082C404.292 230.463 405.503 230.154 406.881 230.154C408.224 230.154 409.399 230.454 410.406 231.055C411.431 231.656 412.218 232.522 412.765 233.653C413.313 234.784 413.587 236.145 413.587 237.735V238.504H403.541C403.612 239.741 403.948 240.677 404.548 241.313C405.167 241.932 405.98 242.241 406.987 242.241C407.747 242.241 408.374 242.073 408.869 241.737C409.381 241.384 409.735 240.898 409.929 240.28L413.402 240.492C413.013 241.87 412.244 242.957 411.096 243.752C409.965 244.547 408.586 244.945 406.96 244.945ZM403.541 236.224H410.088C410.018 235.075 409.691 234.227 409.108 233.679C408.524 233.114 407.782 232.831 406.881 232.831C405.98 232.831 405.229 233.123 404.628 233.706C404.045 234.289 403.682 235.128 403.541 236.224ZM423.317 244.945C422.327 244.945 421.461 244.733 420.719 244.309C419.994 243.885 419.429 243.293 419.022 242.533L418.943 244.627H415.709V225.807H419.102V232.487C419.491 231.833 420.047 231.285 420.772 230.843C421.496 230.384 422.345 230.154 423.317 230.154C424.536 230.154 425.587 230.463 426.471 231.082C427.372 231.683 428.061 232.54 428.538 233.653C429.033 234.749 429.281 236.047 429.281 237.549C429.281 239.051 429.033 240.359 428.538 241.472C428.061 242.568 427.372 243.425 426.471 244.044C425.587 244.644 424.536 244.945 423.317 244.945ZM422.548 242.188C423.52 242.188 424.297 241.782 424.88 240.969C425.464 240.138 425.755 238.998 425.755 237.549C425.755 236.083 425.464 234.943 424.88 234.13C424.315 233.317 423.546 232.911 422.574 232.911C421.85 232.911 421.223 233.096 420.692 233.467C420.18 233.821 419.782 234.342 419.5 235.031C419.235 235.72 419.102 236.56 419.102 237.549C419.102 238.504 419.235 239.334 419.5 240.041C419.782 240.73 420.18 241.26 420.692 241.631C421.205 242.003 421.823 242.188 422.548 242.188ZM437.641 244.627V225.807H443.897C446.901 225.807 449.207 226.629 450.815 228.272C452.441 229.898 453.254 232.222 453.254 235.243C453.254 238.247 452.459 240.562 450.868 242.188C449.278 243.814 447.007 244.627 444.056 244.627H437.641ZM441.087 241.631H443.897C445.858 241.631 447.316 241.101 448.271 240.041C449.225 238.981 449.702 237.382 449.702 235.243C449.702 233.07 449.225 231.453 448.271 230.393C447.316 229.332 445.858 228.802 443.897 228.802H441.087V241.631ZM462.073 244.945C460.659 244.945 459.431 244.644 458.388 244.044C457.346 243.425 456.542 242.559 455.976 241.446C455.411 240.333 455.128 239.034 455.128 237.549C455.128 236.065 455.411 234.775 455.976 233.679C456.542 232.566 457.337 231.7 458.362 231.082C459.404 230.463 460.615 230.154 461.993 230.154C463.336 230.154 464.511 230.454 465.519 231.055C466.543 231.656 467.33 232.522 467.878 233.653C468.425 234.784 468.699 236.145 468.699 237.735V238.504H458.653C458.724 239.741 459.06 240.677 459.661 241.313C460.279 241.932 461.092 242.241 462.099 242.241C462.859 242.241 463.486 242.073 463.981 241.737C464.494 241.384 464.847 240.898 465.041 240.28L468.514 240.492C468.125 241.87 467.356 242.957 466.208 243.752C465.077 244.547 463.698 244.945 462.073 244.945ZM458.653 236.224H465.2C465.13 235.075 464.803 234.227 464.22 233.679C463.637 233.114 462.894 232.831 461.993 232.831C461.092 232.831 460.341 233.123 459.74 233.706C459.157 234.289 458.795 235.128 458.653 236.224ZM476.573 244.945C475.177 244.945 474.002 244.742 473.048 244.335C472.111 243.929 471.387 243.363 470.874 242.639C470.362 241.914 470.07 241.092 470 240.174L473.472 240.015C473.596 240.757 473.905 241.331 474.4 241.737C474.895 242.144 475.628 242.347 476.6 242.347C477.395 242.347 478.014 242.223 478.455 241.976C478.915 241.711 479.144 241.305 479.144 240.757C479.144 240.439 479.065 240.174 478.906 239.962C478.747 239.749 478.446 239.564 478.005 239.405C477.563 239.246 476.909 239.087 476.043 238.928C474.594 238.68 473.454 238.38 472.624 238.027C471.793 237.655 471.201 237.196 470.848 236.648C470.512 236.1 470.344 235.42 470.344 234.607C470.344 233.282 470.848 232.213 471.855 231.4C472.88 230.569 474.373 230.154 476.335 230.154C477.607 230.154 478.676 230.366 479.542 230.79C480.408 231.197 481.079 231.762 481.557 232.487C482.051 233.193 482.361 234.006 482.484 234.925L479.065 235.084C478.977 234.607 478.818 234.192 478.588 233.838C478.358 233.485 478.049 233.22 477.66 233.043C477.271 232.849 476.812 232.752 476.282 232.752C475.487 232.752 474.886 232.911 474.479 233.229C474.073 233.547 473.87 233.971 473.87 234.501C473.87 234.872 473.958 235.181 474.135 235.429C474.329 235.676 474.638 235.879 475.062 236.039C475.487 236.18 476.052 236.312 476.759 236.436C478.243 236.666 479.41 236.966 480.258 237.337C481.124 237.691 481.733 238.15 482.087 238.716C482.458 239.264 482.643 239.926 482.643 240.704C482.643 241.605 482.387 242.374 481.875 243.01C481.38 243.646 480.673 244.132 479.754 244.468C478.853 244.786 477.793 244.945 476.573 244.945ZM484.761 244.627V230.472H488.154V244.627H484.761ZM484.708 228.59V225.568H488.234V228.59H484.708ZM497.134 248.921C495.897 248.921 494.837 248.753 493.953 248.417C493.07 248.081 492.354 247.604 491.806 246.986C491.276 246.385 490.905 245.687 490.693 244.892L494.192 244.653C494.369 245.183 494.669 245.599 495.093 245.899C495.535 246.199 496.215 246.35 497.134 246.35C498.177 246.35 498.981 246.111 499.546 245.634C500.112 245.175 500.395 244.45 500.395 243.46V241.658C500.059 242.347 499.52 242.904 498.778 243.328C498.035 243.734 497.205 243.938 496.286 243.938C495.12 243.938 494.077 243.655 493.158 243.089C492.257 242.506 491.55 241.702 491.038 240.677C490.525 239.635 490.269 238.433 490.269 237.072C490.269 235.712 490.516 234.519 491.011 233.494C491.524 232.451 492.23 231.638 493.132 231.055C494.033 230.454 495.067 230.154 496.233 230.154C497.258 230.154 498.141 230.384 498.884 230.843C499.626 231.303 500.165 231.912 500.501 232.672V230.472H503.814V243.381C503.814 244.583 503.531 245.599 502.966 246.429C502.418 247.26 501.64 247.878 500.633 248.285C499.644 248.709 498.477 248.921 497.134 248.921ZM497.081 241.287C498.088 241.287 498.893 240.916 499.493 240.174C500.094 239.414 500.403 238.371 500.421 237.046C500.439 236.162 500.306 235.411 500.023 234.793C499.758 234.157 499.37 233.671 498.857 233.335C498.362 232.981 497.77 232.805 497.081 232.805C496.039 232.805 495.226 233.193 494.643 233.971C494.077 234.731 493.794 235.756 493.794 237.046C493.794 238.336 494.086 239.37 494.669 240.147C495.27 240.907 496.074 241.287 497.081 241.287ZM506.998 244.627V230.472H510.073L510.205 234.448L509.808 234.289C509.949 233.3 510.24 232.504 510.682 231.903C511.124 231.303 511.663 230.861 512.299 230.578C512.935 230.295 513.633 230.154 514.393 230.154C515.436 230.154 516.311 230.384 517.017 230.843C517.742 231.303 518.29 231.939 518.661 232.752C519.032 233.547 519.217 234.475 519.217 235.535V244.627H515.825V236.622C515.825 235.826 515.745 235.155 515.586 234.607C515.427 234.059 515.162 233.644 514.791 233.361C514.437 233.061 513.96 232.911 513.359 232.911C512.458 232.911 511.734 233.229 511.186 233.865C510.656 234.501 510.391 235.42 510.391 236.622V244.627H506.998Z" fill="#5352ED"/>
</g>
<g filter="url(#filter4_dddd_490_4586)">
<rect x="95" y="300" width="171.013" height="47.2534" rx="23.6267" fill="#DCFCE6"/>
<path d="M122.01 332.627L128.796 313.807H133.011L139.796 332.627H136.191L134.628 328.174H127.179L125.615 332.627H122.01ZM128.186 325.231H133.62L130.917 317.279L128.186 325.231ZM141.107 336.603V318.472H144.368L144.447 321.494L144.102 321.335C144.456 320.292 145.03 319.506 145.825 318.976C146.638 318.428 147.584 318.154 148.662 318.154C150.005 318.154 151.118 318.49 152.001 319.161C152.903 319.833 153.574 320.725 154.016 321.838C154.458 322.952 154.679 324.189 154.679 325.549C154.679 326.91 154.449 328.147 153.989 329.26C153.548 330.374 152.876 331.266 151.975 331.938C151.091 332.609 149.978 332.945 148.635 332.945C147.928 332.945 147.266 332.821 146.647 332.574C146.046 332.326 145.525 331.973 145.083 331.513C144.659 331.054 144.359 330.515 144.182 329.897L144.5 329.631V336.603H141.107ZM147.84 330.188C148.865 330.188 149.669 329.782 150.252 328.969C150.853 328.138 151.153 326.998 151.153 325.549C151.153 324.1 150.853 322.969 150.252 322.157C149.669 321.326 148.865 320.911 147.84 320.911C147.151 320.911 146.559 321.087 146.064 321.441C145.569 321.777 145.18 322.289 144.898 322.978C144.633 323.667 144.5 324.524 144.5 325.549C144.5 326.574 144.633 327.431 144.898 328.121C145.163 328.81 145.543 329.331 146.037 329.684C146.55 330.02 147.151 330.188 147.84 330.188ZM156.781 332.627V318.472H159.962L160.095 322.395L159.803 322.342C160.015 320.981 160.413 320.001 160.996 319.4C161.597 318.781 162.41 318.472 163.435 318.472H164.733V321.388H163.408C162.684 321.388 162.083 321.494 161.606 321.706C161.128 321.918 160.766 322.254 160.519 322.713C160.289 323.155 160.174 323.738 160.174 324.463V332.627H156.781ZM172.185 332.945C170.789 332.945 169.561 332.644 168.501 332.044C167.458 331.425 166.646 330.559 166.062 329.446C165.497 328.333 165.214 327.034 165.214 325.549C165.214 324.047 165.497 322.749 166.062 321.653C166.646 320.54 167.458 319.683 168.501 319.082C169.561 318.463 170.789 318.154 172.185 318.154C173.582 318.154 174.801 318.463 175.843 319.082C176.886 319.683 177.69 320.54 178.256 321.653C178.839 322.749 179.13 324.047 179.13 325.549C179.13 327.034 178.839 328.333 178.256 329.446C177.69 330.559 176.886 331.425 175.843 332.044C174.801 332.644 173.582 332.945 172.185 332.945ZM172.185 330.188C173.281 330.188 174.12 329.782 174.704 328.969C175.304 328.156 175.605 327.016 175.605 325.549C175.605 324.1 175.304 322.969 174.704 322.157C174.12 321.326 173.281 320.911 172.185 320.911C171.09 320.911 170.242 321.326 169.641 322.157C169.04 322.969 168.74 324.1 168.74 325.549C168.74 327.016 169.04 328.156 169.641 328.969C170.242 329.782 171.09 330.188 172.185 330.188ZM184.596 332.627L179.428 318.472H183.006L186.611 329.207L190.216 318.472H193.794L188.625 332.627H184.596ZM199.06 332.945C197.575 332.945 196.382 332.609 195.481 331.938C194.58 331.248 194.129 330.294 194.129 329.075C194.129 327.855 194.509 326.901 195.269 326.212C196.029 325.523 197.186 325.028 198.741 324.728L203.433 323.8C203.433 322.793 203.203 322.042 202.744 321.547C202.285 321.034 201.604 320.778 200.703 320.778C199.89 320.778 199.245 320.973 198.768 321.361C198.309 321.732 197.99 322.271 197.814 322.978L194.368 322.819C194.651 321.317 195.34 320.169 196.435 319.373C197.531 318.56 198.954 318.154 200.703 318.154C202.717 318.154 204.237 318.667 205.262 319.691C206.305 320.699 206.826 322.148 206.826 324.039V329.181C206.826 329.552 206.888 329.808 207.012 329.95C207.153 330.091 207.356 330.162 207.621 330.162H208.072V332.627C207.966 332.662 207.789 332.689 207.542 332.706C207.312 332.724 207.073 332.733 206.826 332.733C206.243 332.733 205.722 332.644 205.262 332.468C204.803 332.273 204.449 331.946 204.202 331.487C203.954 331.01 203.831 330.365 203.831 329.552L204.122 329.764C203.981 330.382 203.672 330.939 203.195 331.434C202.735 331.911 202.152 332.282 201.445 332.547C200.738 332.812 199.943 332.945 199.06 332.945ZM199.749 330.48C200.509 330.48 201.162 330.329 201.71 330.029C202.258 329.729 202.682 329.313 202.983 328.783C203.283 328.253 203.433 327.626 203.433 326.901V326.106L199.775 326.848C199.015 327.007 198.468 327.246 198.132 327.564C197.814 327.864 197.655 328.262 197.655 328.757C197.655 329.305 197.831 329.729 198.185 330.029C198.556 330.329 199.077 330.48 199.749 330.48ZM214.626 332.945C213.424 332.945 212.382 332.644 211.498 332.044C210.632 331.443 209.961 330.586 209.484 329.472C209.007 328.359 208.768 327.051 208.768 325.549C208.768 324.047 209.007 322.74 209.484 321.626C209.961 320.513 210.641 319.656 211.525 319.055C212.408 318.454 213.442 318.154 214.626 318.154C215.616 318.154 216.482 318.357 217.224 318.764C217.984 319.17 218.558 319.744 218.947 320.487V313.807H222.34V332.627H219.106L219.026 330.533C218.637 331.293 218.054 331.885 217.277 332.309C216.499 332.733 215.616 332.945 214.626 332.945ZM215.66 330.188C216.367 330.188 216.959 330.011 217.436 329.658C217.931 329.305 218.302 328.783 218.549 328.094C218.814 327.387 218.947 326.539 218.947 325.549C218.947 324.542 218.814 323.694 218.549 323.005C218.302 322.316 217.931 321.794 217.436 321.441C216.959 321.087 216.367 320.911 215.66 320.911C214.635 320.911 213.813 321.326 213.195 322.157C212.594 322.969 212.293 324.1 212.293 325.549C212.293 326.963 212.594 328.094 213.195 328.942C213.813 329.773 214.635 330.188 215.66 330.188ZM231.413 332.945C230.017 332.945 228.789 332.644 227.729 332.044C226.686 331.425 225.874 330.559 225.29 329.446C224.725 328.333 224.442 327.034 224.442 325.549C224.442 324.047 224.725 322.749 225.29 321.653C225.874 320.54 226.686 319.683 227.729 319.082C228.789 318.463 230.017 318.154 231.413 318.154C232.81 318.154 234.029 318.463 235.071 319.082C236.114 319.683 236.918 320.54 237.484 321.653C238.067 322.749 238.358 324.047 238.358 325.549C238.358 327.034 238.067 328.333 237.484 329.446C236.918 330.559 236.114 331.425 235.071 332.044C234.029 332.644 232.81 332.945 231.413 332.945ZM231.413 330.188C232.509 330.188 233.348 329.782 233.932 328.969C234.532 328.156 234.833 327.016 234.833 325.549C234.833 324.1 234.532 322.969 233.932 322.157C233.348 321.326 232.509 320.911 231.413 320.911C230.318 320.911 229.47 321.326 228.869 322.157C228.268 322.969 227.968 324.1 227.968 325.549C227.968 327.016 228.268 328.156 228.869 328.969C229.47 329.782 230.318 330.188 231.413 330.188Z" fill="#23C457"/>
</g>
</g>
<defs>
<filter id="filter0_dddd_490_4586" x="41" y="46" width="511" height="419" filterUnits="userSpaceOnUse" color-interpolation-filters="sRGB">
<feFlood flood-opacity="0" result="BackgroundImageFix"/>
<feColorMatrix in="SourceAlpha" type="matrix" values="0 0 0 0 0 0 0 0 0 0 0 0 0 0 0 0 0 0 127 0" result="hardAlpha"/>
<feOffset dy="5"/>
<feGaussianBlur stdDeviation="5"/>
<feColorMatrix type="matrix" values="0 0 0 0 0 0 0 0 0 0 0 0 0 0 0 0 0 0 0.05 0"/>
<feBlend mode="normal" in2="BackgroundImageFix" result="effect1_dropShadow_490_4586"/>
<feColorMatrix in="SourceAlpha" type="matrix" values="0 0 0 0 0 0 0 0 0 0 0 0 0 0 0 0 0 0 127 0" result="hardAlpha"/>
<feOffset dy="19"/>
<feGaussianBlur stdDeviation="9.5"/>
<feColorMatrix type="matrix" values="0 0 0 0 0 0 0 0 0 0 0 0 0 0 0 0 0 0 0.04 0"/>
<feBlend mode="normal" in2="effect1_dropShadow_490_4586" result="effect2_dropShadow_490_4586"/>
<feColorMatrix in="SourceAlpha" type="matrix" values="0 0 0 0 0 0 0 0 0 0 0 0 0 0 0 0 0 0 127 0" result="hardAlpha"/>
<feOffset dy="43"/>
<feGaussianBlur stdDeviation="13"/>
<feColorMatrix type="matrix" values="0 0 0 0 0 0 0 0 0 0 0 0 0 0 0 0 0 0 0.03 0"/>
<feBlend mode="normal" in2="effect2_dropShadow_490_4586" result="effect3_dropShadow_490_4586"/>
<feColorMatrix in="SourceAlpha" type="matrix" values="0 0 0 0 0 0 0 0 0 0 0 0 0 0 0 0 0 0 127 0" result="hardAlpha"/>
<feOffset dy="76"/>
<feGaussianBlur stdDeviation="15"/>
<feColorMatrix type="matrix" values="0 0 0 0 0 0 0 0 0 0 0 0 0 0 0 0 0 0 0.01 0"/>
<feBlend mode="normal" in2="effect3_dropShadow_490_4586" result="effect4_dropShadow_490_4586"/>
<feBlend mode="normal" in="SourceGraphic" in2="effect4_dropShadow_490_4586" result="shape"/>
</filter>
<filter id="filter1_dddd_490_4586" x="256" y="35" width="297.013" height="158.253" filterUnits="userSpaceOnUse" color-interpolation-filters="sRGB">
<feFlood flood-opacity="0" result="BackgroundImageFix"/>
<feColorMatrix in="SourceAlpha" type="matrix" values="0 0 0 0 0 0 0 0 0 0 0 0 0 0 0 0 0 0 127 0" result="hardAlpha"/>
<feOffset dy="5"/>
<feGaussianBlur stdDeviation="5"/>
<feColorMatrix type="matrix" values="0 0 0 0 0 0 0 0 0 0 0 0 0 0 0 0 0 0 0.05 0"/>
<feBlend mode="normal" in2="BackgroundImageFix" result="effect1_dropShadow_490_4586"/>
<feColorMatrix in="SourceAlpha" type="matrix" values="0 0 0 0 0 0 0 0 0 0 0 0 0 0 0 0 0 0 127 0" result="hardAlpha"/>
<feOffset dy="19"/>
<feGaussianBlur stdDeviation="9.5"/>
<feColorMatrix type="matrix" values="0 0 0 0 0 0 0 0 0 0 0 0 0 0 0 0 0 0 0.04 0"/>
<feBlend mode="normal" in2="effect1_dropShadow_490_4586" result="effect2_dropShadow_490_4586"/>
<feColorMatrix in="SourceAlpha" type="matrix" values="0 0 0 0 0 0 0 0 0 0 0 0 0 0 0 0 0 0 127 0" result="hardAlpha"/>
<feOffset dy="43"/>
<feGaussianBlur stdDeviation="13"/>
<feColorMatrix type="matrix" values="0 0 0 0 0 0 0 0 0 0 0 0 0 0 0 0 0 0 0.03 0"/>
<feBlend mode="normal" in2="effect2_dropShadow_490_4586" result="effect3_dropShadow_490_4586"/>
<feColorMatrix in="SourceAlpha" type="matrix" values="0 0 0 0 0 0 0 0 0 0 0 0 0 0 0 0 0 0 127 0" result="hardAlpha"/>
<feOffset dy="76"/>
<feGaussianBlur stdDeviation="15"/>
<feColorMatrix type="matrix" values="0 0 0 0 0 0 0 0 0 0 0 0 0 0 0 0 0 0 0.01 0"/>
<feBlend mode="normal" in2="effect3_dropShadow_490_4586" result="effect4_dropShadow_490_4586"/>
<feBlend mode="normal" in="SourceGraphic" in2="effect4_dropShadow_490_4586" result="shape"/>
</filter>
<filter id="filter2_dddd_490_4586" x="10" y="122" width="243.013" height="158.253" filterUnits="userSpaceOnUse" color-interpolation-filters="sRGB">
<feFlood flood-opacity="0" result="BackgroundImageFix"/>
<feColorMatrix in="SourceAlpha" type="matrix" values="0 0 0 0 0 0 0 0 0 0 0 0 0 0 0 0 0 0 127 0" result="hardAlpha"/>
<feOffset dy="5"/>
<feGaussianBlur stdDeviation="5"/>
<feColorMatrix type="matrix" values="0 0 0 0 0 0 0 0 0 0 0 0 0 0 0 0 0 0 0.05 0"/>
<feBlend mode="normal" in2="BackgroundImageFix" result="effect1_dropShadow_490_4586"/>
<feColorMatrix in="SourceAlpha" type="matrix" values="0 0 0 0 0 0 0 0 0 0 0 0 0 0 0 0 0 0 127 0" result="hardAlpha"/>
<feOffset dy="19"/>
<feGaussianBlur stdDeviation="9.5"/>
<feColorMatrix type="matrix" values="0 0 0 0 0 0 0 0 0 0 0 0 0 0 0 0 0 0 0.04 0"/>
<feBlend mode="normal" in2="effect1_dropShadow_490_4586" result="effect2_dropShadow_490_4586"/>
<feColorMatrix in="SourceAlpha" type="matrix" values="0 0 0 0 0 0 0 0 0 0 0 0 0 0 0 0 0 0 127 0" result="hardAlpha"/>
<feOffset dy="43"/>
<feGaussianBlur stdDeviation="13"/>
<feColorMatrix type="matrix" values="0 0 0 0 0 0 0 0 0 0 0 0 0 0 0 0 0 0 0.03 0"/>
<feBlend mode="normal" in2="effect2_dropShadow_490_4586" result="effect3_dropShadow_490_4586"/>
<feColorMatrix in="SourceAlpha" type="matrix" values="0 0 0 0 0 0 0 0 0 0 0 0 0 0 0 0 0 0 127 0" result="hardAlpha"/>
<feOffset dy="76"/>
<feGaussianBlur stdDeviation="15"/>
<feColorMatrix type="matrix" values="0 0 0 0 0 0 0 0 0 0 0 0 0 0 0 0 0 0 0.01 0"/>
<feBlend mode="normal" in2="effect3_dropShadow_490_4586" result="effect4_dropShadow_490_4586"/>
<feBlend mode="normal" in="SourceGraphic" in2="effect4_dropShadow_490_4586" result="shape"/>
</filter>
<filter id="filter3_dddd_490_4586" x="318" y="207" width="260.013" height="158.253" filterUnits="userSpaceOnUse" color-interpolation-filters="sRGB">
<feFlood flood-opacity="0" result="BackgroundImageFix"/>
<feColorMatrix in="SourceAlpha" type="matrix" values="0 0 0 0 0 0 0 0 0 0 0 0 0 0 0 0 0 0 127 0" result="hardAlpha"/>
<feOffset dy="5"/>
<feGaussianBlur stdDeviation="5"/>
<feColorMatrix type="matrix" values="0 0 0 0 0 0 0 0 0 0 0 0 0 0 0 0 0 0 0.05 0"/>
<feBlend mode="normal" in2="BackgroundImageFix" result="effect1_dropShadow_490_4586"/>
<feColorMatrix in="SourceAlpha" type="matrix" values="0 0 0 0 0 0 0 0 0 0 0 0 0 0 0 0 0 0 127 0" result="hardAlpha"/>
<feOffset dy="19"/>
<feGaussianBlur stdDeviation="9.5"/>
<feColorMatrix type="matrix" values="0 0 0 0 0 0 0 0 0 0 0 0 0 0 0 0 0 0 0.04 0"/>
<feBlend mode="normal" in2="effect1_dropShadow_490_4586" result="effect2_dropShadow_490_4586"/>
<feColorMatrix in="SourceAlpha" type="matrix" values="0 0 0 0 0 0 0 0 0 0 0 0 0 0 0 0 0 0 127 0" result="hardAlpha"/>
<feOffset dy="43"/>
<feGaussianBlur stdDeviation="13"/>
<feColorMatrix type="matrix" values="0 0 0 0 0 0 0 0 0 0 0 0 0 0 0 0 0 0 0.03 0"/>
<feBlend mode="normal" in2="effect2_dropShadow_490_4586" result="effect3_dropShadow_490_4586"/>
<feColorMatrix in="SourceAlpha" type="matrix" values="0 0 0 0 0 0 0 0 0 0 0 0 0 0 0 0 0 0 127 0" result="hardAlpha"/>
<feOffset dy="76"/>
<feGaussianBlur stdDeviation="15"/>
<feColorMatrix type="matrix" values="0 0 0 0 0 0 0 0 0 0 0 0 0 0 0 0 0 0 0.01 0"/>
<feBlend mode="normal" in2="effect3_dropShadow_490_4586" result="effect4_dropShadow_490_4586"/>
<feBlend mode="normal" in="SourceGraphic" in2="effect4_dropShadow_490_4586" result="shape"/>
</filter>
<filter id="filter4_dddd_490_4586" x="65" y="295" width="231.013" height="158.253" filterUnits="userSpaceOnUse" color-interpolation-filters="sRGB">
<feFlood flood-opacity="0" result="BackgroundImageFix"/>
<feColorMatrix in="SourceAlpha" type="matrix" values="0 0 0 0 0 0 0 0 0 0 0 0 0 0 0 0 0 0 127 0" result="hardAlpha"/>
<feOffset dy="5"/>
<feGaussianBlur stdDeviation="5"/>
<feColorMatrix type="matrix" values="0 0 0 0 0 0 0 0 0 0 0 0 0 0 0 0 0 0 0.05 0"/>
<feBlend mode="normal" in2="BackgroundImageFix" result="effect1_dropShadow_490_4586"/>
<feColorMatrix in="SourceAlpha" type="matrix" values="0 0 0 0 0 0 0 0 0 0 0 0 0 0 0 0 0 0 127 0" result="hardAlpha"/>
<feOffset dy="19"/>
<feGaussianBlur stdDeviation="9.5"/>
<feColorMatrix type="matrix" values="0 0 0 0 0 0 0 0 0 0 0 0 0 0 0 0 0 0 0.04 0"/>
<feBlend mode="normal" in2="effect1_dropShadow_490_4586" result="effect2_dropShadow_490_4586"/>
<feColorMatrix in="SourceAlpha" type="matrix" values="0 0 0 0 0 0 0 0 0 0 0 0 0 0 0 0 0 0 127 0" result="hardAlpha"/>
<feOffset dy="43"/>
<feGaussianBlur stdDeviation="13"/>
<feColorMatrix type="matrix" values="0 0 0 0 0 0 0 0 0 0 0 0 0 0 0 0 0 0 0.03 0"/>
<feBlend mode="normal" in2="effect2_dropShadow_490_4586" result="effect3_dropShadow_490_4586"/>
<feColorMatrix in="SourceAlpha" type="matrix" values="0 0 0 0 0 0 0 0 0 0 0 0 0 0 0 0 0 0 127 0" result="hardAlpha"/>
<feOffset dy="76"/>
<feGaussianBlur stdDeviation="15"/>
<feColorMatrix type="matrix" values="0 0 0 0 0 0 0 0 0 0 0 0 0 0 0 0 0 0 0.01 0"/>
<feBlend mode="normal" in2="effect3_dropShadow_490_4586" result="effect4_dropShadow_490_4586"/>
<feBlend mode="normal" in="SourceGraphic" in2="effect4_dropShadow_490_4586" result="shape"/>
</filter>
<clipPath id="clip0_490_4586">
<rect width="592" height="410" fill="white"/>
</clipPath>
</defs>
</svg>
