<svg width="108" height="33" viewBox="0 0 108 33" fill="none" xmlns="http://www.w3.org/2000/svg">
<path d="M26.4727 0C29.6772 0.000173869 32.2744 2.5982 32.2744 5.80273V26.4727C32.2742 29.677 29.677 32.2742 26.4727 32.2744H5.80273C2.5982 32.2744 0.000172053 29.6772 0 26.4727V5.80273C0 2.59809 2.59809 0 5.80273 0H26.4727ZM26.8574 7.22168C26.6105 7.22171 26.3658 7.27022 26.1377 7.36523C25.9096 7.46027 25.7019 7.59984 25.5273 7.77539L12.6768 20.6924L6.91699 14.9023C6.74364 14.722 6.53588 14.5785 6.30664 14.4795C6.07737 14.3805 5.83058 14.3284 5.58105 14.3262C5.33142 14.324 5.08359 14.3718 4.85254 14.4668C4.62149 14.5618 4.41187 14.7025 4.23535 14.8799C4.05886 15.0573 3.91874 15.2678 3.82422 15.5C3.7297 15.7322 3.6824 15.9815 3.68457 16.2324C3.6868 16.483 3.73855 16.7306 3.83691 16.9609C3.93545 17.1915 4.07923 17.4009 4.25879 17.5752L11.2598 24.6104C11.446 24.7975 11.6669 24.9465 11.9102 25.0479C12.1535 25.1491 12.4144 25.2012 12.6777 25.2012C12.9411 25.2012 13.202 25.1491 13.4453 25.0479C13.6886 24.9465 13.9095 24.7975 14.0957 24.6104L28.1875 10.4473C28.5399 10.093 28.7382 9.61232 28.7383 9.11133C28.7383 8.61033 28.5399 8.12973 28.1875 7.77539C28.0129 7.5998 27.8053 7.46027 27.5771 7.36523C27.349 7.27025 27.1043 7.22168 26.8574 7.22168Z" fill="#5352ED"/>
<path d="M43.582 24.6372V10.0127H38.3641V7.64308H51.385V10.0127H46.1671V24.6372H43.582ZM54.8807 24.9244C53.5562 24.9244 52.4951 24.6213 51.6973 24.0149C50.9154 23.4085 50.5244 22.5548 50.5244 21.4538C50.5244 20.3528 50.8515 19.4991 51.5058 18.8927C52.176 18.2704 53.2052 17.8236 54.5934 17.5523L58.9736 16.7146C58.9736 15.7253 58.7422 14.9912 58.2795 14.5125C57.8167 14.0179 57.1306 13.7705 56.2211 13.7705C55.4072 13.7705 54.769 13.954 54.3062 14.3211C53.8435 14.6721 53.5243 15.1987 53.3488 15.9008L50.7398 15.7332C50.9792 14.4567 51.5696 13.4514 52.5111 12.7174C53.4685 11.9834 54.7051 11.6164 56.2211 11.6164C57.9444 11.6164 59.2529 12.0791 60.1465 13.0046C61.056 13.9142 61.5108 15.1987 61.5108 16.8582V21.8128C61.5108 22.116 61.5586 22.3314 61.6544 22.4591C61.7661 22.5708 61.9416 22.6266 62.181 22.6266H62.6357V24.6372C62.556 24.6532 62.4283 24.6691 62.2528 24.6851C62.0772 24.701 61.8937 24.709 61.7023 24.709C61.1597 24.709 60.689 24.6213 60.2901 24.4457C59.9071 24.2702 59.6199 23.983 59.4284 23.584C59.2369 23.1692 59.1412 22.6187 59.1412 21.9325L59.4045 22.0522C59.2768 22.6107 58.9976 23.1053 58.5667 23.5362C58.1518 23.967 57.6173 24.3101 56.963 24.5654C56.3248 24.8048 55.6306 24.9244 54.8807 24.9244ZM55.2876 22.9139C56.0535 22.9139 56.7077 22.7702 57.2503 22.483C57.7928 22.1798 58.2157 21.765 58.5188 21.2384C58.822 20.7118 58.9736 20.1134 58.9736 19.4432V18.6294L55.2397 19.3475C54.4738 19.4911 53.9312 19.7225 53.6121 20.0416C53.3089 20.3448 53.1573 20.7357 53.1573 21.2144C53.1573 21.757 53.3408 22.1798 53.7078 22.483C54.0908 22.7702 54.6174 22.9139 55.2876 22.9139ZM69.1125 24.9244C67.9157 24.9244 66.9025 24.7409 66.0727 24.3739C65.2589 24.0069 64.6286 23.5043 64.1818 22.866C63.735 22.2118 63.4797 21.4618 63.4159 20.6161L66.0248 20.4964C66.1525 21.1985 66.4557 21.757 66.9344 22.1719C67.4131 22.5867 68.1391 22.7942 69.1125 22.7942C69.9103 22.7942 70.5406 22.6665 71.0034 22.4112C71.4661 22.1559 71.6975 21.749 71.6975 21.1905C71.6975 20.8873 71.6177 20.632 71.4582 20.4246C71.3146 20.2012 71.0273 20.0177 70.5965 19.8741C70.1657 19.7145 69.5274 19.5629 68.6817 19.4193C67.4211 19.1799 66.4317 18.9007 65.7137 18.5816C64.9956 18.2624 64.485 17.8555 64.1818 17.3608C63.8786 16.8662 63.727 16.2678 63.727 15.5657C63.727 14.4008 64.1579 13.4514 65.0196 12.7174C65.8972 11.9834 67.1578 11.6164 68.8013 11.6164C69.9024 11.6164 70.8279 11.8078 71.5778 12.1908C72.3278 12.5578 72.9103 13.0605 73.3251 13.6987C73.756 14.3211 74.0272 15.0232 74.1389 15.805L71.53 15.9487C71.4502 15.5019 71.2906 15.1189 71.0513 14.7998C70.8279 14.4647 70.5247 14.2094 70.1417 14.0338C69.7588 13.8423 69.304 13.7466 68.7774 13.7466C67.9636 13.7466 67.3572 13.9062 66.9583 14.2253C66.5594 14.5445 66.3599 14.9593 66.3599 15.47C66.3599 15.8529 66.4477 16.1641 66.6232 16.4034C66.8147 16.6428 67.1179 16.8422 67.5328 17.0018C67.9476 17.1454 68.4982 17.2731 69.1843 17.3848C70.5087 17.6082 71.5459 17.8874 72.2959 18.2225C73.0459 18.5417 73.5725 18.9406 73.8756 19.4193C74.1788 19.898 74.3304 20.4804 74.3304 21.1666C74.3304 21.9644 74.107 22.6426 73.6602 23.2011C73.2134 23.7596 72.5991 24.1904 71.8172 24.4936C71.0353 24.7808 70.1337 24.9244 69.1125 24.9244ZM76.4193 24.6372V7.64308H78.9565V18.1986L84.6771 11.9036H87.8844L82.9058 17.2651L88.0759 24.6372H85.1558L81.2064 18.8448L78.9565 21.2384V24.6372H76.4193ZM92.3444 24.6372C91.5147 24.6372 90.8445 24.4218 90.3338 23.991C89.8232 23.5601 89.5679 22.874 89.5679 21.9325V7.64308H92.1051V21.6932C92.1051 21.9804 92.1769 22.1958 92.3205 22.3394C92.4801 22.483 92.7034 22.5548 92.9907 22.5548H93.996V24.6372H92.3444ZM95.908 28.2275V26.1451H97.4638C97.8946 26.1451 98.2138 26.0813 98.4212 25.9537C98.6286 25.826 98.7882 25.6106 98.8999 25.3074L99.3068 24.2542H98.5169L93.9214 11.9036H96.6021L100.097 21.9086L103.424 11.9036H106.128L101.054 26.1212C100.799 26.8552 100.416 27.3898 99.9052 27.7249C99.4105 28.06 98.7164 28.2275 97.8228 28.2275H95.908Z" fill="#464646"/>
</svg>
