<svg width="31" height="31" viewBox="0 0 31 31" fill="none" xmlns="http://www.w3.org/2000/svg">
<path d="M28.0347 25.1187C26.3947 22.2405 23.834 19.9978 20.7646 18.7517C22.291 17.607 23.4185 16.011 23.9873 14.1898C24.5562 12.3687 24.5377 10.4147 23.9343 8.60464C23.331 6.79461 22.1734 5.22029 20.6256 4.1047C19.0778 2.98911 17.2183 2.38879 15.3103 2.38879C13.4024 2.38879 11.5428 2.98911 9.99501 4.1047C8.4472 5.22029 7.28965 6.79461 6.6863 8.60464C6.08296 10.4147 6.06442 12.3687 6.6333 14.1898C7.20219 16.011 8.32966 17.607 9.85601 18.7517C6.78668 19.9978 4.22593 22.2405 2.58599 25.1187C2.48438 25.2821 2.41665 25.4642 2.38684 25.6543C2.35703 25.8444 2.36574 26.0386 2.41246 26.2252C2.45918 26.4119 2.54295 26.5872 2.6588 26.7409C2.77464 26.8945 2.92019 27.0233 3.0868 27.1195C3.25341 27.2158 3.43767 27.2776 3.62863 27.3012C3.81958 27.3248 4.01334 27.3098 4.19839 27.257C4.38343 27.2043 4.55597 27.1149 4.70576 26.9941C4.85556 26.8733 4.97954 26.7237 5.07034 26.554C7.23771 22.8078 11.0653 20.5734 15.3103 20.5734C19.5554 20.5734 23.3829 22.809 25.5503 26.554C25.7471 26.8704 26.0592 27.0979 26.4207 27.1884C26.7821 27.2789 27.1646 27.2252 27.4872 27.0388C27.8099 26.8524 28.0474 26.5479 28.1495 26.1895C28.2517 25.8312 28.2105 25.4472 28.0347 25.1187ZM9.0905 11.4829C9.0905 10.2527 9.45528 9.0502 10.1387 8.02735C10.8222 7.0045 11.7936 6.20729 12.9301 5.73653C14.0666 5.26576 15.3172 5.14259 16.5238 5.38258C17.7303 5.62258 18.8385 6.21496 19.7084 7.08482C20.5783 7.95468 21.1706 9.06294 21.4106 10.2695C21.6506 11.476 21.5275 12.7266 21.0567 13.8631C20.5859 14.9997 19.7887 15.9711 18.7659 16.6545C17.743 17.3379 16.5405 17.7027 15.3103 17.7027C13.6613 17.7008 12.0804 17.0449 10.9143 15.8789C9.74831 14.7129 9.0924 13.1319 9.0905 11.4829Z" fill="#292929"/>
</svg>
